SplineFontDB: 3.2
FontName: GeosansLight-NMS
FullName: GeosansLight-NMS Regular
FamilyName: GeosansLight-NMS
Weight: Light
Copyright: M Klein   9.03
Version: 1.0 
ItalicAngle: 0
UnderlinePosition: -292
UnderlineWidth: 38
Ascent: 1638
Descent: 410
InvalidEm: 0
sfntRevision: 0x00010000
LayerCount: 2
Layer: 0 1 "Back" 1
Layer: 1 1 "Fore" 0
XUID: [1021 1001 330803830 18433]
StyleMap: 0x0000
FSType: 4
OS2Version: 3
OS2_WeightWidthSlopeOnly: 0
OS2_UseTypoMetrics: 0
CreationTime: -812456058
ModificationTime: 1402046455
PfmFamily: 17
TTFWeight: 300
TTFWidth: 5
LineGap: 0
VLineGap: 0
Panose: 2 0 6 3 2 0 0 2 0 3
OS2TypoAscent: 1638
OS2TypoAOffset: 0
OS2TypoDescent: -410
OS2TypoDOffset: 0
OS2TypoLinegap: 0
OS2WinAscent: 1849
OS2WinAOffset: 0
OS2WinDescent: 474
OS2WinDOffset: 0
HheadAscent: 1849
HheadAOffset: 0
HheadDescent: -474
HheadDOffset: 0
OS2SubXSize: 418
OS2SubYSize: 418
OS2SubXOff: 0
OS2SubYOff: 586
OS2SupXSize: 418
OS2SupYSize: 418
OS2SupXOff: 0
OS2SupYOff: 586
OS2StrikeYSize: 209
OS2StrikeYPos: 1049
OS2CapHeight: 1462
OS2XHeight: 846
OS2Vendor: 'MK  '
OS2CodePages: 20000111.00000000
OS2UnicodeRanges: 80000003.00000000.00000000.00000000

StartChar: .notdef
Encoding: 65536 -1 0
Width: 748
Flags: W
LayerCount: 2
Fore
SplineSet
68 0 m 1,0,-1
 68 1365 l 1,1,-1
 612 1365 l 1,2,-1
 612 0 l 1,3,-1
 68 0 l 1,0,-1
136 68 m 1,4,-1
 544 68 l 1,5,-1
 544 1297 l 1,6,-1
 136 1297 l 1,7,-1
 136 68 l 1,4,-1
EndSplineSet
EndChar

StartChar: uni000D
Encoding: 13 13 2
Width: 376
GlyphClass: 2
Flags: W
LayerCount: 2
Fore
SplineSet
147 0 m 1,0,-1
 147 846 l 1,1,-1
 231 846 l 1,2,-1
 231 0 l 1,3,-1
 147 0 l 1,0,-1
EndSplineSet
EndChar

StartChar: uni0005
Encoding: 5 5 3
Width: 741
GlyphClass: 2
Flags: W
LayerCount: 2
Fore
SplineSet
166 1087 m 1,0,-1
 209 1137 l 1,1,2
 289 1057 289 1057 395 1057 c 0,3,4
 493 1057 493 1057 569 1133 c 1,5,-1
 606 1087 l 1,6,7
 528 997 528 997 387 997 c 0,8,9
 250 997 250 997 166 1087 c 1,0,-1
EndSplineSet
EndChar

StartChar: uni0006
Encoding: 6 6 4
Width: 636
GlyphClass: 2
Flags: W
LayerCount: 2
Fore
SplineSet
182 1083 m 0,0,1
 182 1138 182 1138 250 1151 c 1,2,3
 301 1151 301 1151 317 1083 c 1,4,5
 317 1015 317 1015 250 1016 c 0,6,7
 227 1016 227 1016 203 1034 c 0,8,9
 185 1052 185 1052 182 1083 c 0,0,1
EndSplineSet
EndChar

StartChar: uni0008
Encoding: 8 8 5
Width: 606
GlyphClass: 2
Flags: W
LayerCount: 2
Fore
SplineSet
143 1102 m 256,0,1
 143 1170 143 1170 194.5 1221 c 128,-1,2
 246 1272 246 1272 313 1272 c 0,3,4
 381 1272 381 1272 432 1221 c 128,-1,5
 483 1170 483 1170 483 1102 c 256,6,7
 483 1034 483 1034 432 983 c 128,-1,8
 381 932 381 932 313 932 c 256,9,10
 245 932 245 932 194 983 c 128,-1,11
 143 1034 143 1034 143 1102 c 256,0,1
186 1104 m 256,12,13
 186 1055 186 1055 225 1016 c 128,-1,14
 264 977 264 977 313 977 c 256,15,16
 362 977 362 977 401 1016 c 128,-1,17
 440 1055 440 1055 440 1104 c 256,18,19
 440 1153 440 1153 401 1192 c 128,-1,20
 362 1231 362 1231 313 1231 c 256,21,22
 264 1231 264 1231 225 1192 c 128,-1,23
 186 1153 186 1153 186 1104 c 256,12,13
EndSplineSet
EndChar

StartChar: uni000B
Encoding: 11 11 6
Width: 542
GlyphClass: 2
Flags: W
LayerCount: 2
Fore
SplineSet
143 -131 m 1,0,-1
 154 -86 l 2,1,2
 156 -74 156 -74 195 0 c 1,3,-1
 289 0 l 1,4,-1
 250 -78 l 1,5,6
 238 -113 238 -113 238 -145 c 0,7,8
 238 -172 238 -172 250 -199 c 1,9,10
 264 -219 264 -219 299 -219 c 0,11,12
 319 -219 319 -219 350 -207 c 1,13,-1
 397 -176 l 1,14,-1
 397 -258 l 1,15,16
 379 -278 379 -278 342 -291 c 2,17,-1
 305 -303 l 1,18,-1
 266 -307 l 1,19,20
 211 -307 211 -307 178 -270 c 0,21,22
 143 -231 143 -231 143 -176 c 2,23,-1
 143 -131 l 1,0,-1
EndSplineSet
EndChar

StartChar: uni000C
Encoding: 12 12 7
Width: 774
GlyphClass: 2
Flags: W
LayerCount: 2
Fore
SplineSet
137 1145 m 1,0,-1
 180 1190 l 1,1,-1
 385 987 l 1,2,-1
 590 1190 l 1,3,-1
 633 1145 l 1,4,-1
 385 899 l 1,5,-1
 137 1145 l 1,0,-1
EndSplineSet
EndChar

StartChar: uni0019
Encoding: 25 25 8
Width: 1683
GlyphClass: 2
Flags: W
LayerCount: 2
Fore
SplineSet
102 731 m 256,0,1
 102 1063 102 1063 311 1272 c 0,2,3
 522 1483 522 1483 854 1483 c 0,4,5
 1184 1483 1184 1483 1397 1274 c 0,6,7
 1608 1063 1608 1063 1608 731 c 0,8,9
 1608 332 1608 332 1317 123 c 1,10,-1
 1647 -207 l 1,11,-1
 1534 -207 l 1,12,-1
 1249 80 l 1,13,14
 1075 -20 1075 -20 854 -20 c 0,15,16
 522 -20 522 -20 313 188 c 0,17,18
 102 399 102 399 102 731 c 256,0,1
186 731 m 0,19,20
 186 438 186 438 373 252 c 0,21,22
 561 64 561 64 854 63 c 0,23,24
 1038 63 1038 63 1186 143 c 1,25,-1
 877 455 l 1,26,-1
 985 455 l 1,27,-1
 1255 184 l 1,28,29
 1432 307 1432 307 1493 508 c 1,30,31
 1452 475 1452 475 1395 475 c 0,32,33
 1327 475 1327 475 1276 526.5 c 128,-1,34
 1225 578 1225 578 1225 645 c 0,35,36
 1225 713 1225 713 1276 764 c 128,-1,37
 1327 815 1327 815 1395 815 c 256,38,39
 1463 815 1463 815 1513 764 c 1,40,-1
 1524 754 l 1,41,42
 1518 1033 1518 1033 1337 1212 c 0,43,44
 1149 1400 1149 1400 854 1401 c 0,45,46
 559 1401 559 1401 375 1212 c 0,47,48
 187 1024 187 1024 186 731 c 0,19,20
487 645 m 0,49,50
 487 713 487 713 538.5 764 c 128,-1,51
 590 815 590 815 657 815 c 0,52,53
 725 815 725 815 776 764 c 128,-1,54
 827 713 827 713 827 645 c 256,55,56
 827 577 827 577 776 526 c 128,-1,57
 725 475 725 475 657 475 c 256,58,59
 589 475 589 475 538 526.5 c 128,-1,60
 487 578 487 578 487 645 c 0,49,50
530 647 m 256,61,62
 530 598 530 598 569 559 c 128,-1,63
 608 520 608 520 657 520 c 256,64,65
 706 520 706 520 745 559 c 128,-1,66
 784 598 784 598 784 647 c 256,67,68
 784 696 784 696 745.5 735 c 128,-1,69
 707 774 707 774 657 774 c 0,70,71
 608 774 608 774 569 735 c 128,-1,72
 530 696 530 696 530 647 c 256,61,62
633 612 m 256,73,74
 633 630 633 630 646 643.5 c 128,-1,75
 659 657 659 657 678 657 c 0,76,77
 696 657 696 657 709.5 644 c 128,-1,78
 723 631 723 631 723 612 c 0,79,80
 723 594 723 594 709.5 580.5 c 128,-1,81
 696 567 696 567 678 567 c 256,82,83
 660 567 660 567 646.5 580.5 c 128,-1,84
 633 594 633 594 633 612 c 256,73,74
1268 647 m 256,85,86
 1268 598 1268 598 1307 559 c 128,-1,87
 1346 520 1346 520 1395 520 c 256,88,89
 1444 520 1444 520 1483 559 c 0,90,91
 1508 584 1508 584 1516 608 c 0,92,93
 1518 620 1518 620 1519 633.5 c 128,-1,94
 1520 647 1520 647 1522 659 c 0,95,96
 1516 702 1516 702 1483 735 c 0,97,98
 1444 774 1444 774 1395 774 c 256,99,100
 1346 774 1346 774 1307 735 c 128,-1,101
 1268 696 1268 696 1268 647 c 256,85,86
1372 606 m 256,102,103
 1372 624 1372 624 1385.5 637.5 c 128,-1,104
 1399 651 1399 651 1417 651 c 256,105,106
 1435 651 1435 651 1448.5 638 c 128,-1,107
 1462 625 1462 625 1462 606 c 0,108,109
 1462 588 1462 588 1449 574.5 c 128,-1,110
 1436 561 1436 561 1417 561 c 0,111,112
 1399 561 1399 561 1385.5 574.5 c 128,-1,113
 1372 588 1372 588 1372 606 c 256,102,103
EndSplineSet
EndChar

StartChar: uni001A
Encoding: 26 26 9
Width: 964
GlyphClass: 2
Flags: W
LayerCount: 2
Fore
SplineSet
63 762 m 1,0,-1
 63 846 l 1,1,-1
 178 846 l 1,2,-1
 178 1321 l 2,3,4
 178 1417 178 1417 245.5 1472.5 c 128,-1,5
 313 1528 313 1528 412 1528 c 0,6,7
 508 1528 508 1528 573 1479 c 0,8,9
 647 1424 647 1424 647 1331 c 2,10,-1
 647 846 l 1,11,-1
 905 846 l 1,12,-1
 905 762 l 1,13,-1
 647 762 l 1,14,-1
 647 0 l 1,15,-1
 565 0 l 1,16,-1
 565 762 l 1,17,-1
 262 762 l 1,18,-1
 262 0 l 1,19,-1
 178 0 l 1,20,-1
 178 762 l 1,21,-1
 63 762 l 1,0,-1
262 846 m 1,22,-1
 565 846 l 1,23,-1
 565 1311 l 2,24,25
 565 1446 565 1446 412 1446 c 0,26,27
 262 1446 262 1446 262 1307 c 2,28,-1
 262 846 l 1,22,-1
EndSplineSet
EndChar

StartChar: uni001B
Encoding: 27 27 10
Width: 940
GlyphClass: 2
Flags: W
LayerCount: 2
Fore
SplineSet
63 762 m 1,0,-1
 63 846 l 1,1,-1
 178 846 l 1,2,-1
 178 1247 l 2,3,4
 178 1351 178 1351 241.5 1413 c 128,-1,5
 305 1475 305 1475 412 1475 c 0,6,7
 541 1475 541 1475 596 1399 c 1,8,9
 602 1456 602 1456 666 1489 c 0,10,11
 719 1518 719 1518 780 1518 c 0,12,13
 798 1518 798 1518 810.5 1517 c 128,-1,14
 823 1516 823 1516 831 1513 c 2,15,-1
 885 1505 l 1,16,-1
 885 1425 l 1,17,-1
 846 1432 l 1,18,-1
 778 1438 l 1,19,20
 727 1438 727 1438 696 1413 c 0,21,22
 657 1382 657 1382 657 1307 c 2,23,-1
 657 846 l 1,24,-1
 858 846 l 1,25,-1
 858 762 l 1,26,-1
 657 762 l 1,27,-1
 657 0 l 1,28,-1
 575 0 l 1,29,-1
 575 762 l 1,30,-1
 262 762 l 1,31,-1
 262 0 l 1,32,-1
 178 0 l 1,33,-1
 178 762 l 1,34,-1
 63 762 l 1,0,-1
262 846 m 1,35,-1
 575 846 l 1,36,-1
 575 1298 l 1,37,38
 557 1341 557 1341 512 1366 c 0,39,40
 467 1393 467 1393 412 1393 c 0,41,42
 262 1393 262 1393 262 1237 c 2,43,-1
 262 846 l 1,35,-1
EndSplineSet
EndChar

StartChar: exclam
Encoding: 33 33 12
Width: 417
GlyphClass: 2
Flags: W
LayerCount: 2
Fore
SplineSet
137 66 m 0,0,1
 137 127 137 127 211 139 c 1,2,3
 240 139 240 139 262 117 c 0,4,5
 279 101 279 101 285 66 c 1,6,7
 285 5 285 5 211 -8 c 1,8,9
 137 -8 137 -8 137 66 c 0,0,1
168 303 m 1,10,-1
 168 1462 l 1,11,-1
 250 1462 l 1,12,-1
 250 303 l 1,13,-1
 168 303 l 1,10,-1
EndSplineSet
EndChar

StartChar: quotedbl
Encoding: 34 34 13
Width: 552
GlyphClass: 2
Flags: W
LayerCount: 2
Fore
SplineSet
125 1489 m 1,0,-1
 209 1489 l 1,1,-1
 188 1161 l 1,2,-1
 145 1161 l 1,3,-1
 125 1489 l 1,0,-1
354 1489 m 1,4,-1
 438 1489 l 1,5,-1
 418 1161 l 1,6,-1
 377 1161 l 1,7,-1
 354 1489 l 1,4,-1
EndSplineSet
EndChar

StartChar: numbersign
Encoding: 35 35 14
Width: 1107
GlyphClass: 2
Flags: W
LayerCount: 2
Fore
SplineSet
66 721 m 1,0,-1
 82 772 l 1,1,-1
 344 772 l 1,2,-1
 401 1008 l 1,3,-1
 113 1008 l 1,4,-1
 129 1057 l 1,5,-1
 414 1057 l 1,6,-1
 477 1317 l 1,7,-1
 526 1317 l 1,8,-1
 465 1057 l 1,9,-1
 750 1057 l 1,10,-1
 813 1317 l 1,11,-1
 862 1317 l 1,12,-1
 801 1057 l 1,13,-1
 1069 1057 l 1,14,-1
 1053 1008 l 1,15,-1
 788 1008 l 1,16,-1
 731 772 l 1,17,-1
 1010 772 l 1,18,-1
 993 721 l 1,19,-1
 719 721 l 1,20,-1
 653 453 l 1,21,-1
 602 453 l 1,22,-1
 670 721 l 1,23,-1
 383 721 l 1,24,-1
 319 463 l 1,25,-1
 270 463 l 1,26,-1
 332 721 l 1,27,-1
 66 721 l 1,0,-1
395 772 m 1,28,-1
 682 772 l 1,29,-1
 739 1008 l 1,30,-1
 451 1008 l 1,31,-1
 395 772 l 1,28,-1
EndSplineSet
EndChar

StartChar: dollar
Encoding: 36 36 15
Width: 970
GlyphClass: 2
Flags: W
LayerCount: 2
Fore
SplineSet
74 301 m 1,0,-1
 158 330 l 1,1,2
 228 70 228 70 477 70 c 1,3,-1
 477 766 l 1,4,5
 313 823 313 823 244 893 c 0,6,7
 152 981 152 981 152 1133 c 0,8,9
 152 1274 152 1274 244 1370 c 0,10,11
 336 1468 336 1468 477 1468 c 1,12,-1
 477 1577 l 1,13,-1
 559 1577 l 1,14,-1
 559 1468 l 1,15,16
 758 1468 758 1468 854 1278 c 1,17,-1
 776 1243 l 1,18,19
 708 1366 708 1366 559 1386 c 1,20,-1
 559 823 l 1,21,22
 915 684 915 684 915 399 c 0,23,24
 915 219 915 219 829 109 c 0,25,26
 733 -14 733 -14 559 -14 c 1,27,-1
 559 -125 l 1,28,-1
 477 -125 l 1,29,-1
 477 -16 l 1,30,31
 325 -16 325 -16 217 68 c 0,32,33
 111 152 111 152 74 301 c 1,0,-1
238 1124 m 0,34,35
 238 1020 238 1020 311 952 c 0,36,37
 364 901 364 901 477 856 c 1,38,-1
 477 1386 l 1,39,40
 364 1370 364 1370 303 1303 c 0,41,42
 237 1231 237 1231 238 1124 c 0,34,35
559 70 m 1,43,44
 698 70 698 70 768 170 c 0,45,46
 831 258 831 258 831 399 c 0,47,48
 831 622 831 622 559 733 c 1,49,-1
 559 70 l 1,43,44
EndSplineSet
EndChar

StartChar: percent
Encoding: 37 37 16
Width: 1087
GlyphClass: 2
Flags: W
LayerCount: 2
Fore
SplineSet
88 1171 m 0,0,1
 88 1273 88 1273 162 1352 c 0,2,3
 238 1428 238 1428 342 1427 c 0,4,5
 446 1427 446 1427 522 1351 c 128,-1,6
 598 1275 598 1275 598 1171 c 0,7,8
 598 1062 598 1062 524 993 c 0,9,10
 446 919 446 919 342 920 c 0,11,12
 242 920 242 920 166 995 c 0,13,14
 88 1073 88 1073 88 1171 c 0,0,1
127 0 m 1,15,-1
 922 1462 l 1,16,-1
 1004 1462 l 1,17,-1
 209 0 l 1,18,-1
 127 0 l 1,15,-1
172 1171 m 0,19,20
 172 1103 172 1103 223 1055 c 0,21,22
 274 1004 274 1004 342 1004 c 0,23,24
 403 1004 403 1004 463 1053 c 1,25,26
 514 1103 514 1103 514 1171 c 0,27,28
 514 1241 514 1241 463 1292 c 128,-1,29
 412 1343 412 1343 342 1343 c 256,30,31
 272 1343 272 1343 223 1292 c 0,32,33
 172 1241 172 1241 172 1171 c 0,19,20
498 236 m 0,34,35
 498 338 498 338 571 416 c 0,36,37
 647 492 647 492 752 492 c 0,38,39
 856 492 856 492 932 416 c 128,-1,40
 1008 340 1008 340 1008 236 c 0,41,42
 1008 127 1008 127 934 57 c 0,43,44
 856 -17 856 -17 752 -16 c 0,45,46
 652 -16 652 -16 575 59 c 0,47,48
 497 137 497 137 498 236 c 0,34,35
582 236 m 0,49,50
 582 168 582 168 633 119 c 0,51,52
 684 68 684 68 752 68 c 0,53,54
 818 68 818 68 870 117 c 0,55,56
 924 170 924 170 924 236 c 0,57,58
 924 306 924 306 872.5 357 c 128,-1,59
 821 408 821 408 752 408 c 0,60,61
 682 408 682 408 633 356 c 0,62,63
 582 305 582 305 582 236 c 0,49,50
EndSplineSet
EndChar

StartChar: ampersand
Encoding: 38 38 17
Width: 1232
GlyphClass: 2
Flags: W
LayerCount: 2
Fore
SplineSet
76 313 m 0,0,1
 76 485 76 485 238 635 c 1,2,-1
 469 805 l 1,3,-1
 387 928 l 1,4,-1
 326 1032 l 1,5,6
 295 1095 295 1095 295 1161 c 0,7,8
 295 1284 295 1284 381 1364 c 0,9,10
 469 1446 469 1446 592 1446 c 0,11,12
 733 1446 733 1446 819 1372 c 128,-1,13
 905 1298 905 1298 905 1159 c 0,14,15
 905 1016 905 1016 725 893 c 2,16,-1
 575 791 l 1,17,-1
 895 305 l 1,18,-1
 1108 479 l 1,19,-1
 1153 420 l 1,20,-1
 936 244 l 1,21,-1
 1098 0 l 1,22,-1
 1001 0 l 1,23,-1
 872 193 l 1,24,25
 622 -8 622 -8 410 -8 c 0,26,27
 263 -8 263 -8 168 82 c 0,28,29
 76 170 76 170 76 313 c 0,0,1
160 313 m 0,30,31
 160 204 160 204 231 139 c 0,32,33
 301 71 301 71 412 72 c 0,34,35
 559 72 559 72 717 172 c 0,36,37
 740 186 740 186 768.5 205.5 c 128,-1,38
 797 225 797 225 831 254 c 1,39,-1
 508 743 l 1,40,41
 424 686 424 686 370.5 646 c 128,-1,42
 317 606 317 606 291 580 c 0,43,44
 160 451 160 451 160 313 c 0,30,31
375 1161 m 0,45,46
 375 1102 375 1102 397 1063 c 2,47,-1
 455 971 l 1,48,-1
 535 850 l 1,49,-1
 690 954 l 2,50,51
 719 974 719 974 744.5 998 c 128,-1,52
 770 1022 770 1022 791 1051 c 1,53,-1
 819 1104 l 2,54,55
 827 1122 827 1122 829 1159 c 0,56,57
 829 1265 829 1265 766 1317 c 0,58,59
 700 1370 700 1370 594 1370 c 0,60,61
 506 1370 506 1370 440 1311 c 0,62,63
 374 1250 374 1250 375 1161 c 0,45,46
EndSplineSet
EndChar

StartChar: quotesingle
Encoding: 39 39 18
Width: 335
GlyphClass: 2
Flags: W
LayerCount: 2
Fore
SplineSet
127 991 m 1,0,-1
 127 1464 l 1,1,-1
 209 1464 l 1,2,-1
 209 991 l 1,3,-1
 127 991 l 1,0,-1
EndSplineSet
EndChar

StartChar: parenleft
Encoding: 40 40 19
Width: 376
GlyphClass: 2
Flags: W
LayerCount: 2
Fore
SplineSet
78 709 m 0,0,1
 78 1135 78 1135 231 1544 c 1,2,-1
 303 1544 l 1,3,4
 262 1438 262 1438 232.5 1320 c 128,-1,5
 203 1202 203 1202 182 1067 c 0,6,7
 166 961 166 961 158 870.5 c 128,-1,8
 150 780 150 780 150 709 c 0,9,10
 150 279 150 279 303 -127 c 1,11,-1
 231 -127 l 1,12,13
 211 -74 211 -74 193.5 -20.5 c 128,-1,14
 176 33 176 33 162 88 c 0,15,16
 158 104 158 104 152.5 131 c 128,-1,17
 147 158 147 158 139 197 c 0,18,19
 135 217 135 217 128 252 c 128,-1,20
 121 287 121 287 111 340 c 0,21,22
 95 444 95 444 86.5 536.5 c 128,-1,23
 78 629 78 629 78 709 c 0,0,1
EndSplineSet
EndChar

StartChar: parenright
Encoding: 41 41 20
Width: 397
GlyphClass: 2
Flags: W
LayerCount: 2
Fore
SplineSet
111 -127 m 1,0,1
 152 -16 152 -16 181.5 101.5 c 128,-1,2
 211 219 211 219 231 348 c 0,3,4
 247 450 247 450 255.5 540.5 c 128,-1,5
 264 631 264 631 264 709 c 0,6,7
 264 1123 264 1123 111 1544 c 1,8,-1
 182 1544 l 1,9,10
 266 1321 266 1321 307 1069 c 0,11,12
 321 977 321 977 328.5 888 c 128,-1,13
 336 799 336 799 336 709 c 0,14,15
 336 269 336 269 182 -127 c 1,16,-1
 111 -127 l 1,0,1
EndSplineSet
EndChar

StartChar: asterisk
Encoding: 42 42 21
Width: 591
GlyphClass: 2
Flags: W
LayerCount: 2
Fore
SplineSet
27 1143 m 0,0,1
 27 1209 27 1209 270 1270 c 1,2,-1
 190 1284 l 1,3,-1
 123 1309 l 2,4,5
 27 1346 27 1346 27 1395 c 0,6,7
 27 1434 27 1434 72 1446 c 1,8,9
 127 1446 127 1446 184 1389 c 2,10,-1
 281 1290 l 1,11,-1
 250 1393 l 1,12,-1
 238 1493 l 1,13,14
 238 1561 238 1561 293 1571 c 1,15,16
 346 1571 346 1571 346 1493 c 1,17,-1
 336 1409 l 1,18,-1
 322 1346 l 1,19,20
 322 1321 322 1321 303 1290 c 1,21,22
 409 1423 409 1423 512 1446 c 1,23,24
 555 1446 555 1446 559 1399 c 0,25,26
 559 1364 559 1364 465 1317 c 1,27,-1
 313 1270 l 1,28,29
 364 1260 364 1260 400 1251.5 c 128,-1,30
 436 1243 436 1243 457 1233 c 0,31,32
 547 1200 547 1200 559 1141 c 1,33,34
 559 1098 559 1098 512 1098 c 0,35,36
 459 1098 459 1098 403 1151 c 2,37,-1
 303 1247 l 1,38,-1
 332 1141 l 1,39,-1
 342 1051 l 1,40,41
 342 973 342 973 293 971 c 0,42,43
 236 969 236 969 236 1047 c 0,44,45
 236 1096 236 1096 242 1112 c 2,46,-1
 281 1247 l 1,47,-1
 184 1155 l 2,48,49
 135 1106 135 1106 70 1094 c 1,50,51
 27 1094 27 1094 27 1143 c 0,0,1
EndSplineSet
EndChar

StartChar: plus
Encoding: 43 43 22
Width: 774
GlyphClass: 2
Flags: W
LayerCount: 2
Fore
SplineSet
135 500 m 1,0,-1
 135 584 l 1,1,-1
 344 584 l 1,2,-1
 344 793 l 1,3,-1
 438 793 l 1,4,-1
 438 584 l 1,5,-1
 647 584 l 1,6,-1
 647 500 l 1,7,-1
 438 500 l 1,8,-1
 438 291 l 1,9,-1
 344 291 l 1,10,-1
 344 500 l 1,11,-1
 135 500 l 1,0,-1
EndSplineSet
EndChar

StartChar: comma
Encoding: 44 44 23
Width: 366
GlyphClass: 2
Flags: W
LayerCount: 2
Fore
SplineSet
94 -193 m 1,0,-1
 246 141 l 1,1,-1
 317 111 l 1,2,-1
 121 -211 l 1,3,-1
 94 -193 l 1,0,-1
EndSplineSet
EndChar

StartChar: hyphen
Encoding: 45 45 24
Width: 555
GlyphClass: 2
Flags: W
LayerCount: 2
Fore
SplineSet
37 500 m 1,0,-1
 37 584 l 1,1,-1
 469 584 l 1,2,-1
 469 500 l 1,3,-1
 37 500 l 1,0,-1
EndSplineSet
EndChar

StartChar: period
Encoding: 46 46 25
Width: 231
GlyphClass: 2
Flags: W
LayerCount: 2
Fore
SplineSet
37 55 m 0,0,1
 37 110 37 110 104 123 c 1,2,3
 156 123 156 123 172 55 c 1,4,5
 172 -13 172 -13 104 -12 c 0,6,7
 81 -12 81 -12 57 6 c 0,8,9
 39 24 39 24 37 55 c 0,0,1
EndSplineSet
EndChar

StartChar: slash
Encoding: 47 47 26
Width: 587
GlyphClass: 2
Flags: W
LayerCount: 2
Fore
SplineSet
47 0 m 1,0,-1
 477 1493 l 1,1,-1
 557 1493 l 1,2,-1
 131 0 l 1,3,-1
 47 0 l 1,0,-1
EndSplineSet
EndChar

StartChar: zero
Encoding: 48 48 27
Width: 1138
GlyphClass: 2
Flags: W
LayerCount: 2
Fore
SplineSet
37 743 m 0,0,1
 37 1036 37 1036 158 1249 c 0,2,3
 305 1509 305 1509 573 1509 c 256,4,5
 841 1509 841 1509 989 1249 c 0,6,7
 1110 1032 1110 1032 1110 743 c 0,8,9
 1110 448 1110 448 991 238 c 0,10,11
 844 -20 844 -20 573 -20 c 0,12,13
 305 -20 305 -20 158 240 c 0,14,15
 37 453 37 453 37 743 c 0,0,1
127 743 m 0,16,17
 127 491 127 491 223 303 c 0,18,19
 346 65 346 65 573 66 c 0,20,21
 784 66 784 66 909 276 c 0,22,23
 1022 462 1022 462 1022 743 c 0,24,25
 1022 999 1022 999 926 1188 c 0,26,27
 805 1426 805 1426 573 1425 c 0,28,29
 366 1425 366 1425 240 1212 c 0,30,31
 127 1019 127 1019 127 743 c 0,16,17
EndSplineSet
EndChar

StartChar: one
Encoding: 49 49 28
Width: 1116
GlyphClass: 2
Flags: W
LayerCount: 2
Fore
SplineSet
356 1378 m 1,0,-1
 412 1462 l 1,1,-1
 688 1462 l 1,2,-1
 688 0 l 1,3,-1
 604 0 l 1,4,-1
 604 1378 l 1,5,-1
 356 1378 l 1,0,-1
EndSplineSet
EndChar

StartChar: two
Encoding: 50 50 29
Width: 1116
GlyphClass: 2
Flags: W
LayerCount: 2
Fore
SplineSet
125 0 m 1,0,-1
 842 829 l 1,1,2
 928 952 928 952 928 1085 c 0,3,4
 928 1214 928 1214 825 1305 c 0,5,6
 723 1393 723 1393 588 1393 c 0,7,8
 422 1393 422 1393 328 1286 c 0,9,10
 271 1223 271 1223 248 1128 c 1,11,-1
 156 1128 l 1,12,13
 170 1234 170 1234 262 1339 c 0,14,15
 385 1474 385 1474 588 1475 c 0,16,17
 762 1475 762 1475 887 1366 c 0,18,19
 1012 1259 1012 1259 1012 1085 c 0,20,21
 1012 907 1012 907 879 735 c 0,22,23
 861 712 861 712 823.5 668.5 c 128,-1,24
 786 625 786 625 729 559 c 2,25,-1
 309 84 l 1,26,-1
 1010 84 l 1,27,-1
 1010 0 l 1,28,-1
 125 0 l 1,0,-1
EndSplineSet
EndChar

StartChar: three
Encoding: 51 51 30
Width: 1116
GlyphClass: 2
Flags: W
LayerCount: 2
Fore
SplineSet
152 309 m 1,0,-1
 242 309 l 1,1,2
 269 209 269 209 358 141 c 0,3,4
 446 73 446 73 551 74 c 0,5,6
 686 74 686 74 782 166 c 0,7,8
 878 262 878 262 879 395 c 0,9,10
 879 561 879 561 760 655 c 0,11,12
 670 727 670 727 575 727 c 2,13,-1
 489 727 l 1,14,-1
 489 848 l 1,15,-1
 575 848 l 2,16,17
 704 848 704 848 782 920 c 0,18,19
 858 990 858 990 858 1122 c 0,20,21
 858 1249 858 1249 776 1329 c 0,22,23
 694 1411 694 1411 565 1411 c 0,24,25
 319 1411 319 1411 268 1153 c 1,26,-1
 172 1153 l 1,27,28
 190 1313 190 1313 297 1403 c 0,29,30
 403 1495 403 1495 565 1495 c 0,31,32
 733 1495 733 1495 846 1393 c 0,33,34
 959 1293 959 1293 958 1122 c 0,35,36
 958 850 958 850 684 788 c 1,37,38
 971 702 971 702 971 395 c 0,39,40
 971 213 971 213 852 102 c 0,41,42
 733 -11 733 -11 551 -10 c 0,43,44
 399 -10 399 -10 291 74 c 0,45,46
 187 158 187 158 152 309 c 1,0,-1
EndSplineSet
EndChar

StartChar: four
Encoding: 52 52 31
Width: 1116
GlyphClass: 2
Flags: W
LayerCount: 2
Fore
SplineSet
94 279 m 1,0,-1
 932 1483 l 1,1,-1
 932 360 l 1,2,-1
 1102 360 l 1,3,-1
 1102 279 l 1,4,-1
 932 279 l 1,5,-1
 932 0 l 1,6,-1
 846 0 l 1,7,-1
 846 279 l 1,8,-1
 94 279 l 1,0,-1
244 360 m 1,9,-1
 846 360 l 1,10,-1
 846 1223 l 1,11,-1
 244 360 l 1,9,-1
EndSplineSet
EndChar

StartChar: five
Encoding: 53 53 32
Width: 1116
GlyphClass: 2
Flags: W
LayerCount: 2
Fore
SplineSet
55 287 m 1,0,-1
 133 317 l 1,1,2
 192 196 192 196 272 137 c 0,3,4
 372 63 372 63 532 63 c 0,5,6
 722 63 722 63 846 197 c 0,7,8
 969 328 969 328 969 522 c 0,9,10
 969 712 969 712 831 829 c 0,11,12
 702 940 702 940 532 934 c 2,13,-1
 467 932 l 1,14,-1
 436 932 l 2,15,16
 418 932 418 932 387 924 c 1,17,18
 317 924 317 924 242 895 c 1,19,-1
 387 1462 l 1,20,-1
 948 1462 l 1,21,-1
 948 1378 l 1,22,-1
 453 1378 l 1,23,-1
 365 1001 l 1,24,-1
 446 1012 l 1,25,-1
 532 1018 l 2,26,27
 729 1030 729 1030 889 895 c 0,28,29
 1053 755 1053 755 1053 522 c 0,30,31
 1053 284 1053 284 909 133 c 0,32,33
 764 -21 764 -21 532 -20 c 0,34,35
 184 -20 184 -20 55 287 c 1,0,-1
EndSplineSet
EndChar

StartChar: six
Encoding: 54 54 33
Width: 1116
GlyphClass: 2
Flags: W
LayerCount: 2
Fore
SplineSet
59 469 m 2,0,-1
 59 514 l 2,1,2
 59 524 59 524 59 535 c 0,3,4
 59 547 59 547 61 559 c 128,-1,5
 63 571 63 571 67.5 593.5 c 128,-1,6
 72 616 72 616 82 651 c 0,7,8
 92 694 92 694 108.5 732 c 128,-1,9
 125 770 125 770 143 805 c 2,10,-1
 510 1462 l 1,11,-1
 606 1462 l 1,12,-1
 295 895 l 1,13,-1
 381 938 l 1,14,-1
 469 963 l 1,15,-1
 561 971 l 1,16,17
 776 971 776 971 920 827 c 0,18,19
 1065 682 1065 682 1065 469 c 0,20,21
 1065 252 1065 252 921.5 108.5 c 128,-1,22
 778 -35 778 -35 561 -35 c 0,23,24
 338 -35 338 -35 199 104 c 0,25,26
 60 247 60 247 59 469 c 2,0,-1
141 469 m 0,27,28
 141 287 141 287 260 168 c 0,29,30
 381 47 381 47 561 47 c 256,31,32
 741 47 741 47 862 168 c 128,-1,33
 983 289 983 289 983 469 c 0,34,35
 983 637 983 637 860 764 c 0,36,37
 737 889 737 889 561 889 c 0,38,39
 387 889 387 889 264 766 c 128,-1,40
 141 643 141 643 141 469 c 0,27,28
EndSplineSet
EndChar

StartChar: seven
Encoding: 55 55 34
Width: 1116
GlyphClass: 2
Flags: W
LayerCount: 2
Fore
SplineSet
49 33 m 1,0,-1
 936 1378 l 1,1,-1
 63 1378 l 1,2,-1
 63 1462 l 1,3,-1
 1092 1462 l 1,4,-1
 119 -20 l 1,5,-1
 49 33 l 1,0,-1
EndSplineSet
EndChar

StartChar: eight
Encoding: 56 56 35
Width: 1116
GlyphClass: 2
Flags: W
LayerCount: 2
Fore
SplineSet
135 389 m 0,0,1
 135 522 135 522 207 625 c 0,2,3
 279 725 279 725 408 774 c 1,4,5
 306 805 306 805 244 905 c 0,6,7
 185 1001 185 1001 184 1110 c 0,8,9
 184 1276 184 1276 289 1380 c 0,10,11
 393 1486 393 1486 559 1487 c 0,12,13
 727 1487 727 1487 831.5 1382.5 c 128,-1,14
 936 1278 936 1278 936 1110 c 0,15,16
 936 995 936 995 874 901 c 0,17,18
 815 809 815 809 707 774 c 1,19,20
 818 733 818 733 887 657 c 0,21,22
 987 551 987 551 987 389 c 0,23,24
 987 207 987 207 868 90 c 0,25,26
 747 -27 747 -27 563 -27 c 0,27,28
 377 -27 377 -27 256 88 c 0,29,30
 135 205 135 205 135 389 c 0,0,1
217 389 m 0,31,32
 217 250 217 250 313 154 c 0,33,34
 411 56 411 56 559 55 c 0,35,36
 709 55 709 55 805 150 c 0,37,38
 905 244 905 244 905 389 c 0,39,40
 905 528 905 528 803 627 c 0,41,42
 752 678 752 678 691.5 707.5 c 128,-1,43
 631 737 631 737 559 737 c 0,44,45
 489 737 489 737 430 707.5 c 128,-1,46
 371 678 371 678 319 629 c 0,47,48
 217 527 217 527 217 389 c 0,31,32
266 1110 m 0,49,50
 266 987 266 987 350 903 c 0,51,52
 391 862 391 862 443.5 835.5 c 128,-1,53
 496 809 496 809 559 809 c 0,54,55
 625 809 625 809 677 833.5 c 128,-1,56
 729 858 729 858 770 899 c 0,57,58
 854 983 854 983 854 1110 c 256,59,60
 854 1237 854 1237 770 1321 c 128,-1,61
 686 1405 686 1405 559 1405 c 0,62,63
 434 1405 434 1405 350 1321 c 128,-1,64
 266 1237 266 1237 266 1110 c 0,49,50
EndSplineSet
EndChar

StartChar: nine
Encoding: 57 57 36
Width: 1116
GlyphClass: 2
Flags: W
LayerCount: 2
Fore
SplineSet
61 969 m 0,0,1
 61 1186 61 1186 204.5 1329.5 c 128,-1,2
 348 1473 348 1473 565 1473 c 256,3,4
 782 1473 782 1473 924 1329 c 0,5,6
 1067 1186 1067 1186 1067 969 c 0,7,8
 1067 926 1067 926 1062 880 c 128,-1,9
 1057 834 1057 834 1044 786 c 0,10,11
 1034 745 1034 745 1019 707.5 c 128,-1,12
 1004 670 1004 670 983 633 c 2,13,-1
 618 -20 l 1,14,-1
 541 16 l 1,15,-1
 831 543 l 1,16,-1
 745 500 l 1,17,-1
 657 475 l 1,18,-1
 565 467 l 1,19,20
 348 467 348 467 205 608 c 0,21,22
 62 751 62 751 61 969 c 0,0,1
143 969 m 0,23,24
 143 797 143 797 264 672 c 0,25,26
 383 549 383 549 565 549 c 0,27,28
 743 549 743 549 864 670 c 128,-1,29
 985 791 985 791 985 969 c 0,30,31
 985 1151 985 1151 866 1270 c 0,32,33
 745 1391 745 1391 565 1391 c 256,34,35
 385 1391 385 1391 264 1270 c 128,-1,36
 143 1149 143 1149 143 969 c 0,23,24
EndSplineSet
EndChar

StartChar: colon
Encoding: 58 58 37
Width: 333
GlyphClass: 2
Flags: W
LayerCount: 2
Fore
SplineSet
104 55 m 0,0,1
 104 110 104 110 172 123 c 1,2,3
 224 123 224 123 240 55 c 1,4,5
 240 -13 240 -13 172 -12 c 0,6,7
 149 -12 149 -12 125 6 c 0,8,9
 107 24 107 24 104 55 c 0,0,1
104 659 m 0,10,11
 104 714 104 714 172 727 c 1,12,13
 224 727 224 727 240 659 c 1,14,15
 240 591 240 591 172 592 c 0,16,17
 149 592 149 592 125 610 c 0,18,19
 107 628 107 628 104 659 c 0,10,11
EndSplineSet
EndChar

StartChar: semicolon
Encoding: 59 59 38
Width: 417
GlyphClass: 2
Flags: W
LayerCount: 2
Fore
SplineSet
84 -193 m 1,0,-1
 236 141 l 1,1,-1
 307 111 l 1,2,-1
 111 -211 l 1,3,-1
 84 -193 l 1,0,-1
143 659 m 0,4,5
 143 714 143 714 211 727 c 1,6,7
 263 727 263 727 279 659 c 1,8,9
 279 591 279 591 211 592 c 0,10,11
 188 592 188 592 164 610 c 0,12,13
 146 628 146 628 143 659 c 0,4,5
EndSplineSet
EndChar

StartChar: less
Encoding: 60 60 39
Width: 647
GlyphClass: 2
Flags: W
LayerCount: 2
Fore
SplineSet
66 539 m 1,0,-1
 580 852 l 1,1,-1
 580 760 l 1,2,-1
 215 539 l 1,3,-1
 580 317 l 1,4,-1
 580 225 l 1,5,-1
 66 539 l 1,0,-1
EndSplineSet
EndChar

StartChar: equal
Encoding: 61 61 40
Width: 606
GlyphClass: 2
Flags: W
LayerCount: 2
Fore
SplineSet
76 375 m 1,0,-1
 76 457 l 1,1,-1
 539 457 l 1,2,-1
 539 375 l 1,3,-1
 76 375 l 1,0,-1
76 625 m 1,4,-1
 76 709 l 1,5,-1
 539 709 l 1,6,-1
 539 625 l 1,7,-1
 76 625 l 1,4,-1
EndSplineSet
EndChar

StartChar: greater
Encoding: 62 62 41
Width: 647
GlyphClass: 2
Flags: W
LayerCount: 2
Fore
SplineSet
94 225 m 1,0,-1
 94 317 l 1,1,-1
 457 539 l 1,2,-1
 94 760 l 1,3,-1
 94 852 l 1,4,-1
 608 539 l 1,5,-1
 94 225 l 1,0,-1
EndSplineSet
EndChar

StartChar: question
Encoding: 63 63 42
Width: 960
GlyphClass: 2
Flags: W
LayerCount: 2
Fore
SplineSet
94 1210 m 1,0,1
 207 1482 207 1482 504 1483 c 0,2,3
 664 1483 664 1483 768 1409 c 0,4,5
 885 1325 885 1325 885 1171 c 0,6,7
 885 1046 885 1046 793 942 c 0,8,9
 783 928 783 928 739.5 895 c 128,-1,10
 696 862 696 862 623 809 c 2,11,-1
 451 684 l 2,12,13
 349 610 349 610 348 504 c 0,14,15
 348 455 348 455 383 426 c 128,-1,16
 418 397 418 397 469 397 c 0,17,18
 545 397 545 397 598 440 c 1,19,-1
 647 373 l 1,20,21
 624 350 624 350 575 328 c 1,22,-1
 528 315 l 1,23,-1
 469 311 l 2,24,25
 389 305 389 305 323.5 358.5 c 128,-1,26
 258 412 258 412 258 504 c 0,27,28
 258 637 258 637 401 743 c 2,29,-1
 575 872 l 2,30,31
 634 917 634 917 673.5 948 c 128,-1,32
 713 979 713 979 729 999 c 0,33,34
 801 1083 801 1083 801 1171 c 0,35,36
 801 1286 801 1286 707 1348 c 0,37,38
 623 1401 623 1401 504 1401 c 0,39,40
 381 1401 381 1401 287 1323 c 0,41,42
 232 1278 232 1278 172 1176 c 1,43,-1
 94 1210 l 1,0,1
387 66 m 1,44,45
 387 125 387 125 459 137 c 1,46,47
 518 138 518 138 530 66 c 1,48,49
 530 -6 530 -6 459 -6 c 0,50,51
 400 -6 400 -6 387 66 c 1,44,45
EndSplineSet
EndChar

StartChar: at
Encoding: 64 64 43
Width: 1220
GlyphClass: 2
Flags: W
LayerCount: 2
Fore
SplineSet
70 403 m 0,0,1
 70 626 70 626 227.5 778 c 128,-1,2
 385 930 385 930 612 930 c 0,3,4
 833 930 833 930 991 791 c 0,5,6
 1155 646 1155 646 1155 428 c 0,7,8
 1155 301 1155 301 1106 215 c 0,9,10
 1045 109 1045 109 926 109 c 0,11,12
 863 109 863 109 825 152 c 0,13,14
 796 187 796 187 791 225 c 1,15,16
 725 108 725 108 559 109 c 0,17,18
 442 109 442 109 379 180 c 0,19,20
 318 250 318 250 317 371 c 0,21,22
 317 492 317 492 397 571 c 0,23,24
 479 651 479 651 600 651 c 0,25,26
 756 651 756 651 811 528 c 1,27,-1
 819 639 l 1,28,-1
 870 639 l 1,29,-1
 844 305 l 2,30,31
 838 237 838 237 868 195 c 0,32,33
 893 164 893 164 934 164 c 0,34,35
 1010 164 1010 164 1061 254 c 0,36,37
 1102 322 1102 322 1102 428 c 0,38,39
 1102 623 1102 623 954 752 c 0,40,41
 815 877 815 877 612 877 c 0,42,43
 405 877 405 877 266 739 c 1,44,45
 123 604 123 604 123 403 c 0,46,47
 123 186 123 186 260 57 c 0,48,49
 397 -74 397 -74 614 -74 c 0,50,51
 696 -74 696 -74 788 -49 c 0,52,53
 894 -16 894 -16 944 41 c 1,54,-1
 983 2 l 1,55,56
 936 -51 936 -51 836 -88 c 0,57,58
 738 -127 738 -127 610 -127 c 0,59,60
 350 -127 350 -127 205 37 c 0,61,62
 70 184 70 184 70 403 c 0,0,1
373 371 m 0,63,64
 373 164 373 164 559 164 c 0,65,66
 665 164 665 164 723 229 c 0,67,68
 784 297 784 297 784 401 c 0,69,70
 784 488 784 488 735 543 c 256,71,72
 686 598 686 598 600 598 c 0,73,74
 506 598 506 598 438 530 c 0,75,76
 372 464 372 464 373 371 c 0,63,64
EndSplineSet
EndChar

StartChar: A
Encoding: 65 65 44
Width: 1296
GlyphClass: 2
Flags: W
LayerCount: 2
Fore
SplineSet
63 0 m 1,0,-1
 647 1509 l 1,1,-1
 1233 0 l 1,2,-1
 1149 0 l 1,3,-1
 647 1296 l 1,4,-1
 145 0 l 1,5,-1
 63 0 l 1,0,-1
EndSplineSet
EndChar

StartChar: B
Encoding: 66 66 45
Width: 1144
GlyphClass: 2
Flags: W
LayerCount: 2
Fore
SplineSet
156 0 m 1,0,-1
 156 1462 l 1,1,-1
 512 1462 l 2,2,3
 682 1462 682 1462 782 1374 c 0,4,5
 888 1280 888 1280 889 1112 c 0,6,7
 889 919 889 919 731 829 c 1,8,9
 885 798 885 798 979 690 c 0,10,11
 1071 582 1071 582 1071 424 c 0,12,13
 1071 236 1071 236 938 119 c 0,14,15
 805 0 805 0 612 0 c 2,16,-1
 156 0 l 1,0,-1
238 84 m 1,17,-1
 614 84 l 2,18,19
 770 84 770 84 879 178 c 0,20,21
 989 272 989 272 989 424 c 0,22,23
 989 578 989 578 877 672 c 0,24,25
 773 762 773 762 614 762 c 2,26,-1
 238 762 l 1,27,-1
 238 84 l 1,17,-1
238 846 m 1,28,-1
 530 846 l 2,29,30
 649 846 649 846 727 919.5 c 128,-1,31
 805 993 805 993 805 1112 c 0,32,33
 805 1235 805 1235 723 1305 c 0,34,35
 640 1378 640 1378 521 1378 c 0,36,37
 519 1378 519 1378 518 1378 c 2,38,-1
 238 1378 l 1,39,-1
 238 846 l 1,28,-1
EndSplineSet
EndChar

StartChar: C
Encoding: 67 67 46
Width: 1437
GlyphClass: 2
Flags: W
LayerCount: 2
Fore
SplineSet
102 731 m 256,0,1
 102 1063 102 1063 311 1272 c 0,2,3
 522 1483 522 1483 854 1483 c 0,4,5
 1042 1483 1042 1483 1194 1427 c 0,6,7
 1284 1392 1284 1392 1368 1327 c 1,8,-1
 1368 1223 l 1,9,10
 1282 1295 1282 1295 1180 1337 c 0,11,12
 1024 1400 1024 1400 854 1401 c 0,13,14
 563 1401 563 1401 374.5 1212.5 c 128,-1,15
 186 1024 186 1024 186 731 c 256,16,17
 186 438 186 438 373 252 c 0,18,19
 561 64 561 64 854 63 c 0,20,21
 1036 63 1036 63 1171 129 c 0,22,23
 1249 168 1249 168 1368 254 c 1,24,-1
 1368 158 l 1,25,-1
 1270 86 l 2,26,27
 1155 2 1155 2 958 -16 c 0,28,29
 935 -18 935 -18 909 -19 c 128,-1,30
 883 -20 883 -20 854 -20 c 0,31,32
 522 -20 522 -20 313 188 c 0,33,34
 102 399 102 399 102 731 c 256,0,1
EndSplineSet
EndChar

StartChar: D
Encoding: 68 68 47
Width: 1409
GlyphClass: 2
Flags: W
LayerCount: 2
Fore
SplineSet
156 0 m 1,0,-1
 156 1462 l 1,1,-1
 643 1462 l 2,2,3
 938 1462 938 1462 1122 1241 c 0,4,5
 1296 1034 1296 1034 1296 733 c 0,6,7
 1296 430 1296 430 1124 221 c 0,8,9
 940 0 940 0 643 0 c 2,10,-1
 156 0 l 1,0,-1
238 84 m 1,11,-1
 643 84 l 2,12,13
 868 84 868 84 1034 252 c 0,14,15
 1212 432 1212 432 1212 733 c 0,16,17
 1212 1001 1212 1001 1063 1184 c 0,18,19
 904 1380 904 1380 646 1380 c 0,20,21
 645 1380 645 1380 643 1380 c 2,22,-1
 238 1380 l 1,23,-1
 238 84 l 1,11,-1
EndSplineSet
EndChar

StartChar: E
Encoding: 69 69 48
Width: 968
GlyphClass: 2
Flags: W
LayerCount: 2
Fore
SplineSet
145 0 m 1,0,-1
 145 1462 l 1,1,-1
 848 1462 l 1,2,-1
 848 1378 l 1,3,-1
 229 1378 l 1,4,-1
 229 846 l 1,5,-1
 848 846 l 1,6,-1
 848 756 l 1,7,-1
 229 756 l 1,8,-1
 229 84 l 1,9,-1
 848 84 l 1,10,-1
 848 0 l 1,11,-1
 145 0 l 1,0,-1
EndSplineSet
EndChar

StartChar: F
Encoding: 70 70 49
Width: 886
GlyphClass: 2
Flags: W
LayerCount: 2
Fore
SplineSet
156 0 m 1,0,-1
 156 1462 l 1,1,-1
 791 1462 l 1,2,-1
 791 1378 l 1,3,-1
 238 1378 l 1,4,-1
 238 846 l 1,5,-1
 791 846 l 1,6,-1
 791 762 l 1,7,-1
 238 762 l 1,8,-1
 238 0 l 1,9,-1
 156 0 l 1,0,-1
EndSplineSet
EndChar

StartChar: G
Encoding: 71 71 50
Width: 1683
GlyphClass: 2
Flags: W
LayerCount: 2
Fore
SplineSet
102 731 m 0,0,1
 102 1059 102 1059 313 1270 c 0,2,3
 526 1483 526 1483 854 1483 c 0,4,5
 1247 1483 1247 1483 1473 1182 c 1,6,-1
 1405 1130 l 1,7,8
 1208 1400 1208 1400 854 1401 c 0,9,10
 565 1401 565 1401 374.5 1210.5 c 128,-1,11
 184 1020 184 1020 184 731 c 0,12,13
 184 440 184 440 373 252 c 0,14,15
 566 64 566 64 854 63 c 0,16,17
 1163 63 1163 63 1352 270 c 0,18,19
 1495 426 1495 426 1516 623 c 1,20,-1
 1032 623 l 1,21,-1
 1032 707 l 1,22,-1
 1608 707 l 1,23,24
 1608 408 1608 408 1413 203 c 0,25,26
 1202 -20 1202 -20 854 -20 c 0,27,28
 522 -20 522 -20 313 188 c 0,29,30
 102 399 102 399 102 731 c 0,0,1
EndSplineSet
EndChar

StartChar: H
Encoding: 72 72 51
Width: 1259
GlyphClass: 2
Flags: W
LayerCount: 2
Fore
SplineSet
156 0 m 1,0,-1
 156 1462 l 1,1,-1
 238 1462 l 1,2,-1
 238 846 l 1,3,-1
 1042 846 l 1,4,-1
 1042 1462 l 1,5,-1
 1126 1462 l 1,6,-1
 1126 0 l 1,7,-1
 1042 0 l 1,8,-1
 1042 762 l 1,9,-1
 238 762 l 1,10,-1
 238 0 l 1,11,-1
 156 0 l 1,0,-1
EndSplineSet
EndChar

StartChar: I
Encoding: 73 73 52
Width: 393
GlyphClass: 2
Flags: W
LayerCount: 2
Fore
SplineSet
158 0 m 1,0,-1
 158 1462 l 1,1,-1
 240 1462 l 1,2,-1
 240 0 l 1,3,-1
 158 0 l 1,0,-1
EndSplineSet
EndChar

StartChar: J
Encoding: 74 74 53
Width: 645
GlyphClass: 2
Flags: W
LayerCount: 2
Fore
SplineSet
61 117 m 1,0,-1
 133 162 l 1,1,2
 184 68 184 68 285 68 c 0,3,4
 439 68 439 68 438 295 c 2,5,-1
 438 1462 l 1,6,-1
 522 1462 l 1,7,-1
 522 291 l 2,8,9
 522 -16 522 -16 287 -16 c 0,10,11
 133 -16 133 -16 61 117 c 1,0,-1
EndSplineSet
EndChar

StartChar: K
Encoding: 75 75 54
Width: 1073
GlyphClass: 2
Flags: W
LayerCount: 2
Fore
SplineSet
135 0 m 1,0,-1
 135 1462 l 1,1,-1
 219 1462 l 1,2,-1
 219 813 l 1,3,-1
 872 1462 l 1,4,-1
 991 1462 l 1,5,-1
 291 764 l 1,6,-1
 1053 0 l 1,7,-1
 936 0 l 1,8,-1
 231 707 l 1,9,-1
 219 694 l 1,10,-1
 219 0 l 1,11,-1
 135 0 l 1,0,-1
EndSplineSet
EndChar

StartChar: L
Encoding: 76 76 55
Width: 729
GlyphClass: 2
Flags: W
LayerCount: 2
Fore
SplineSet
156 0 m 1,0,-1
 156 1462 l 1,1,-1
 238 1462 l 1,2,-1
 238 84 l 1,3,-1
 649 84 l 1,4,-1
 649 0 l 1,5,-1
 156 0 l 1,0,-1
EndSplineSet
EndChar

StartChar: M
Encoding: 77 77 56
Width: 1847
GlyphClass: 2
Flags: W
LayerCount: 2
Fore
SplineSet
47 0 m 1,0,-1
 428 1505 l 1,1,-1
 926 201 l 1,2,-1
 1423 1507 l 1,3,-1
 1804 0 l 1,4,-1
 1718 0 l 1,5,-1
 1407 1229 l 1,6,-1
 926 -37 l 1,7,-1
 444 1231 l 1,8,-1
 131 0 l 1,9,-1
 47 0 l 1,0,-1
EndSplineSet
EndChar

StartChar: N
Encoding: 78 78 57
Width: 1464
GlyphClass: 2
Flags: W
LayerCount: 2
Fore
SplineSet
158 0 m 1,0,-1
 158 1473 l 1,1,-1
 1249 193 l 1,2,-1
 1249 1462 l 1,3,-1
 1333 1462 l 1,4,-1
 1333 -25 l 1,5,-1
 240 1241 l 1,6,-1
 240 0 l 1,7,-1
 158 0 l 1,0,-1
EndSplineSet
EndChar

StartChar: O
Encoding: 79 79 58
Width: 1683
GlyphClass: 2
Flags: W
LayerCount: 2
Fore
SplineSet
102 731 m 256,0,1
 102 1063 102 1063 312 1273 c 128,-1,2
 522 1483 522 1483 854 1483 c 0,3,4
 1184 1483 1184 1483 1396 1273 c 128,-1,5
 1608 1063 1608 1063 1608 731 c 256,6,7
 1608 399 1608 399 1396 189.5 c 128,-1,8
 1184 -20 1184 -20 854 -20 c 0,9,10
 522 -20 522 -20 312 189.5 c 128,-1,11
 102 399 102 399 102 731 c 256,0,1
186 731 m 256,12,13
 186 438 186 438 374.5 250.5 c 128,-1,14
 563 63 563 63 854 63 c 0,15,16
 1149 63 1149 63 1336.5 250.5 c 128,-1,17
 1524 438 1524 438 1524 731 c 256,18,19
 1524 1024 1524 1024 1336.5 1212.5 c 128,-1,20
 1149 1401 1149 1401 854 1401 c 0,21,22
 563 1401 563 1401 374.5 1212.5 c 128,-1,23
 186 1024 186 1024 186 731 c 256,12,13
EndSplineSet
EndChar

StartChar: P
Encoding: 80 80 59
Width: 1003
GlyphClass: 2
Flags: W
LayerCount: 2
Fore
SplineSet
156 0 m 1,0,-1
 156 1462 l 1,1,-1
 512 1462 l 2,2,3
 680 1462 680 1462 794.5 1364 c 128,-1,4
 909 1266 909 1266 909 1100 c 0,5,6
 909 932 909 932 795 834 c 0,7,8
 680 732 680 732 512 731 c 2,9,-1
 238 731 l 1,10,-1
 238 0 l 1,11,-1
 156 0 l 1,0,-1
238 815 m 1,12,-1
 510 815 l 2,13,14
 645 815 645 815 735 889 c 0,15,16
 825 967 825 967 825 1100 c 256,17,18
 825 1233 825 1233 731 1309 c 0,19,20
 648 1378 648 1378 514 1378 c 0,21,22
 512 1378 512 1378 510 1378 c 2,23,-1
 238 1378 l 1,24,-1
 238 815 l 1,12,-1
EndSplineSet
EndChar

StartChar: Q
Encoding: 81 81 60
Width: 1683
GlyphClass: 2
Flags: W
LayerCount: 2
Fore
SplineSet
119 731 m 256,0,1
 119 1063 119 1063 328 1272 c 0,2,3
 539 1483 539 1483 870 1483 c 0,4,5
 1200 1483 1200 1483 1413 1274 c 0,6,7
 1624 1063 1624 1063 1624 731 c 256,8,9
 1624 399 1624 399 1413 190 c 0,10,11
 1203 -20 1203 -20 873 -20 c 0,12,13
 872 -20 872 -20 870 -20 c 0,14,15
 538 -20 538 -20 330 188 c 0,16,17
 119 399 119 399 119 731 c 256,0,1
203 731 m 256,18,19
 203 438 203 438 389 252 c 0,20,21
 577 64 577 64 870 63 c 0,22,23
 1165 63 1165 63 1354 248 c 0,24,25
 1540 434 1540 434 1540 731 c 0,26,27
 1540 1026 1540 1026 1354 1212 c 0,28,29
 1166 1400 1166 1400 870 1401 c 0,30,31
 575 1401 575 1401 391 1212 c 0,32,33
 203 1024 203 1024 203 731 c 256,18,19
872 -113 m 1,34,-1
 1305 -113 l 1,35,-1
 1305 -197 l 1,36,-1
 872 -197 l 1,37,-1
 872 -113 l 1,34,-1
EndSplineSet
EndChar

StartChar: R
Encoding: 82 82 61
Width: 991
GlyphClass: 2
Flags: W
LayerCount: 2
Fore
SplineSet
156 0 m 1,0,-1
 156 1462 l 1,1,-1
 494 1462 l 2,2,3
 576 1462 576 1462 649.5 1438.5 c 128,-1,4
 723 1415 723 1415 776 1369 c 128,-1,5
 829 1323 829 1323 861 1255.5 c 128,-1,6
 893 1188 893 1188 893 1100 c 0,7,8
 893 1004 893 1004 863.5 934 c 128,-1,9
 834 864 834 864 779.5 819 c 128,-1,10
 725 774 725 774 651.5 752.5 c 128,-1,11
 578 731 578 731 489 731 c 1,12,-1
 958 0 l 1,13,-1
 860 0 l 1,14,-1
 395 731 l 1,15,-1
 238 731 l 1,16,-1
 238 0 l 1,17,-1
 156 0 l 1,0,-1
238 815 m 1,18,-1
 514 815 l 2,19,20
 645 815 645 815 726 889 c 128,-1,21
 807 963 807 963 807 1102 c 0,22,23
 807 1172 807 1172 782.5 1224 c 128,-1,24
 758 1276 758 1276 715 1309.5 c 128,-1,25
 672 1343 672 1343 614.5 1360.5 c 128,-1,26
 557 1378 557 1378 492 1378 c 2,27,-1
 238 1378 l 1,28,-1
 238 815 l 1,18,-1
EndSplineSet
EndChar

StartChar: S
Encoding: 83 83 62
Width: 1019
GlyphClass: 2
Flags: W
LayerCount: 2
Fore
SplineSet
162 1133 m 256,0,1
 162 1285 162 1285 270 1376 c 0,2,3
 376 1470 376 1470 532 1470 c 0,4,5
 790 1470 790 1470 897 1278 c 1,6,-1
 817 1243 l 1,7,8
 776 1311 776 1311 719 1343 c 0,9,10
 647 1388 647 1388 532 1389 c 0,11,12
 411 1389 411 1389 332 1321 c 0,13,14
 246 1249 246 1249 246 1133 c 0,15,16
 246 1029 246 1029 336 950 c 0,17,18
 387 909 387 909 541 840 c 0,19,20
 637 797 637 797 706.5 755 c 128,-1,21
 776 713 776 713 819 670 c 0,22,23
 938 553 938 553 938 379 c 0,24,25
 938 100 938 100 702 12 c 0,26,27
 625 -16 625 -16 521 -16 c 0,28,29
 517 -16 517 -16 514 -16 c 1,30,-1
 514 68 l 1,31,32
 672 68 672 68 762 145 c 0,33,34
 854 225 854 225 854 379 c 0,35,36
 854 524 854 524 745 621 c 0,37,38
 716 648 716 648 657 680.5 c 128,-1,39
 598 713 598 713 506 754 c 0,40,41
 332 832 332 832 268 889 c 0,42,43
 162 981 162 981 162 1133 c 256,0,1
EndSplineSet
EndChar

StartChar: T
Encoding: 84 84 63
Width: 903
GlyphClass: 2
Flags: W
LayerCount: 2
Fore
SplineSet
92 1378 m 1,0,-1
 92 1462 l 1,1,-1
 823 1462 l 1,2,-1
 823 1378 l 1,3,-1
 500 1378 l 1,4,-1
 500 0 l 1,5,-1
 416 0 l 1,6,-1
 416 1378 l 1,7,-1
 92 1378 l 1,0,-1
EndSplineSet
EndChar

StartChar: U
Encoding: 85 85 64
Width: 1136
GlyphClass: 2
Flags: W
LayerCount: 2
Fore
SplineSet
156 365 m 2,0,-1
 156 1462 l 1,1,-1
 238 1462 l 1,2,-1
 238 365 l 2,3,4
 238 224 238 224 340 143 c 0,5,6
 433 70 433 70 574 70 c 0,7,8
 576 70 576 70 578 70 c 0,9,10
 719 70 719 70 815 145 c 0,11,12
 919 227 919 227 920 365 c 2,13,-1
 920 1462 l 1,14,-1
 1004 1462 l 1,15,-1
 1004 365 l 2,16,17
 1004 187 1004 187 874 80 c 0,18,19
 761 -14 761 -14 578 -14 c 0,20,21
 400 -14 400 -14 281 82 c 0,22,23
 156 186 156 186 156 365 c 2,0,-1
EndSplineSet
EndChar

StartChar: V
Encoding: 86 86 65
Width: 1077
GlyphClass: 2
Flags: W
LayerCount: 2
Fore
SplineSet
-39 1462 m 1,0,-1
 43 1462 l 1,1,-1
 545 166 l 1,2,-1
 1047 1462 l 1,3,-1
 1130 1462 l 1,4,-1
 545 -47 l 1,5,-1
 -39 1462 l 1,0,-1
EndSplineSet
EndChar

StartChar: W
Encoding: 87 87 66
Width: 1794
GlyphClass: 2
Flags: W
LayerCount: 2
Fore
SplineSet
70 1462 m 1,0,-1
 152 1462 l 1,1,-1
 535 266 l 1,2,-1
 905 1489 l 1,3,-1
 1274 266 l 1,4,-1
 1657 1462 l 1,5,-1
 1743 1462 l 1,6,-1
 1270 -20 l 1,7,-1
 905 1206 l 1,8,-1
 539 -20 l 1,9,-1
 70 1462 l 1,0,-1
EndSplineSet
EndChar

StartChar: X
Encoding: 88 88 67
Width: 1085
GlyphClass: 2
Flags: W
LayerCount: 2
Fore
SplineSet
68 0 m 1,0,-1
 498 756 l 1,1,-1
 92 1462 l 1,2,-1
 188 1462 l 1,3,-1
 549 829 l 1,4,-1
 911 1462 l 1,5,-1
 1008 1462 l 1,6,-1
 602 750 l 1,7,-1
 1032 0 l 1,8,-1
 936 0 l 1,9,-1
 547 678 l 1,10,-1
 162 0 l 1,11,-1
 68 0 l 1,0,-1
EndSplineSet
EndChar

StartChar: Y
Encoding: 89 89 68
Width: 1046
GlyphClass: 2
Flags: W
LayerCount: 2
Fore
SplineSet
68 1462 m 1,0,-1
 164 1462 l 1,1,-1
 524 829 l 1,2,-1
 889 1462 l 1,3,-1
 985 1462 l 1,4,-1
 567 731 l 1,5,-1
 567 0 l 1,6,-1
 483 0 l 1,7,-1
 483 731 l 1,8,-1
 68 1462 l 1,0,-1
EndSplineSet
EndChar

StartChar: Z
Encoding: 90 90 69
Width: 1134
GlyphClass: 2
Flags: W
LayerCount: 2
Fore
SplineSet
80 0 m 1,0,-1
 918 1376 l 1,1,-1
 129 1376 l 1,2,-1
 129 1462 l 1,3,-1
 1069 1462 l 1,4,-1
 229 84 l 1,5,-1
 1065 84 l 1,6,-1
 1065 0 l 1,7,-1
 80 0 l 1,0,-1
EndSplineSet
EndChar

StartChar: bracketleft
Encoding: 91 91 70
Width: 438
GlyphClass: 2
Flags: W
LayerCount: 2
Fore
SplineSet
121 -94 m 1,0,-1
 121 1546 l 1,1,-1
 342 1546 l 1,2,-1
 342 1475 l 1,3,-1
 205 1475 l 1,4,-1
 205 -25 l 1,5,-1
 348 -25 l 1,6,-1
 348 -94 l 1,7,-1
 121 -94 l 1,0,-1
EndSplineSet
EndChar

StartChar: backslash
Encoding: 92 92 71
Width: 575
GlyphClass: 2
Flags: W
LayerCount: 2
Fore
SplineSet
47 1462 m 1,0,-1
 129 1462 l 1,1,-1
 547 0 l 1,2,-1
 467 0 l 1,3,-1
 47 1462 l 1,0,-1
EndSplineSet
EndChar

StartChar: bracketright
Encoding: 93 93 72
Width: 438
GlyphClass: 2
Flags: W
LayerCount: 2
Fore
SplineSet
125 -25 m 1,0,-1
 270 -25 l 1,1,-1
 270 1475 l 1,2,-1
 131 1475 l 1,3,-1
 131 1546 l 1,4,-1
 352 1546 l 1,5,-1
 352 -94 l 1,6,-1
 125 -94 l 1,7,-1
 125 -25 l 1,0,-1
EndSplineSet
EndChar

StartChar: asciicircum
Encoding: 94 94 73
Width: 720
GlyphClass: 2
Flags: W
LayerCount: 2
Fore
SplineSet
84 772 m 1,0,-1
 332 1348 l 1,1,-1
 399 1348 l 1,2,-1
 647 772 l 1,3,-1
 592 772 l 1,4,-1
 367 1194 l 1,5,-1
 137 772 l 1,6,-1
 84 772 l 1,0,-1
EndSplineSet
EndChar

StartChar: underscore
Encoding: 95 95 74
Width: 731
GlyphClass: 2
Flags: W
LayerCount: 2
Fore
SplineSet
0 -360 m 1,0,-1
 754 -360 l 1,1,-1
 754 -434 l 1,2,-1
 0 -434 l 1,3,-1
 0 -360 l 1,0,-1
EndSplineSet
EndChar

StartChar: grave
Encoding: 96 96 75
Width: 679
GlyphClass: 2
Flags: W
LayerCount: 2
Fore
SplineSet
186 1233 m 1,0,-1
 231 1282 l 1,1,-1
 506 1008 l 1,2,-1
 455 961 l 1,3,-1
 186 1233 l 1,0,-1
EndSplineSet
EndChar

StartChar: a
Encoding: 97 97 76
Width: 1044
GlyphClass: 2
Flags: W
LayerCount: 2
Fore
SplineSet
72 422 m 256,0,1
 72 606 72 606 197 731 c 0,2,3
 324 858 324 858 508 858 c 0,4,5
 711 858 711 858 846 698 c 1,6,-1
 846 846 l 1,7,-1
 930 846 l 1,8,-1
 930 0 l 1,9,-1
 846 0 l 1,10,-1
 846 145 l 1,11,12
 714 -14 714 -14 511 -14 c 0,13,14
 510 -14 510 -14 508 -14 c 0,15,16
 324 -14 324 -14 199 111 c 0,17,18
 72 238 72 238 72 422 c 256,0,1
154 422 m 0,19,20
 154 277 154 277 258 172.5 c 128,-1,21
 362 68 362 68 508 68 c 0,22,23
 655 68 655 68 758 170 c 0,24,25
 862 275 862 275 862 422 c 0,26,27
 862 567 862 567 757.5 671.5 c 128,-1,28
 653 776 653 776 508 776 c 0,29,30
 361 776 361 776 258 674 c 0,31,32
 154 570 154 570 154 422 c 0,19,20
EndSplineSet
EndChar

StartChar: b
Encoding: 98 98 77
Width: 1058
GlyphClass: 2
Flags: W
LayerCount: 2
Fore
SplineSet
113 0 m 1,0,-1
 113 1516 l 1,1,-1
 197 1516 l 1,2,-1
 197 688 l 1,3,4
 330 858 330 858 543 858 c 0,5,6
 727 858 727 858 852 733 c 0,7,8
 979 606 979 606 979 422 c 256,9,10
 979 238 979 238 854 113 c 0,11,12
 727 -14 727 -14 543 -14 c 0,13,14
 332 -14 332 -14 197 156 c 1,15,-1
 197 0 l 1,16,-1
 113 0 l 1,0,-1
188 422 m 0,17,18
 188 277 188 277 292.5 172.5 c 128,-1,19
 397 68 397 68 543 68 c 0,20,21
 690 68 690 68 793 170 c 0,22,23
 897 275 897 275 897 422 c 0,24,25
 897 567 897 567 792.5 671.5 c 128,-1,26
 688 776 688 776 543 776 c 0,27,28
 396 776 396 776 293 674 c 0,29,30
 189 570 189 570 188 422 c 0,17,18
EndSplineSet
EndChar

StartChar: c
Encoding: 99 99 78
Width: 897
GlyphClass: 2
Flags: W
LayerCount: 2
Fore
SplineSet
96 422 m 0,0,1
 96 610 96 610 221 735 c 128,-1,2
 346 860 346 860 535 860 c 0,3,4
 697 860 697 860 793 786 c 1,5,-1
 793 686 l 1,6,-1
 739 721 l 1,7,-1
 682 752 l 1,8,9
 607 778 607 778 540 778 c 0,10,11
 538 778 538 778 535 778 c 0,12,13
 377 778 377 778 279 680 c 0,14,15
 179 580 179 580 178 422 c 0,16,17
 178 266 178 266 278.5 166 c 128,-1,18
 379 66 379 66 535 66 c 0,19,20
 682 66 682 66 793 164 c 1,21,-1
 793 59 l 1,22,23
 679 -16 679 -16 539 -16 c 0,24,25
 537 -16 537 -16 535 -16 c 0,26,27
 347 -16 347 -16 221.5 108.5 c 128,-1,28
 96 233 96 233 96 422 c 0,0,1
EndSplineSet
EndChar

StartChar: d
Encoding: 100 100 79
Width: 1067
GlyphClass: 2
Flags: W
LayerCount: 2
Fore
SplineSet
88 422 m 256,0,1
 88 606 88 606 213 731 c 0,2,3
 340 858 340 858 524 858 c 0,4,5
 727 858 727 858 868 692 c 1,6,-1
 868 1516 l 1,7,-1
 952 1516 l 1,8,-1
 952 0 l 1,9,-1
 868 0 l 1,10,-1
 868 152 l 1,11,12
 733 -14 733 -14 524 -14 c 0,13,14
 340 -14 340 -14 215 111 c 0,15,16
 88 238 88 238 88 422 c 256,0,1
170 422 m 0,17,18
 170 277 170 277 274.5 172.5 c 128,-1,19
 379 68 379 68 524 68 c 0,20,21
 671 68 671 68 774 170 c 0,22,23
 879 275 879 275 879 422 c 0,24,25
 879 567 879 567 774.5 671.5 c 128,-1,26
 670 776 670 776 524 776 c 0,27,28
 377 776 377 776 274 674 c 0,29,30
 170 570 170 570 170 422 c 0,17,18
EndSplineSet
EndChar

StartChar: e
Encoding: 101 101 80
Width: 1003
GlyphClass: 2
Flags: W
LayerCount: 2
Fore
SplineSet
70 422 m 0,0,1
 70 612 70 612 193 735 c 0,2,3
 318 860 318 860 508 860 c 0,4,5
 696 860 696 860 819 743 c 0,6,7
 944 626 944 626 944 440 c 1,8,-1
 152 440 l 1,9,10
 152 268 152 268 244 168 c 0,11,12
 340 66 340 66 508 66 c 0,13,14
 594 66 594 66 664 94 c 0,15,16
 752 131 752 131 821 244 c 1,17,-1
 897 209 l 1,18,19
 817 57 817 57 651 4 c 0,20,21
 588 -16 588 -16 508 -16 c 0,22,23
 318 -16 318 -16 195 109 c 0,24,25
 70 234 70 234 70 422 c 0,0,1
164 520 m 1,26,-1
 850 520 l 1,27,28
 830 637 830 637 729 709 c 0,29,30
 634 778 634 778 512 778 c 0,31,32
 510 778 510 778 508 778 c 0,33,34
 246 778 246 778 164 520 c 1,26,-1
EndSplineSet
EndChar

StartChar: f
Encoding: 102 102 81
Width: 555
GlyphClass: 2
Flags: W
LayerCount: 2
Fore
SplineSet
88 762 m 1,0,-1
 88 846 l 1,1,-1
 203 846 l 1,2,-1
 203 1327 l 2,3,4
 203 1522 203 1522 399 1522 c 0,5,6
 444 1522 444 1522 457 1518 c 1,7,8
 482 1518 482 1518 512 1503 c 1,9,-1
 512 1419 l 1,10,-1
 457 1432 l 1,11,-1
 401 1438 l 1,12,13
 286 1438 286 1438 287 1303 c 2,14,-1
 287 846 l 1,15,-1
 487 846 l 1,16,-1
 487 762 l 1,17,-1
 287 762 l 1,18,-1
 287 0 l 1,19,-1
 203 0 l 1,20,-1
 203 762 l 1,21,-1
 88 762 l 1,0,-1
EndSplineSet
EndChar

StartChar: g
Encoding: 103 103 82
Width: 1044
GlyphClass: 2
Flags: W
LayerCount: 2
Fore
SplineSet
72 422 m 256,0,1
 72 606 72 606 197 731 c 0,2,3
 324 858 324 858 508 858 c 0,4,5
 711 858 711 858 846 698 c 1,6,-1
 846 846 l 1,7,-1
 930 846 l 1,8,-1
 930 18 l 2,9,10
 930 -168 930 -168 815 -282.5 c 128,-1,11
 700 -397 700 -397 514 -397 c 0,12,13
 168 -397 168 -397 100 -125 c 1,14,-1
 184 -125 l 1,15,16
 207 -225 207 -225 313 -274 c 0,17,18
 397 -313 397 -313 514 -313 c 0,19,20
 672 -313 672 -313 758 -225 c 0,21,22
 846 -137 846 -137 846 20 c 2,23,-1
 846 145 l 1,24,25
 714 -14 714 -14 511 -14 c 0,26,27
 509 -14 509 -14 508 -14 c 0,28,29
 324 -14 324 -14 199 111 c 0,30,31
 72 238 72 238 72 422 c 256,0,1
154 422 m 0,32,33
 154 277 154 277 258 172.5 c 128,-1,34
 362 68 362 68 508 68 c 0,35,36
 655 68 655 68 758 170 c 0,37,38
 862 275 862 275 862 422 c 0,39,40
 862 567 862 567 757.5 671.5 c 128,-1,41
 653 776 653 776 508 776 c 0,42,43
 361 776 361 776 258 674 c 0,44,45
 154 570 154 570 154 422 c 0,32,33
EndSplineSet
EndChar

StartChar: h
Encoding: 104 104 83
Width: 933
GlyphClass: 2
Flags: W
LayerCount: 2
Fore
SplineSet
152 0 m 1,0,-1
 152 1516 l 1,1,-1
 236 1516 l 1,2,-1
 236 733 l 1,3,4
 312 858 312 858 487 858 c 0,5,6
 821 858 821 858 821 516 c 2,7,-1
 821 -2 l 1,8,-1
 737 -2 l 1,9,-1
 737 508 l 2,10,11
 737 776 737 776 487 776 c 0,12,13
 385 776 385 776 311 715 c 0,14,15
 235 654 235 654 236 551 c 2,16,-1
 236 0 l 1,17,-1
 152 0 l 1,0,-1
EndSplineSet
EndChar

StartChar: i
Encoding: 105 105 84
Width: 376
GlyphClass: 2
Flags: W
LayerCount: 2
Fore
SplineSet
125 1065 m 0,0,1
 125 1120 125 1120 193 1133 c 1,2,3
 244 1133 244 1133 260 1065 c 1,4,5
 260 997 260 997 193 997 c 0,6,7
 170 997 170 997 145 1016 c 0,8,9
 127 1034 127 1034 125 1065 c 0,0,1
150 0 m 1,10,-1
 150 846 l 1,11,-1
 233 846 l 1,12,-1
 233 0 l 1,13,-1
 150 0 l 1,10,-1
EndSplineSet
EndChar

StartChar: j
Encoding: 106 106 85
Width: 378
GlyphClass: 2
Flags: W
LayerCount: 2
Fore
SplineSet
125 1065 m 0,0,1
 125 1120 125 1120 193 1133 c 1,2,3
 244 1133 244 1133 260 1065 c 1,4,5
 260 997 260 997 193 997 c 0,6,7
 170 997 170 997 145 1016 c 0,8,9
 127 1034 127 1034 125 1065 c 0,0,1
152 -369 m 1,10,-1
 152 846 l 1,11,-1
 236 846 l 1,12,-1
 236 -369 l 1,13,-1
 152 -369 l 1,10,-1
EndSplineSet
EndChar

StartChar: k
Encoding: 107 107 86
Width: 854
GlyphClass: 2
Flags: W
LayerCount: 2
Fore
SplineSet
137 0 m 1,0,-1
 137 1516 l 1,1,-1
 221 1516 l 1,2,-1
 221 514 l 1,3,-1
 588 879 l 1,4,-1
 707 879 l 1,5,-1
 324 498 l 1,6,-1
 821 0 l 1,7,-1
 711 0 l 1,8,-1
 268 440 l 1,9,-1
 221 393 l 1,10,-1
 221 0 l 1,11,-1
 137 0 l 1,0,-1
EndSplineSet
EndChar

StartChar: l
Encoding: 108 108 87
Width: 393
GlyphClass: 2
Flags: W
LayerCount: 2
Fore
SplineSet
158 0 m 1,0,-1
 158 1516 l 1,1,-1
 240 1516 l 1,2,-1
 240 0 l 1,3,-1
 158 0 l 1,0,-1
EndSplineSet
EndChar

StartChar: m
Encoding: 109 109 88
Width: 1316
GlyphClass: 2
Flags: W
LayerCount: 2
Fore
SplineSet
135 0 m 1,0,-1
 135 846 l 1,1,-1
 219 846 l 1,2,-1
 219 762 l 1,3,4
 280 858 280 858 418 858 c 0,5,6
 582 858 582 858 659 725 c 1,7,8
 733 858 733 858 899 858 c 0,9,10
 1026 858 1026 858 1104 786 c 0,11,12
 1182 712 1182 712 1182 584 c 2,13,-1
 1182 0 l 1,14,-1
 1098 0 l 1,15,-1
 1098 584 l 2,16,17
 1098 662 1098 662 1046.5 719 c 128,-1,18
 995 776 995 776 899 776 c 0,19,20
 700 776 700 776 700 584 c 2,21,-1
 700 0 l 1,22,-1
 616 0 l 1,23,-1
 616 584 l 2,24,25
 616 670 616 670 559 721 c 0,26,27
 500 776 500 776 418 776 c 0,28,29
 334 776 334 776 276 723 c 0,30,31
 219 672 219 672 219 584 c 2,32,-1
 219 0 l 1,33,-1
 135 0 l 1,0,-1
EndSplineSet
EndChar

StartChar: n
Encoding: 110 110 89
Width: 923
GlyphClass: 2
Flags: W
LayerCount: 2
Fore
SplineSet
135 0 m 1,0,-1
 135 846 l 1,1,-1
 219 846 l 1,2,-1
 219 743 l 1,3,4
 276 856 276 856 463 856 c 0,5,6
 621 856 621 856 704.5 766 c 128,-1,7
 788 676 788 676 788 514 c 2,8,-1
 788 0 l 1,9,-1
 705 0 l 1,10,-1
 705 506 l 2,11,12
 705 774 705 774 463 774 c 0,13,14
 344 774 344 774 283 705 c 0,15,16
 220 635 220 635 219 514 c 2,17,-1
 219 0 l 1,18,-1
 135 0 l 1,0,-1
EndSplineSet
EndChar

StartChar: o
Encoding: 111 111 90
Width: 1019
GlyphClass: 2
Flags: W
LayerCount: 2
Fore
SplineSet
72 422 m 0,0,1
 72 604 72 604 199 731 c 0,2,3
 324 860 324 860 508 860 c 0,4,5
 690 860 690 860 817 733 c 128,-1,6
 944 606 944 606 944 422 c 256,7,8
 944 238 944 238 819 113 c 0,9,10
 692 -14 692 -14 508 -14 c 256,11,12
 324 -14 324 -14 199 111 c 0,13,14
 72 238 72 238 72 422 c 0,0,1
154 422 m 0,15,16
 154 277 154 277 258 172.5 c 128,-1,17
 362 68 362 68 508 68 c 0,18,19
 655 68 655 68 758 170 c 0,20,21
 862 275 862 275 862 422 c 0,22,23
 862 572 862 572 760 674 c 0,24,25
 658 778 658 778 508 778 c 0,26,27
 365 778 365 778 260 672 c 0,28,29
 154 566 154 566 154 422 c 0,15,16
EndSplineSet
EndChar

StartChar: p
Encoding: 112 112 91
Width: 1050
GlyphClass: 2
Flags: W
LayerCount: 2
Fore
SplineSet
131 -397 m 1,0,-1
 131 846 l 1,1,-1
 215 846 l 1,2,-1
 215 686 l 1,3,4
 346 858 346 858 563 858 c 0,5,6
 747 858 747 858 872 733 c 0,7,8
 999 606 999 606 999 422 c 256,9,10
 999 238 999 238 874 113 c 0,11,12
 747 -14 747 -14 563 -14 c 0,13,14
 352 -14 352 -14 215 158 c 1,15,-1
 215 -397 l 1,16,-1
 131 -397 l 1,0,-1
209 422 m 0,17,18
 209 277 209 277 313.5 172.5 c 128,-1,19
 418 68 418 68 563 68 c 0,20,21
 710 68 710 68 813 170 c 0,22,23
 918 275 918 275 918 422 c 0,24,25
 918 567 918 567 813.5 671.5 c 128,-1,26
 709 776 709 776 563 776 c 0,27,28
 416 776 416 776 313 674 c 0,29,30
 209 570 209 570 209 422 c 0,17,18
EndSplineSet
EndChar

StartChar: q
Encoding: 113 113 92
Width: 1028
GlyphClass: 2
Flags: W
LayerCount: 2
Fore
SplineSet
61 422 m 256,0,1
 61 606 61 606 186 731 c 0,2,3
 313 858 313 858 498 858 c 0,4,5
 703 858 703 858 842 692 c 1,6,-1
 842 846 l 1,7,-1
 926 846 l 1,8,-1
 926 -397 l 1,9,-1
 842 -397 l 1,10,-1
 842 152 l 1,11,12
 707 -14 707 -14 498 -14 c 0,13,14
 314 -14 314 -14 188 111 c 0,15,16
 61 238 61 238 61 422 c 256,0,1
143 422 m 0,17,18
 143 277 143 277 247.5 172.5 c 128,-1,19
 352 68 352 68 498 68 c 0,20,21
 645 68 645 68 748 170 c 0,22,23
 852 275 852 275 852 422 c 0,24,25
 852 567 852 567 747.5 671.5 c 128,-1,26
 643 776 643 776 498 776 c 0,27,28
 351 776 351 776 248 674 c 0,29,30
 144 570 144 570 143 422 c 0,17,18
EndSplineSet
EndChar

StartChar: r
Encoding: 114 114 93
Width: 634
GlyphClass: 2
Flags: W
LayerCount: 2
Fore
SplineSet
135 0 m 1,0,-1
 135 846 l 1,1,-1
 219 846 l 1,2,-1
 219 731 l 1,3,4
 246 778 246 778 289 817 c 128,-1,5
 332 856 332 856 383 856 c 0,6,7
 446 856 446 856 487 841.5 c 128,-1,8
 528 827 528 827 580 791 c 1,9,-1
 535 721 l 1,10,11
 502 746 502 746 465 760 c 128,-1,12
 428 774 428 774 387 774 c 0,13,14
 352 774 352 774 321.5 752.5 c 128,-1,15
 291 731 291 731 268.5 699.5 c 128,-1,16
 246 668 246 668 232.5 629 c 128,-1,17
 219 590 219 590 219 557 c 2,18,-1
 219 0 l 1,19,-1
 135 0 l 1,0,-1
EndSplineSet
EndChar

StartChar: s
Encoding: 115 115 94
Width: 677
GlyphClass: 2
Flags: W
LayerCount: 2
Fore
SplineSet
59 162 m 1,0,-1
 131 205 l 1,1,2
 166 142 166 142 215 106 c 0,3,4
 265 68 265 68 350 68 c 0,5,6
 352 68 352 68 354 68 c 0,7,8
 547 68 547 68 547 231 c 0,9,10
 547 303 547 303 479 356 c 0,11,12
 459 368 459 368 421 383.5 c 128,-1,13
 383 399 383 399 328 420 c 0,14,15
 226 457 226 457 180 494 c 0,16,17
 115 546 115 546 115 644 c 0,18,19
 115 733 115 733 180 795 c 0,20,21
 243 858 243 858 346 858 c 0,22,23
 487 858 487 858 586 760 c 1,24,-1
 524 707 l 1,25,26
 455 776 455 776 349 776 c 0,27,28
 347 776 347 776 346 776 c 0,29,30
 199 776 199 776 199 647 c 0,31,32
 199 590 199 590 244 553 c 0,33,34
 281 524 281 524 360 498 c 0,35,36
 430 473 430 473 475 451.5 c 128,-1,37
 520 430 520 430 543 414 c 0,38,39
 631 346 631 346 631 231 c 0,40,41
 631 120 631 120 551 53 c 0,42,43
 470 -16 470 -16 357 -16 c 0,44,45
 355 -16 355 -16 354 -16 c 0,46,47
 157 -16 157 -16 59 162 c 1,0,-1
EndSplineSet
EndChar

StartChar: t
Encoding: 116 116 95
Width: 512
GlyphClass: 2
Flags: W
LayerCount: 2
Fore
SplineSet
63 762 m 1,0,-1
 63 846 l 1,1,-1
 178 846 l 1,2,-1
 178 1217 l 1,3,-1
 262 1217 l 1,4,-1
 262 846 l 1,5,-1
 459 846 l 1,6,-1
 459 762 l 1,7,-1
 262 762 l 1,8,-1
 262 0 l 1,9,-1
 178 0 l 1,10,-1
 178 762 l 1,11,-1
 63 762 l 1,0,-1
EndSplineSet
EndChar

StartChar: u
Encoding: 117 117 96
Width: 878
GlyphClass: 2
Flags: W
LayerCount: 2
Fore
SplineSet
125 317 m 2,0,-1
 125 846 l 1,1,-1
 209 846 l 1,2,-1
 209 317 l 2,3,4
 209 196 209 196 262 131 c 0,5,6
 316 66 316 66 434 66 c 0,7,8
 436 66 436 66 438 66 c 0,9,10
 674 66 674 66 674 317 c 2,11,-1
 674 846 l 1,12,-1
 756 846 l 1,13,-1
 756 317 l 2,14,15
 756 161 756 161 674 74 c 0,16,17
 590 -16 590 -16 438 -16 c 0,18,19
 288 -16 288 -16 206.5 72 c 128,-1,20
 125 160 125 160 125 317 c 2,0,-1
EndSplineSet
EndChar

StartChar: v
Encoding: 118 118 97
Width: 890
GlyphClass: 2
Flags: W
LayerCount: 2
Fore
SplineSet
55 846 m 1,0,-1
 145 846 l 1,1,-1
 453 172 l 1,2,-1
 762 846 l 1,3,-1
 856 846 l 1,4,-1
 455 -37 l 1,5,-1
 55 846 l 1,0,-1
EndSplineSet
EndChar

StartChar: w
Encoding: 119 119 98
Width: 1400
GlyphClass: 2
Flags: W
LayerCount: 2
Fore
SplineSet
59 846 m 1,0,-1
 150 846 l 1,1,-1
 434 190 l 1,2,-1
 707 872 l 1,3,-1
 977 193 l 1,4,-1
 1260 846 l 1,5,-1
 1354 846 l 1,6,-1
 971 -37 l 1,7,-1
 707 639 l 1,8,-1
 438 -37 l 1,9,-1
 59 846 l 1,0,-1
EndSplineSet
EndChar

StartChar: x
Encoding: 120 120 99
Width: 739
GlyphClass: 2
Flags: W
LayerCount: 2
Fore
SplineSet
33 0 m 1,0,-1
 322 426 l 1,1,-1
 39 846 l 1,2,-1
 137 846 l 1,3,-1
 373 496 l 1,4,-1
 606 846 l 1,5,-1
 705 846 l 1,6,-1
 424 428 l 1,7,-1
 711 0 l 1,8,-1
 612 0 l 1,9,-1
 373 354 l 1,10,-1
 133 0 l 1,11,-1
 33 0 l 1,0,-1
EndSplineSet
EndChar

StartChar: y
Encoding: 121 121 100
Width: 911
GlyphClass: 2
Flags: W
LayerCount: 2
Fore
SplineSet
57 846 m 1,0,-1
 147 846 l 1,1,-1
 463 178 l 1,2,-1
 774 846 l 1,3,-1
 866 846 l 1,4,-1
 289 -397 l 1,5,-1
 195 -397 l 1,6,-1
 414 78 l 1,7,-1
 57 846 l 1,0,-1
EndSplineSet
EndChar

StartChar: z
Encoding: 122 122 101
Width: 935
GlyphClass: 2
Flags: W
LayerCount: 2
Fore
SplineSet
94 0 m 1,0,-1
 698 766 l 1,1,-1
 129 766 l 1,2,-1
 129 846 l 1,3,-1
 868 846 l 1,4,-1
 268 84 l 1,5,-1
 858 84 l 1,6,-1
 858 0 l 1,7,-1
 94 0 l 1,0,-1
EndSplineSet
EndChar

StartChar: braceleft
Encoding: 123 123 102
Width: 395
GlyphClass: 2
Flags: W
LayerCount: 2
Fore
SplineSet
16 727 m 1,0,1
 108 801 108 801 109 911 c 2,2,-1
 109 1286 l 2,3,4
 109 1423 109 1423 166 1479 c 0,5,6
 223 1536 223 1536 362 1536 c 1,7,-1
 362 1460 l 1,8,9
 264 1460 264 1460 225 1421 c 0,10,11
 184 1380 184 1380 184 1286 c 2,12,-1
 184 911 l 2,13,14
 184 798 184 798 100 727 c 1,15,16
 133 694 133 694 158 641 c 0,17,18
 185 590 185 590 184 543 c 2,19,-1
 184 135 l 2,20,21
 184 35 184 35 223 4 c 0,22,23
 262 -29 262 -29 365 -29 c 1,24,-1
 365 -104 l 1,25,26
 226 -104 226 -104 168 -55 c 0,27,28
 109 -6 109 -6 109 131 c 2,29,-1
 109 543 l 2,30,31
 109 592 109 592 78 651 c 0,32,33
 64 680 64 680 16 727 c 1,0,1
EndSplineSet
EndChar

StartChar: bar
Encoding: 124 124 103
Width: 272
GlyphClass: 2
Flags: W
LayerCount: 2
Fore
SplineSet
111 -94 m 1,0,-1
 111 1546 l 1,1,-1
 182 1546 l 1,2,-1
 182 -94 l 1,3,-1
 111 -94 l 1,0,-1
EndSplineSet
EndChar

StartChar: braceright
Encoding: 125 125 104
Width: 395
GlyphClass: 2
Flags: W
LayerCount: 2
Fore
SplineSet
31 -29 m 1,0,1
 131 -29 131 -29 172 2 c 0,2,3
 211 35 211 35 211 135 c 2,4,-1
 211 543 l 2,5,6
 211 637 211 637 295 727 c 1,7,8
 256 760 256 760 233.5 805 c 128,-1,9
 211 850 211 850 211 911 c 2,10,-1
 211 1286 l 2,11,12
 211 1380 211 1380 170 1421 c 0,13,14
 131 1460 131 1460 33 1460 c 1,15,-1
 33 1536 l 1,16,17
 168 1536 168 1536 227.5 1476.5 c 128,-1,18
 287 1417 287 1417 287 1286 c 2,19,-1
 287 911 l 2,20,21
 287 854 287 854 317 799 c 0,22,23
 332 774 332 774 379 727 c 1,24,25
 344 698 344 698 319 653 c 0,26,27
 286 596 286 596 287 543 c 2,28,-1
 287 131 l 2,29,30
 287 -6 287 -6 229 -55 c 0,31,32
 170 -104 170 -104 31 -104 c 1,33,-1
 31 -29 l 1,0,1
EndSplineSet
EndChar

StartChar: asciitilde
Encoding: 126 126 105
Width: 878
GlyphClass: 2
Flags: W
LayerCount: 2
Fore
SplineSet
61 709 m 1,0,1
 165 813 165 813 301 813 c 0,2,3
 340 813 340 813 377 801 c 1,4,-1
 459 764 l 1,5,-1
 528 731 l 1,6,-1
 563 721 l 1,7,-1
 600 717 l 1,8,9
 686 717 686 717 758 791 c 1,10,-1
 823 735 l 1,11,12
 727 633 727 633 604 633 c 0,13,14
 547 633 547 633 522 643 c 2,15,-1
 438 682 l 1,16,-1
 387 709 l 2,17,18
 344 732 344 732 301 731 c 0,19,20
 244 731 244 731 193 707 c 1,21,-1
 158 684 l 1,22,-1
 119 649 l 1,23,-1
 61 709 l 1,0,1
EndSplineSet
EndChar

StartChar: exclamdown
Encoding: 161 161 107
Width: 417
GlyphClass: 2
Flags: W
LayerCount: 2
Fore
SplineSet
137 1245 m 0,0,1
 137 1306 137 1306 211 1319 c 1,2,3
 240 1319 240 1319 262 1296 c 0,4,5
 279 1280 279 1280 285 1245 c 1,6,7
 285 1184 285 1184 211 1171 c 1,8,9
 137 1171 137 1171 137 1245 c 0,0,1
172 -152 m 1,10,-1
 172 1008 l 1,11,-1
 254 1008 l 1,12,-1
 254 -152 l 1,13,-1
 172 -152 l 1,10,-1
EndSplineSet
EndChar

StartChar: cent
Encoding: 162 162 108
Width: 866
GlyphClass: 2
Flags: W
LayerCount: 2
Fore
SplineSet
78 719 m 0,0,1
 78 889 78 889 176 1004 c 0,2,3
 276 1121 276 1121 444 1141 c 1,4,-1
 444 1243 l 1,5,-1
 530 1243 l 1,6,-1
 530 1143 l 1,7,8
 598 1143 598 1143 653 1120 c 1,9,10
 714 1102 714 1102 760 1061 c 1,11,-1
 760 961 l 1,12,-1
 707 995 l 1,13,-1
 653 1026 l 1,14,15
 585 1055 585 1055 530 1055 c 1,16,-1
 530 387 l 1,17,18
 634 387 634 387 756 471 c 1,19,-1
 756 377 l 1,20,21
 719 352 719 352 657 328 c 1,22,-1
 596 313 l 1,23,-1
 530 307 l 1,24,-1
 530 188 l 1,25,-1
 444 188 l 1,26,-1
 444 309 l 1,27,28
 282 309 282 309 170 451 c 0,29,30
 78 564 78 564 78 719 c 0,0,1
168 719 m 0,31,32
 168 588 168 588 242 500 c 0,33,34
 318 410 318 410 444 389 c 1,35,-1
 444 1053 l 1,36,37
 321 1035 321 1035 244 942 c 0,38,39
 168 848 168 848 168 719 c 0,31,32
EndSplineSet
EndChar

StartChar: sterling
Encoding: 163 163 109
Width: 970
GlyphClass: 2
Flags: W
LayerCount: 2
Fore
SplineSet
80 55 m 1,0,1
 111 98 111 98 168 131 c 0,2,3
 227 166 227 166 276 166 c 1,4,5
 444 334 444 334 444 500 c 1,6,-1
 225 500 l 1,7,-1
 225 588 l 1,8,-1
 438 588 l 1,9,10
 426 649 426 649 350 752 c 2,11,-1
 274 856 l 1,12,-1
 193 1001 l 1,13,14
 158 1087 158 1087 158 1159 c 0,15,16
 158 1311 158 1311 262 1395 c 0,17,18
 362 1473 362 1473 516 1473 c 0,19,20
 668 1473 668 1473 762 1403 c 0,21,22
 866 1325 866 1325 866 1180 c 1,23,-1
 784 1180 l 1,24,25
 784 1289 784 1289 700 1343 c 0,26,27
 632 1390 632 1390 516 1391 c 0,28,29
 248 1391 248 1391 248 1159 c 1,30,-1
 254 1094 l 1,31,32
 270 1016 270 1016 350 897 c 2,33,-1
 457 737 l 2,34,35
 506 663 506 663 526 588 c 1,36,-1
 760 588 l 1,37,-1
 760 500 l 1,38,-1
 530 500 l 1,39,40
 530 408 530 408 489 319 c 0,41,42
 446 233 446 233 383 170 c 1,43,-1
 414 168 l 1,44,-1
 449 154 l 2,45,46
 494 136 494 136 522 117 c 1,47,-1
 600 82 l 1,48,49
 637 70 637 70 680 70 c 0,50,51
 776 70 776 70 862 156 c 1,52,-1
 918 102 l 1,53,54
 898 82 898 82 875 63.5 c 128,-1,55
 852 45 852 45 823 25 c 0,56,57
 757 -12 757 -12 680 -12 c 0,58,59
 582 -12 582 -12 485 45 c 0,60,61
 454 63 454 63 428 70 c 2,62,-1
 381 82 l 1,63,-1
 334 86 l 2,64,65
 281 88 281 88 217 61 c 0,66,67
 184 47 184 47 133 -2 c 1,68,-1
 80 55 l 1,0,1
EndSplineSet
EndChar

StartChar: yen
Encoding: 165 165 110
Width: 1052
GlyphClass: 2
Flags: W
LayerCount: 2
Fore
SplineSet
68 1462 m 1,0,-1
 164 1462 l 1,1,-1
 524 827 l 1,2,-1
 889 1462 l 1,3,-1
 985 1462 l 1,4,-1
 573 741 l 1,5,-1
 776 741 l 1,6,-1
 776 657 l 1,7,-1
 567 657 l 1,8,-1
 567 565 l 1,9,-1
 776 565 l 1,10,-1
 776 481 l 1,11,-1
 567 481 l 1,12,-1
 567 0 l 1,13,-1
 483 0 l 1,14,-1
 483 481 l 1,15,-1
 276 481 l 1,16,-1
 276 565 l 1,17,-1
 483 565 l 1,18,-1
 483 657 l 1,19,-1
 276 657 l 1,20,-1
 276 741 l 1,21,-1
 477 741 l 1,22,-1
 68 1462 l 1,0,-1
EndSplineSet
EndChar

StartChar: brokenbar
Encoding: 166 166 111
Width: 272
GlyphClass: 2
Flags: W
LayerCount: 2
Fore
SplineSet
111 0 m 1,0,-1
 111 670 l 1,1,-1
 182 670 l 1,2,-1
 182 0 l 1,3,-1
 111 0 l 1,0,-1
111 893 m 1,4,-1
 111 1546 l 1,5,-1
 182 1546 l 1,6,-1
 182 893 l 1,7,-1
 111 893 l 1,4,-1
EndSplineSet
EndChar

StartChar: section
Encoding: 167 167 112
Width: 778
GlyphClass: 2
Flags: W
LayerCount: 2
Fore
SplineSet
76 707 m 0,0,1
 76 832 76 832 141 909 c 0,2,3
 176 952 176 952 264 999 c 1,4,5
 119 1083 119 1083 119 1235 c 0,6,7
 119 1348 119 1348 193 1419 c 0,8,9
 271 1491 271 1491 381 1491 c 0,10,11
 557 1491 557 1491 643 1319 c 1,12,-1
 582 1278 l 1,13,14
 508 1413 508 1413 381 1413 c 0,15,16
 307 1413 307 1413 256 1364 c 0,17,18
 205 1313 205 1313 205 1239 c 0,19,20
 205 1071 205 1071 393 1040 c 0,21,22
 709 989 709 989 709 713 c 0,23,24
 709 533 709 533 532 430 c 1,25,26
 671 352 671 352 672 164 c 0,27,28
 672 41 672 41 590 -29 c 0,29,30
 506 -101 506 -101 381 -100 c 0,31,32
 277 -100 277 -100 205 -47 c 128,-1,33
 133 6 133 6 96 102 c 1,34,-1
 172 137 l 1,35,36
 199 71 199 71 246 25 c 0,37,38
 291 -20 291 -20 381 -20 c 0,39,40
 467 -20 467 -20 522 29 c 0,41,42
 579 78 579 78 580 164 c 0,43,44
 580 373 580 373 362 399 c 0,45,46
 241 415 241 415 160 500 c 0,47,48
 76 588 76 588 76 707 c 0,0,1
170 717 m 0,49,50
 170 621 170 621 235.5 561.5 c 128,-1,51
 301 502 301 502 393 502 c 0,52,53
 489 502 489 502 553 555 c 0,54,55
 616 611 616 611 616 707 c 0,56,57
 616 932 616 932 377 932 c 0,58,59
 285 932 285 932 227 870 c 0,60,61
 170 811 170 811 170 717 c 0,49,50
EndSplineSet
EndChar

StartChar: dieresis
Encoding: 168 168 113
Width: 878
GlyphClass: 2
Flags: W
LayerCount: 2
Fore
SplineSet
242 1065 m 0,0,1
 242 1120 242 1120 309 1133 c 1,2,3
 361 1133 361 1133 377 1065 c 1,4,5
 377 997 377 997 309 997 c 0,6,7
 286 997 286 997 262 1016 c 0,8,9
 244 1034 244 1034 242 1065 c 0,0,1
522 1065 m 0,10,11
 522 1120 522 1120 590 1133 c 1,12,13
 641 1133 641 1133 657 1065 c 1,14,15
 657 997 657 997 590 997 c 0,16,17
 567 997 567 997 543 1016 c 0,18,19
 525 1034 525 1034 522 1065 c 0,10,11
EndSplineSet
EndChar

StartChar: copyright
Encoding: 169 169 114
Width: 1204
GlyphClass: 2
Flags: W
LayerCount: 2
Fore
SplineSet
70 797 m 0,0,1
 70 1022 70 1022 225 1178 c 0,2,3
 383 1336 383 1336 608 1335 c 0,4,5
 829 1335 829 1335 989 1180 c 0,6,7
 1147 1022 1147 1022 1147 797 c 0,8,9
 1147 576 1147 576 991 416 c 0,10,11
 833 258 833 258 608 258 c 256,12,13
 383 258 383 258 227 414 c 0,14,15
 69 572 69 572 70 797 c 0,0,1
113 799 m 256,16,17
 113 590 113 590 256 446 c 0,18,19
 401 301 401 301 610 301 c 256,20,21
 819 301 819 301 963 444 c 0,22,23
 1108 590 1108 590 1108 799 c 256,24,25
 1108 1008 1108 1008 965 1151 c 0,26,27
 820 1296 820 1296 610 1296 c 0,28,29
 401 1296 401 1296 258 1153 c 0,30,31
 113 1008 113 1008 113 799 c 256,16,17
342 807 m 0,32,33
 342 922 342 922 418 985 c 0,34,35
 494 1053 494 1053 608 1053 c 0,36,37
 686 1053 686 1053 727 1032 c 2,38,-1
 762 1016 l 1,39,-1
 803 991 l 1,40,-1
 803 942 l 1,41,-1
 766 967 l 1,42,-1
 725 987 l 2,43,44
 694 1003 694 1003 668 1006 c 2,45,-1
 608 1012 l 1,46,47
 512 1012 512 1012 449 956 c 0,48,49
 383 901 383 901 383 807 c 0,50,51
 383 721 383 721 440 662 c 0,52,53
 497 601 497 601 608 600 c 0,54,55
 731 600 731 600 803 680 c 1,56,-1
 803 631 l 1,57,58
 731 559 731 559 608 559 c 0,59,60
 495 559 495 559 420 627 c 0,61,62
 342 699 342 699 342 807 c 0,32,33
EndSplineSet
EndChar

StartChar: ordfeminine
Encoding: 170 170 115
Width: 763
GlyphClass: 2
Flags: W
LayerCount: 2
Fore
SplineSet
102 688 m 1,0,-1
 102 748 l 1,1,-1
 684 748 l 1,2,-1
 684 688 l 1,3,-1
 102 688 l 1,0,-1
119 1122 m 0,4,5
 119 1231 119 1231 193 1309 c 0,6,7
 269 1385 269 1385 379 1384 c 0,8,9
 504 1384 504 1384 582 1288 c 1,10,-1
 582 1376 l 1,11,-1
 633 1376 l 1,12,-1
 633 868 l 1,13,-1
 582 868 l 1,14,-1
 582 956 l 1,15,16
 508 860 508 860 379 860 c 0,17,18
 268 860 268 860 195 936 c 0,19,20
 119 1012 119 1012 119 1122 c 0,4,5
168 1122 m 0,21,22
 168 1036 168 1036 229 973 c 0,23,24
 292 910 292 910 379 909 c 0,25,26
 465 909 465 909 528.5 972.5 c 128,-1,27
 592 1036 592 1036 592 1122 c 256,28,29
 592 1208 592 1208 528.5 1271.5 c 128,-1,30
 465 1335 465 1335 379 1335 c 256,31,32
 293 1335 293 1335 231 1272 c 0,33,34
 168 1209 168 1209 168 1122 c 0,21,22
EndSplineSet
EndChar

StartChar: guillemotleft
Encoding: 171 171 116
Width: 899
GlyphClass: 2
Flags: W
LayerCount: 2
Fore
SplineSet
78 522 m 1,0,-1
 465 909 l 1,1,-1
 506 866 l 1,2,-1
 162 522 l 1,3,-1
 498 186 l 1,4,-1
 455 143 l 1,5,-1
 78 522 l 1,0,-1
375 522 m 1,6,-1
 760 909 l 1,7,-1
 803 866 l 1,8,-1
 457 522 l 1,9,-1
 795 186 l 1,10,-1
 752 143 l 1,11,-1
 375 522 l 1,6,-1
EndSplineSet
EndChar

StartChar: logicalnot
Encoding: 172 172 117
Width: 802
GlyphClass: 2
Flags: W
LayerCount: 2
Fore
SplineSet
131 725 m 1,0,-1
 131 778 l 1,1,-1
 651 778 l 1,2,-1
 651 725 l 1,3,-1
 131 725 l 1,0,-1
205 168 m 0,4,5
 205 295 205 295 328 342 c 1,6,7
 283 356 283 356 256 399 c 0,8,9
 227 446 227 446 227 494 c 0,10,11
 227 568 227 568 274.5 615 c 128,-1,12
 322 662 322 662 397 662 c 0,13,14
 471 662 471 662 518 614.5 c 128,-1,15
 565 567 565 567 565 494 c 0,16,17
 565 443 565 443 539 401 c 0,18,19
 508 350 508 350 463 342 c 1,20,21
 590 295 590 295 590 168 c 0,22,23
 590 86 590 86 537 33 c 0,24,25
 484 -18 484 -18 397 -18 c 0,26,27
 309 -18 309 -18 256 35 c 0,28,29
 205 86 205 86 205 168 c 0,4,5
242 168 m 0,30,31
 242 100 242 100 287 61 c 0,32,33
 332 18 332 18 397 18 c 0,34,35
 460 18 460 18 508 61 c 0,36,37
 553 105 553 105 553 168 c 256,38,39
 553 231 553 231 508 276.5 c 128,-1,40
 463 322 463 322 397 322 c 0,41,42
 334 322 334 322 289 276 c 0,43,44
 242 229 242 229 242 168 c 0,30,31
264 494 m 256,45,46
 264 439 264 439 303 401 c 0,47,48
 342 362 342 362 397 362 c 256,49,50
 452 362 452 362 489 399 c 0,51,52
 528 439 528 439 528 494 c 256,53,54
 528 549 528 549 492 586 c 0,55,56
 453 625 453 625 397 625 c 0,57,58
 342 625 342 625 303 588 c 0,59,60
 264 549 264 549 264 494 c 256,45,46
272 1479 m 1,61,-1
 297 1518 l 1,62,-1
 420 1518 l 1,63,-1
 420 858 l 1,64,-1
 383 858 l 1,65,-1
 383 1479 l 1,66,-1
 272 1479 l 1,61,-1
EndSplineSet
EndChar

StartChar: uni00AD
Encoding: 173 173 118
Width: 555
GlyphClass: 2
Flags: W
LayerCount: 2
Fore
SplineSet
37 500 m 1,0,-1
 37 584 l 1,1,-1
 469 584 l 1,2,-1
 469 500 l 1,3,-1
 37 500 l 1,0,-1
EndSplineSet
EndChar

StartChar: registered
Encoding: 174 174 119
Width: 817
GlyphClass: 2
Flags: W
LayerCount: 2
Fore
SplineSet
84 1104 m 256,0,1
 84 1239 84 1239 178 1333 c 128,-1,2
 272 1427 272 1427 408 1427 c 0,3,4
 543 1427 543 1427 637 1333 c 128,-1,5
 731 1239 731 1239 731 1104 c 256,6,7
 731 969 731 969 637 874.5 c 128,-1,8
 543 780 543 780 408 780 c 256,9,10
 273 780 273 780 178.5 874.5 c 128,-1,11
 84 969 84 969 84 1104 c 256,0,1
115 1104 m 256,12,13
 115 987 115 987 203 899 c 128,-1,14
 291 811 291 811 408 811 c 256,15,16
 525 811 525 811 612.5 899 c 128,-1,17
 700 987 700 987 700 1104 c 256,18,19
 700 1221 700 1221 612 1309 c 128,-1,20
 524 1397 524 1397 408 1397 c 0,21,22
 291 1397 291 1397 203 1309 c 128,-1,23
 115 1221 115 1221 115 1104 c 256,12,13
295 926 m 1,24,-1
 295 1298 l 1,25,-1
 438 1298 l 2,26,27
 485 1298 485 1298 512 1272 c 0,28,29
 543 1243 543 1243 543 1198 c 0,30,31
 543 1098 543 1098 438 1098 c 2,32,-1
 422 1098 l 1,33,-1
 543 926 l 1,34,-1
 506 926 l 1,35,-1
 387 1098 l 1,36,-1
 324 1098 l 1,37,-1
 324 926 l 1,38,-1
 295 926 l 1,24,-1
324 1126 m 1,39,-1
 440 1126 l 2,40,41
 514 1126 514 1126 514 1198 c 256,42,43
 514 1270 514 1270 440 1270 c 2,44,-1
 324 1270 l 1,45,-1
 324 1126 l 1,39,-1
EndSplineSet
EndChar

StartChar: macron
Encoding: 175 175 120
Width: 804
GlyphClass: 2
Flags: W
LayerCount: 2
Fore
SplineSet
117 971 m 1,0,-1
 117 1044 l 1,1,-1
 700 1044 l 1,2,-1
 700 971 l 1,3,-1
 117 971 l 1,0,-1
EndSplineSet
EndChar

StartChar: degree
Encoding: 176 176 121
Width: 434
GlyphClass: 2
Flags: W
LayerCount: 2
Fore
SplineSet
47 1260 m 256,0,1
 47 1328 47 1328 98.5 1379 c 128,-1,2
 150 1430 150 1430 217 1430 c 0,3,4
 285 1430 285 1430 336 1379 c 128,-1,5
 387 1328 387 1328 387 1260 c 256,6,7
 387 1192 387 1192 336 1141 c 128,-1,8
 285 1090 285 1090 217 1090 c 256,9,10
 149 1090 149 1090 98 1141 c 128,-1,11
 47 1192 47 1192 47 1260 c 256,0,1
90 1262 m 256,12,13
 90 1213 90 1213 129 1174 c 128,-1,14
 168 1135 168 1135 217 1135 c 256,15,16
 266 1135 266 1135 305 1174 c 128,-1,17
 344 1213 344 1213 344 1262 c 256,18,19
 344 1311 344 1311 305 1350 c 128,-1,20
 266 1389 266 1389 217 1389 c 256,21,22
 168 1389 168 1389 129 1350 c 128,-1,23
 90 1311 90 1311 90 1262 c 256,12,13
EndSplineSet
EndChar

StartChar: plusminus
Encoding: 177 177 122
Width: 794
GlyphClass: 2
Flags: W
LayerCount: 2
Fore
SplineSet
137 291 m 1,0,-1
 137 375 l 1,1,-1
 664 375 l 1,2,-1
 664 291 l 1,3,-1
 137 291 l 1,0,-1
137 662 m 1,4,-1
 137 745 l 1,5,-1
 346 745 l 1,6,-1
 346 954 l 1,7,-1
 440 954 l 1,8,-1
 440 745 l 1,9,-1
 649 745 l 1,10,-1
 649 662 l 1,11,-1
 440 662 l 1,12,-1
 440 453 l 1,13,-1
 346 453 l 1,14,-1
 346 662 l 1,15,-1
 137 662 l 1,4,-1
EndSplineSet
EndChar

StartChar: uni00B2
Encoding: 178 178 123
Width: 802
GlyphClass: 2
Flags: W
LayerCount: 2
Fore
SplineSet
209 856 m 1,0,-1
 530 1229 l 1,1,2
 569 1288 569 1288 569 1343 c 0,3,4
 569 1400 569 1400 522 1441.5 c 128,-1,5
 475 1483 475 1483 416 1483 c 0,6,7
 303 1483 303 1483 264 1364 c 1,8,-1
 223 1364 l 1,9,10
 233 1434 233 1434 289 1475 c 0,11,12
 346 1520 346 1520 416 1520 c 0,13,14
 492 1520 492 1520 551 1470 c 0,15,16
 608 1421 608 1421 608 1343 c 0,17,18
 608 1280 608 1280 569 1214 c 0,19,20
 553 1189 553 1189 481 1108 c 2,21,-1
 291 893 l 1,22,-1
 606 893 l 1,23,-1
 606 856 l 1,24,-1
 209 856 l 1,0,-1
EndSplineSet
EndChar

StartChar: uni00B3
Encoding: 179 179 124
Width: 802
GlyphClass: 2
Flags: W
LayerCount: 2
Fore
SplineSet
227 999 m 1,0,-1
 268 999 l 1,1,2
 280 962 280 962 317 928 c 0,3,4
 356 893 356 893 408 893 c 0,5,6
 467 893 467 893 512 934 c 0,7,8
 555 977 555 977 555 1038 c 0,9,10
 555 1114 555 1114 502 1155 c 0,11,12
 479 1173 479 1173 461 1180 c 2,13,-1
 418 1188 l 1,14,-1
 379 1188 l 1,15,-1
 379 1241 l 1,16,-1
 418 1241 l 2,17,18
 477 1241 477 1241 512 1276 c 1,19,-1
 537 1315 l 1,20,-1
 545 1366 l 1,21,22
 545 1423 545 1423 508 1458 c 0,23,24
 471 1495 471 1495 414 1495 c 0,25,26
 299 1495 299 1495 281 1378 c 1,27,-1
 238 1378 l 1,28,29
 244 1452 244 1452 293 1491 c 0,30,31
 342 1534 342 1534 414 1534 c 0,32,33
 488 1534 488 1534 539 1489 c 128,-1,34
 590 1444 590 1444 590 1366 c 0,35,36
 590 1247 590 1247 467 1214 c 1,37,38
 596 1177 596 1177 596 1038 c 0,39,40
 596 956 596 956 543 907 c 0,41,42
 492 856 492 856 408 856 c 0,43,44
 267 856 267 856 227 999 c 1,0,-1
EndSplineSet
EndChar

StartChar: acute
Encoding: 180 180 125
Width: 835
GlyphClass: 2
Flags: W
LayerCount: 2
Fore
SplineSet
319 1010 m 1,0,-1
 592 1282 l 1,1,-1
 641 1233 l 1,2,-1
 369 961 l 1,3,-1
 319 1010 l 1,0,-1
EndSplineSet
EndChar

StartChar: uni00B5
Encoding: 181 181 126
Width: 1607
GlyphClass: 2
Flags: W
LayerCount: 2
Fore
SplineSet
125 0 m 1,0,-1
 842 829 l 1,1,2
 928 952 928 952 928 1085 c 0,3,4
 928 1214 928 1214 825 1305 c 0,5,6
 723 1393 723 1393 588 1393 c 0,7,8
 422 1393 422 1393 328 1286 c 0,9,10
 271 1223 271 1223 248 1128 c 1,11,-1
 156 1128 l 1,12,13
 170 1234 170 1234 262 1339 c 0,14,15
 385 1474 385 1474 588 1475 c 0,16,17
 762 1475 762 1475 887 1366 c 0,18,19
 1012 1259 1012 1259 1012 1085 c 0,20,21
 1012 907 1012 907 879 735 c 0,22,23
 861 712 861 712 823.5 668.5 c 128,-1,24
 786 625 786 625 729 559 c 2,25,-1
 309 84 l 1,26,-1
 1010 84 l 1,27,-1
 1010 0 l 1,28,-1
 125 0 l 1,0,-1
354 911 m 0,29,30
 354 979 354 979 405.5 1030 c 128,-1,31
 457 1081 457 1081 524 1081 c 0,32,33
 592 1081 592 1081 643 1030 c 128,-1,34
 694 979 694 979 694 911 c 256,35,36
 694 843 694 843 643 792 c 128,-1,37
 592 741 592 741 524 741 c 256,38,39
 456 741 456 741 405 792.5 c 128,-1,40
 354 844 354 844 354 911 c 0,29,30
397 913 m 0,41,42
 397 864 397 864 436 825 c 128,-1,43
 475 786 475 786 524 786 c 256,44,45
 573 786 573 786 612 825 c 128,-1,46
 651 864 651 864 651 913 c 256,47,48
 651 962 651 962 612 1001 c 128,-1,49
 573 1040 573 1040 524 1040 c 256,50,51
 475 1040 475 1040 436 1001.5 c 128,-1,52
 397 963 397 963 397 913 c 0,41,42
500 879 m 256,53,54
 500 897 500 897 513 910.5 c 128,-1,55
 526 924 526 924 545 924 c 0,56,57
 563 924 563 924 576.5 910.5 c 128,-1,58
 590 897 590 897 590 879 c 256,59,60
 590 861 590 861 576.5 847.5 c 128,-1,61
 563 834 563 834 545 834 c 256,62,63
 527 834 527 834 513.5 847.5 c 128,-1,64
 500 861 500 861 500 879 c 256,53,54
760 -264 m 1,65,-1
 803 -215 l 1,66,67
 883 -295 883 -295 989 -295 c 0,68,69
 1087 -295 1087 -295 1163 -219 c 1,70,-1
 1200 -264 l 1,71,72
 1122 -354 1122 -354 981 -354 c 0,73,74
 844 -354 844 -354 760 -264 c 1,65,-1
1092 911 m 0,75,76
 1092 979 1092 979 1143 1030 c 128,-1,77
 1194 1081 1194 1081 1262 1081 c 256,78,79
 1330 1081 1330 1081 1381 1030 c 128,-1,80
 1432 979 1432 979 1432 911 c 256,81,82
 1432 843 1432 843 1380.5 792 c 128,-1,83
 1329 741 1329 741 1262 741 c 0,84,85
 1194 741 1194 741 1143 792.5 c 128,-1,86
 1092 844 1092 844 1092 911 c 0,75,76
1135 913 m 0,87,88
 1135 864 1135 864 1173.5 825 c 128,-1,89
 1212 786 1212 786 1262 786 c 0,90,91
 1311 786 1311 786 1350 825 c 128,-1,92
 1389 864 1389 864 1389 913 c 256,93,94
 1389 962 1389 962 1350 1001 c 128,-1,95
 1311 1040 1311 1040 1262 1040 c 256,96,97
 1213 1040 1213 1040 1174 1001.5 c 128,-1,98
 1135 963 1135 963 1135 913 c 0,87,88
1239 872 m 256,99,100
 1239 890 1239 890 1252.5 904 c 128,-1,101
 1266 918 1266 918 1284 918 c 256,102,103
 1302 918 1302 918 1315.5 904.5 c 128,-1,104
 1329 891 1329 891 1329 872 c 0,105,106
 1329 854 1329 854 1316 840.5 c 128,-1,107
 1303 827 1303 827 1284 827 c 0,108,109
 1266 827 1266 827 1252.5 840.5 c 128,-1,110
 1239 854 1239 854 1239 872 c 256,99,100
EndSplineSet
EndChar

StartChar: paragraph
Encoding: 182 182 127
Width: 1034
GlyphClass: 2
Flags: W
LayerCount: 2
Fore
SplineSet
100 1096 m 0,0,1
 100 1260 100 1260 217 1364 c 0,2,3
 328 1462 328 1462 498 1462 c 2,4,-1
 719 1462 l 1,5,-1
 719 -125 l 1,6,-1
 635 -125 l 1,7,-1
 635 731 l 1,8,-1
 498 731 l 2,9,10
 326 731 326 731 213 829.5 c 128,-1,11
 100 928 100 928 100 1096 c 0,0,1
829 -125 m 1,12,-1
 829 1462 l 1,13,-1
 913 1462 l 1,14,-1
 913 -125 l 1,15,-1
 829 -125 l 1,12,-1
EndSplineSet
EndChar

StartChar: periodcentered
Encoding: 183 183 128
Width: 565
GlyphClass: 2
Flags: W
LayerCount: 2
Fore
SplineSet
141 664 m 0,0,1
 141 719 141 719 209 731 c 1,2,3
 260 732 260 732 276 664 c 1,4,5
 276 596 276 596 209 596 c 0,6,7
 186 596 186 596 162 614 c 0,8,9
 144 632 144 632 141 664 c 0,0,1
EndSplineSet
EndChar

StartChar: cedilla
Encoding: 184 184 129
Width: 532
GlyphClass: 2
Flags: W
LayerCount: 2
Fore
SplineSet
147 -176 m 1,0,1
 155 -184 155 -184 166.5 -191.5 c 128,-1,2
 178 -199 178 -199 193 -207 c 2,3,-1
 242 -221 l 1,4,5
 299 -221 299 -221 299 -172 c 0,6,7
 299 -129 299 -129 225 -100 c 1,8,-1
 258 0 l 1,9,-1
 350 0 l 1,10,-1
 322 -84 l 1,11,12
 399 -109 399 -109 399 -193 c 0,13,14
 399 -244 399 -244 366.5 -276.5 c 128,-1,15
 334 -309 334 -309 281 -309 c 0,16,17
 205 -309 205 -309 147 -258 c 1,18,-1
 147 -176 l 1,0,1
EndSplineSet
EndChar

StartChar: uni00B9
Encoding: 185 185 130
Width: 802
GlyphClass: 2
Flags: W
LayerCount: 2
Fore
SplineSet
301 1479 m 1,0,-1
 326 1518 l 1,1,-1
 449 1518 l 1,2,-1
 449 858 l 1,3,-1
 412 858 l 1,4,-1
 412 1479 l 1,5,-1
 301 1479 l 1,0,-1
EndSplineSet
EndChar

StartChar: ordmasculine
Encoding: 186 186 131
Width: 763
GlyphClass: 2
Flags: W
LayerCount: 2
Fore
SplineSet
94 688 m 1,0,-1
 94 748 l 1,1,-1
 672 748 l 1,2,-1
 672 688 l 1,3,-1
 94 688 l 1,0,-1
121 1130 m 0,4,5
 121 1241 121 1241 196.5 1317 c 128,-1,6
 272 1393 272 1393 383 1393 c 256,7,8
 494 1393 494 1393 569.5 1317 c 128,-1,9
 645 1241 645 1241 645 1130 c 256,10,11
 645 1019 645 1019 569.5 943.5 c 128,-1,12
 494 868 494 868 383 868 c 256,13,14
 272 868 272 868 196.5 944 c 128,-1,15
 121 1020 121 1020 121 1130 c 0,4,5
170 1130 m 0,16,17
 170 1044 170 1044 233.5 981 c 128,-1,18
 297 918 297 918 383 918 c 256,19,20
 469 918 469 918 532.5 981 c 128,-1,21
 596 1044 596 1044 596 1130 c 256,22,23
 596 1216 596 1216 532.5 1279.5 c 128,-1,24
 469 1343 469 1343 383 1343 c 256,25,26
 297 1343 297 1343 233.5 1280 c 128,-1,27
 170 1217 170 1217 170 1130 c 0,16,17
EndSplineSet
EndChar

StartChar: guillemotright
Encoding: 187 187 132
Width: 899
GlyphClass: 2
Flags: W
LayerCount: 2
Fore
SplineSet
111 866 m 1,0,-1
 152 909 l 1,1,-1
 539 522 l 1,2,-1
 162 143 l 1,3,-1
 119 186 l 1,4,-1
 455 522 l 1,5,-1
 111 866 l 1,0,-1
418 866 m 1,6,-1
 459 909 l 1,7,-1
 846 522 l 1,8,-1
 469 143 l 1,9,-1
 426 186 l 1,10,-1
 762 522 l 1,11,-1
 418 866 l 1,6,-1
EndSplineSet
EndChar

StartChar: onequarter
Encoding: 188 188 133
Width: 802
GlyphClass: 2
Flags: W
LayerCount: 2
Fore
SplineSet
156 123 m 1,0,-1
 532 666 l 1,1,-1
 532 160 l 1,2,-1
 590 160 l 1,3,-1
 590 123 l 1,4,-1
 532 123 l 1,5,-1
 532 -2 l 1,6,-1
 494 -2 l 1,7,-1
 494 123 l 1,8,-1
 156 123 l 1,0,-1
162 725 m 1,9,-1
 162 778 l 1,10,-1
 682 778 l 1,11,-1
 682 725 l 1,12,-1
 162 725 l 1,9,-1
223 160 m 1,13,-1
 494 160 l 1,14,-1
 494 543 l 1,15,-1
 223 160 l 1,13,-1
301 1479 m 1,16,-1
 326 1518 l 1,17,-1
 449 1518 l 1,18,-1
 449 858 l 1,19,-1
 412 858 l 1,20,-1
 412 1479 l 1,21,-1
 301 1479 l 1,16,-1
EndSplineSet
EndChar

StartChar: onehalf
Encoding: 189 189 134
Width: 802
GlyphClass: 2
Flags: W
LayerCount: 2
Fore
SplineSet
166 725 m 1,0,-1
 166 778 l 1,1,-1
 686 778 l 1,2,-1
 686 725 l 1,3,-1
 166 725 l 1,0,-1
217 0 m 1,4,-1
 539 373 l 1,5,6
 578 432 578 432 578 487 c 0,7,8
 578 544 578 544 530.5 585.5 c 128,-1,9
 483 627 483 627 424 627 c 0,10,11
 311 627 311 627 272 508 c 1,12,-1
 231 508 l 1,13,14
 241 578 241 578 297 618 c 0,15,16
 354 663 354 663 424 664 c 0,17,18
 500 664 500 664 559 614 c 0,19,20
 616 565 616 565 616 487 c 0,21,22
 616 424 616 424 578 358 c 0,23,24
 562 333 562 333 489 252 c 2,25,-1
 299 37 l 1,26,-1
 614 37 l 1,27,-1
 614 0 l 1,28,-1
 217 0 l 1,4,-1
313 1479 m 1,29,-1
 338 1518 l 1,30,-1
 461 1518 l 1,31,-1
 461 858 l 1,32,-1
 424 858 l 1,33,-1
 424 1479 l 1,34,-1
 313 1479 l 1,29,-1
EndSplineSet
EndChar

StartChar: threequarters
Encoding: 190 190 135
Width: 802
GlyphClass: 2
Flags: W
LayerCount: 2
Fore
SplineSet
147 725 m 1,0,-1
 147 778 l 1,1,-1
 670 778 l 1,2,-1
 670 725 l 1,3,-1
 147 725 l 1,0,-1
164 123 m 1,4,-1
 541 666 l 1,5,-1
 541 160 l 1,6,-1
 598 160 l 1,7,-1
 598 123 l 1,8,-1
 541 123 l 1,9,-1
 541 -2 l 1,10,-1
 502 -2 l 1,11,-1
 502 123 l 1,12,-1
 164 123 l 1,4,-1
227 999 m 1,13,-1
 268 999 l 1,14,15
 280 962 280 962 317 928 c 0,16,17
 356 893 356 893 408 893 c 0,18,19
 467 893 467 893 512 934 c 0,20,21
 555 977 555 977 555 1038 c 0,22,23
 555 1114 555 1114 502 1155 c 0,24,25
 479 1173 479 1173 461 1180 c 2,26,-1
 418 1188 l 1,27,-1
 379 1188 l 1,28,-1
 379 1241 l 1,29,-1
 418 1241 l 2,30,31
 477 1241 477 1241 512 1276 c 1,32,-1
 537 1315 l 1,33,-1
 545 1366 l 1,34,35
 545 1423 545 1423 508 1458 c 0,36,37
 471 1495 471 1495 414 1495 c 0,38,39
 299 1495 299 1495 281 1378 c 1,40,-1
 238 1378 l 1,41,42
 244 1452 244 1452 293 1491 c 0,43,44
 342 1534 342 1534 414 1534 c 0,45,46
 488 1534 488 1534 539 1489 c 128,-1,47
 590 1444 590 1444 590 1366 c 0,48,49
 590 1247 590 1247 467 1214 c 1,50,51
 596 1177 596 1177 596 1038 c 0,52,53
 596 956 596 956 543 907 c 0,54,55
 492 856 492 856 408 856 c 0,56,57
 267 856 267 856 227 999 c 1,13,-1
231 160 m 1,58,-1
 502 160 l 1,59,-1
 502 543 l 1,60,-1
 231 160 l 1,58,-1
EndSplineSet
EndChar

StartChar: questiondown
Encoding: 191 191 136
Width: 960
GlyphClass: 2
Flags: W
LayerCount: 2
Fore
SplineSet
76 147 m 0,0,1
 76 272 76 272 168 377 c 0,2,3
 178 391 178 391 221 424 c 128,-1,4
 264 457 264 457 338 510 c 2,5,-1
 510 635 l 2,6,7
 612 709 612 709 612 815 c 0,8,9
 612 864 612 864 577.5 893 c 128,-1,10
 543 922 543 922 492 922 c 0,11,12
 443 922 443 922 418 911 c 1,13,14
 389 905 389 905 362 879 c 1,15,-1
 313 946 l 1,16,17
 374 1007 374 1007 492 1008 c 0,18,19
 580 1008 580 1008 641 956 c 0,20,21
 702 903 702 903 702 815 c 0,22,23
 702 682 702 682 559 575 c 2,24,-1
 385 446 l 2,25,26
 326 401 326 401 287 370.5 c 128,-1,27
 248 340 248 340 231 319 c 0,28,29
 159 235 159 235 160 147 c 0,30,31
 160 32 160 32 256 -29 c 0,32,33
 338 -82 338 -82 457 -82 c 0,34,35
 580 -82 580 -82 674 -4 c 0,36,37
 703 21 703 21 731.5 57.5 c 128,-1,38
 760 94 760 94 788 143 c 1,39,-1
 866 109 l 1,40,41
 753 -163 753 -163 457 -164 c 0,42,43
 289 -164 289 -164 190 -92 c 0,44,45
 75 -12 75 -12 76 147 c 0,0,1
430 1253 m 1,46,47
 430 1312 430 1312 502 1325 c 1,48,49
 561 1325 561 1325 573 1253 c 1,50,51
 573 1194 573 1194 502 1182 c 1,52,53
 443 1182 443 1182 430 1253 c 1,46,47
EndSplineSet
EndChar

StartChar: Agrave
Encoding: 192 192 137
Width: 1296
GlyphClass: 2
Flags: W
LayerCount: 2
Fore
SplineSet
63 0 m 1,0,-1
 647 1509 l 1,1,-1
 1233 0 l 1,2,-1
 1149 0 l 1,3,-1
 981 438 l 1,4,-1
 315 438 l 1,5,-1
 145 0 l 1,6,-1
 63 0 l 1,0,-1
348 522 m 1,7,-1
 946 522 l 1,8,-1
 647 1296 l 1,9,-1
 348 522 l 1,7,-1
414 1784 m 1,10,-1
 455 1829 l 1,11,-1
 702 1581 l 1,12,-1
 655 1540 l 1,13,-1
 414 1784 l 1,10,-1
EndSplineSet
EndChar

StartChar: Aacute
Encoding: 193 193 138
Width: 1296
GlyphClass: 2
Flags: W
LayerCount: 2
Fore
SplineSet
63 0 m 1,0,-1
 647 1509 l 1,1,-1
 1233 0 l 1,2,-1
 1149 0 l 1,3,-1
 981 438 l 1,4,-1
 315 438 l 1,5,-1
 145 0 l 1,6,-1
 63 0 l 1,0,-1
348 522 m 1,7,-1
 946 522 l 1,8,-1
 647 1296 l 1,9,-1
 348 522 l 1,7,-1
604 1583 m 1,10,-1
 831 1812 l 1,11,-1
 872 1772 l 1,12,-1
 643 1544 l 1,13,-1
 604 1583 l 1,10,-1
EndSplineSet
EndChar

StartChar: Acircumflex
Encoding: 194 194 139
Width: 1296
GlyphClass: 2
Flags: W
LayerCount: 2
Fore
SplineSet
63 0 m 1,0,-1
 647 1509 l 1,1,-1
 1233 0 l 1,2,-1
 1149 0 l 1,3,-1
 981 438 l 1,4,-1
 315 438 l 1,5,-1
 145 0 l 1,6,-1
 63 0 l 1,0,-1
348 522 m 1,7,-1
 946 522 l 1,8,-1
 647 1296 l 1,9,-1
 348 522 l 1,7,-1
403 1550 m 1,10,-1
 651 1798 l 1,11,-1
 899 1550 l 1,12,-1
 856 1507 l 1,13,-1
 651 1710 l 1,14,-1
 446 1507 l 1,15,-1
 403 1550 l 1,10,-1
EndSplineSet
EndChar

StartChar: Atilde
Encoding: 195 195 140
Width: 1286
GlyphClass: 2
Flags: W
LayerCount: 2
Fore
SplineSet
63 0 m 1,0,-1
 647 1509 l 1,1,-1
 1233 0 l 1,2,-1
 1149 0 l 1,3,-1
 981 438 l 1,4,-1
 315 438 l 1,5,-1
 145 0 l 1,6,-1
 63 0 l 1,0,-1
317 1593 m 1,7,8
 374 1697 374 1697 512 1698 c 0,9,10
 563 1698 563 1698 618 1677 c 0,11,12
 626 1673 626 1673 634.5 1669 c 128,-1,13
 643 1665 643 1665 653 1659 c 2,14,-1
 713 1634 l 1,15,-1
 784 1626 l 1,16,-1
 831 1626 l 1,17,-1
 856 1634 l 2,18,19
 872 1640 872 1640 915 1683 c 1,20,-1
 975 1638 l 1,21,-1
 936 1597 l 1,22,-1
 903 1571 l 1,23,24
 856 1542 856 1542 793 1542 c 0,25,26
 697 1542 697 1542 635 1579 c 1,27,-1
 575 1604 l 2,28,29
 546 1616 546 1616 502 1616 c 0,30,31
 426 1616 426 1616 375 1548 c 1,32,-1
 317 1593 l 1,7,8
348 522 m 1,33,-1
 946 522 l 1,34,-1
 647 1296 l 1,35,-1
 348 522 l 1,33,-1
EndSplineSet
EndChar

StartChar: Adieresis
Encoding: 196 196 141
Width: 1286
GlyphClass: 2
Flags: W
LayerCount: 2
Fore
SplineSet
63 0 m 1,0,-1
 647 1509 l 1,1,-1
 1233 0 l 1,2,-1
 1149 0 l 1,3,-1
 981 438 l 1,4,-1
 315 438 l 1,5,-1
 145 0 l 1,6,-1
 63 0 l 1,0,-1
348 522 m 1,7,-1
 946 522 l 1,8,-1
 647 1296 l 1,9,-1
 348 522 l 1,7,-1
432 1630 m 0,10,11
 432 1685 432 1685 500 1698 c 1,12,13
 551 1698 551 1698 567 1630 c 1,14,15
 567 1562 567 1562 500 1563 c 0,16,17
 477 1563 477 1563 453 1581 c 0,18,19
 435 1599 435 1599 432 1630 c 0,10,11
713 1630 m 0,20,21
 713 1685 713 1685 780 1698 c 1,22,23
 832 1698 832 1698 848 1630 c 1,24,25
 848 1562 848 1562 780 1563 c 0,26,27
 757 1563 757 1563 733 1581 c 0,28,29
 715 1599 715 1599 713 1630 c 0,20,21
EndSplineSet
EndChar

StartChar: Aring
Encoding: 197 197 142
Width: 1296
GlyphClass: 2
Flags: W
LayerCount: 2
Fore
SplineSet
63 0 m 1,0,-1
 647 1509 l 1,1,-1
 1233 0 l 1,2,-1
 1149 0 l 1,3,-1
 981 438 l 1,4,-1
 315 438 l 1,5,-1
 145 0 l 1,6,-1
 63 0 l 1,0,-1
348 522 m 1,7,-1
 946 522 l 1,8,-1
 647 1296 l 1,9,-1
 348 522 l 1,7,-1
508 1665 m 256,10,11
 508 1722 508 1722 549 1763 c 128,-1,12
 590 1804 590 1804 647 1804 c 256,13,14
 704 1804 704 1804 745 1763 c 128,-1,15
 786 1722 786 1722 786 1665 c 256,16,17
 786 1608 786 1608 745.5 1567 c 128,-1,18
 705 1526 705 1526 647 1526 c 0,19,20
 590 1526 590 1526 549 1567 c 128,-1,21
 508 1608 508 1608 508 1665 c 256,10,11
545 1667 m 0,22,23
 545 1622 545 1622 573 1593 c 0,24,25
 600 1562 600 1562 647 1563 c 0,26,27
 686 1563 686 1563 717 1595 c 0,28,29
 750 1628 750 1628 750 1667 c 0,30,31
 750 1708 750 1708 719 1738.5 c 128,-1,32
 688 1769 688 1769 647 1769 c 0,33,34
 604 1769 604 1769 575 1741 c 0,35,36
 544 1710 544 1710 545 1667 c 0,22,23
EndSplineSet
EndChar

StartChar: AE
Encoding: 198 198 143
Width: 1515
GlyphClass: 2
Flags: W
LayerCount: 2
Fore
SplineSet
59 0 m 1,0,-1
 711 1462 l 1,1,-1
 1405 1462 l 1,2,-1
 1405 1378 l 1,3,-1
 786 1378 l 1,4,-1
 786 846 l 1,5,-1
 1405 846 l 1,6,-1
 1405 762 l 1,7,-1
 784 762 l 1,8,-1
 784 84 l 1,9,-1
 1405 84 l 1,10,-1
 1405 0 l 1,11,-1
 700 0 l 1,12,-1
 700 670 l 1,13,-1
 440 670 l 1,14,-1
 141 0 l 1,15,-1
 59 0 l 1,0,-1
479 752 m 1,16,-1
 700 752 l 1,17,-1
 700 1249 l 1,18,-1
 479 752 l 1,16,-1
EndSplineSet
EndChar

StartChar: Ccedilla
Encoding: 199 199 144
Width: 1437
GlyphClass: 2
Flags: W
LayerCount: 2
Fore
SplineSet
102 731 m 0,0,1
 102 1063 102 1063 311 1272 c 0,2,3
 522 1483 522 1483 854 1483 c 0,4,5
 1042 1483 1042 1483 1194 1427 c 0,6,7
 1284 1392 1284 1392 1368 1327 c 1,8,-1
 1368 1223 l 1,9,10
 1282 1295 1282 1295 1180 1337 c 0,11,12
 1024 1400 1024 1400 854 1401 c 0,13,14
 563 1401 563 1401 374.5 1212.5 c 128,-1,15
 186 1024 186 1024 186 731 c 256,16,17
 186 438 186 438 373 252 c 0,18,19
 561 64 561 64 854 63 c 0,20,21
 1036 63 1036 63 1171 129 c 0,22,23
 1249 168 1249 168 1368 254 c 1,24,-1
 1368 158 l 1,25,-1
 1268 86 l 1,26,-1
 1200 43 l 1,27,28
 1065 -20 1065 -20 883 -20 c 1,29,-1
 860 -78 l 1,30,31
 923 -123 923 -123 924 -186 c 0,32,33
 924 -309 924 -309 799 -309 c 0,34,35
 717 -309 717 -309 659 -252 c 1,36,-1
 692 -184 l 1,37,38
 725 -223 725 -223 774 -223 c 0,39,40
 831 -223 831 -223 831 -174 c 0,41,42
 831 -151 831 -151 811 -126.5 c 128,-1,43
 791 -102 791 -102 764 -96 c 1,44,-1
 797 -20 l 1,45,46
 518 -20 518 -20 299 205 c 0,47,48
 102 410 102 410 102 731 c 0,0,1
EndSplineSet
EndChar

StartChar: Egrave
Encoding: 200 200 145
Width: 968
GlyphClass: 2
Flags: W
LayerCount: 2
Fore
SplineSet
145 0 m 1,0,-1
 145 1462 l 1,1,-1
 848 1462 l 1,2,-1
 848 1378 l 1,3,-1
 229 1378 l 1,4,-1
 229 846 l 1,5,-1
 848 846 l 1,6,-1
 848 756 l 1,7,-1
 229 756 l 1,8,-1
 229 84 l 1,9,-1
 848 84 l 1,10,-1
 848 0 l 1,11,-1
 145 0 l 1,0,-1
254 1784 m 1,12,-1
 297 1829 l 1,13,-1
 543 1581 l 1,14,-1
 498 1540 l 1,15,-1
 254 1784 l 1,12,-1
EndSplineSet
EndChar

StartChar: Eacute
Encoding: 201 201 146
Width: 968
GlyphClass: 2
Flags: W
LayerCount: 2
Fore
SplineSet
145 0 m 1,0,-1
 145 1462 l 1,1,-1
 848 1462 l 1,2,-1
 848 1378 l 1,3,-1
 229 1378 l 1,4,-1
 229 846 l 1,5,-1
 848 846 l 1,6,-1
 848 756 l 1,7,-1
 229 756 l 1,8,-1
 229 84 l 1,9,-1
 848 84 l 1,10,-1
 848 0 l 1,11,-1
 145 0 l 1,0,-1
453 1579 m 1,12,-1
 682 1817 l 1,13,-1
 725 1772 l 1,14,-1
 496 1544 l 1,15,-1
 453 1579 l 1,12,-1
EndSplineSet
EndChar

StartChar: Ecircumflex
Encoding: 202 202 147
Width: 968
GlyphClass: 2
Flags: W
LayerCount: 2
Fore
SplineSet
145 0 m 1,0,-1
 145 1462 l 1,1,-1
 848 1462 l 1,2,-1
 848 1378 l 1,3,-1
 229 1378 l 1,4,-1
 229 846 l 1,5,-1
 848 846 l 1,6,-1
 848 756 l 1,7,-1
 229 756 l 1,8,-1
 229 84 l 1,9,-1
 848 84 l 1,10,-1
 848 0 l 1,11,-1
 145 0 l 1,0,-1
258 1591 m 1,12,-1
 506 1839 l 1,13,-1
 752 1591 l 1,14,-1
 711 1548 l 1,15,-1
 506 1751 l 1,16,-1
 301 1548 l 1,17,-1
 258 1591 l 1,12,-1
EndSplineSet
EndChar

StartChar: Edieresis
Encoding: 203 203 148
Width: 968
GlyphClass: 2
Flags: W
LayerCount: 2
Fore
SplineSet
145 0 m 1,0,-1
 145 1462 l 1,1,-1
 848 1462 l 1,2,-1
 848 1378 l 1,3,-1
 229 1378 l 1,4,-1
 229 846 l 1,5,-1
 848 846 l 1,6,-1
 848 756 l 1,7,-1
 229 756 l 1,8,-1
 229 84 l 1,9,-1
 848 84 l 1,10,-1
 848 0 l 1,11,-1
 145 0 l 1,0,-1
293 1630 m 0,12,13
 293 1685 293 1685 360 1698 c 1,14,15
 412 1698 412 1698 428 1630 c 1,16,17
 428 1562 428 1562 360 1563 c 0,18,19
 337 1563 337 1563 313 1581 c 0,20,21
 295 1599 295 1599 293 1630 c 0,12,13
573 1630 m 0,22,23
 573 1685 573 1685 641 1698 c 1,24,25
 693 1698 693 1698 709 1630 c 1,26,27
 709 1562 709 1562 641 1563 c 0,28,29
 618 1563 618 1563 594 1581 c 0,30,31
 576 1599 576 1599 573 1630 c 0,22,23
EndSplineSet
EndChar

StartChar: Igrave
Encoding: 204 204 149
Width: 393
GlyphClass: 2
Flags: W
LayerCount: 2
Fore
SplineSet
-25 1784 m 1,0,-1
 18 1829 l 1,1,-1
 264 1581 l 1,2,-1
 219 1540 l 1,3,-1
 -25 1784 l 1,0,-1
158 0 m 1,4,-1
 158 1462 l 1,5,-1
 240 1462 l 1,6,-1
 240 0 l 1,7,-1
 158 0 l 1,4,-1
EndSplineSet
EndChar

StartChar: Iacute
Encoding: 205 205 150
Width: 393
GlyphClass: 2
Flags: W
LayerCount: 2
Fore
SplineSet
143 1583 m 1,0,-1
 373 1812 l 1,1,-1
 412 1772 l 1,2,-1
 184 1544 l 1,3,-1
 143 1583 l 1,0,-1
158 0 m 1,4,-1
 158 1462 l 1,5,-1
 240 1462 l 1,6,-1
 240 0 l 1,7,-1
 158 0 l 1,4,-1
EndSplineSet
EndChar

StartChar: Icircumflex
Encoding: 206 206 151
Width: 393
GlyphClass: 2
Flags: W
LayerCount: 2
Fore
SplineSet
-53 1550 m 1,0,-1
 197 1798 l 1,1,-1
 442 1550 l 1,2,-1
 401 1507 l 1,3,-1
 197 1710 l 1,4,-1
 -8 1507 l 1,5,-1
 -53 1550 l 1,0,-1
158 0 m 1,6,-1
 158 1462 l 1,7,-1
 240 1462 l 1,8,-1
 240 0 l 1,9,-1
 158 0 l 1,6,-1
EndSplineSet
EndChar

StartChar: Idieresis
Encoding: 207 207 152
Width: 393
GlyphClass: 2
Flags: W
LayerCount: 2
Fore
SplineSet
-12 1630 m 0,0,1
 -12 1685 -12 1685 55 1698 c 1,2,3
 107 1698 107 1698 123 1630 c 1,4,5
 123 1562 123 1562 55 1563 c 0,6,7
 32 1563 32 1563 8 1581 c 0,8,9
 -10 1599 -10 1599 -12 1630 c 0,0,1
158 0 m 1,10,-1
 158 1462 l 1,11,-1
 240 1462 l 1,12,-1
 240 0 l 1,13,-1
 158 0 l 1,10,-1
268 1630 m 0,14,15
 268 1685 268 1685 336 1698 c 1,16,17
 387 1698 387 1698 403 1630 c 1,18,19
 403 1562 403 1562 336 1563 c 0,20,21
 313 1563 313 1563 289 1581 c 0,22,23
 271 1599 271 1599 268 1630 c 0,14,15
EndSplineSet
EndChar

StartChar: Eth
Encoding: 208 208 153
Width: 1409
GlyphClass: 2
Flags: W
LayerCount: 2
Fore
SplineSet
66 694 m 1,0,-1
 66 778 l 1,1,-1
 156 778 l 1,2,-1
 156 1462 l 1,3,-1
 643 1462 l 2,4,5
 938 1462 938 1462 1122 1241 c 0,6,7
 1296 1034 1296 1034 1296 733 c 0,8,9
 1296 430 1296 430 1124 221 c 0,10,11
 940 0 940 0 643 0 c 2,12,-1
 156 0 l 1,13,-1
 156 694 l 1,14,-1
 66 694 l 1,0,-1
238 84 m 1,15,-1
 643 84 l 2,16,17
 868 84 868 84 1034 252 c 0,18,19
 1212 432 1212 432 1212 733 c 0,20,21
 1212 1001 1212 1001 1063 1184 c 0,22,23
 903 1381 903 1381 643 1380 c 2,24,-1
 238 1380 l 1,25,-1
 238 778 l 1,26,-1
 498 778 l 1,27,-1
 498 694 l 1,28,-1
 238 694 l 1,29,-1
 238 84 l 1,15,-1
EndSplineSet
EndChar

StartChar: Ntilde
Encoding: 209 209 154
Width: 1464
GlyphClass: 2
Flags: W
LayerCount: 2
Fore
SplineSet
158 0 m 1,0,-1
 158 1473 l 1,1,-1
 1249 193 l 1,2,-1
 1249 1462 l 1,3,-1
 1333 1462 l 1,4,-1
 1333 -25 l 1,5,-1
 240 1241 l 1,6,-1
 240 0 l 1,7,-1
 158 0 l 1,0,-1
410 1593 m 1,8,9
 467 1697 467 1697 604 1698 c 0,10,11
 655 1698 655 1698 711 1677 c 0,12,13
 719 1673 719 1673 727 1669 c 128,-1,14
 735 1665 735 1665 745 1659 c 2,15,-1
 805 1634 l 1,16,-1
 877 1626 l 1,17,-1
 924 1626 l 1,18,-1
 948 1634 l 2,19,20
 964 1640 964 1640 1008 1683 c 1,21,-1
 1067 1638 l 1,22,-1
 1028 1597 l 1,23,-1
 995 1571 l 1,24,25
 948 1542 948 1542 885 1542 c 0,26,27
 789 1542 789 1542 727 1579 c 1,28,-1
 668 1604 l 2,29,30
 639 1616 639 1616 594 1616 c 0,31,32
 518 1616 518 1616 467 1548 c 1,33,-1
 410 1593 l 1,8,9
EndSplineSet
EndChar

StartChar: Ograve
Encoding: 210 210 155
Width: 1683
GlyphClass: 2
Flags: W
LayerCount: 2
Fore
SplineSet
102 731 m 256,0,1
 102 1063 102 1063 311 1272 c 0,2,3
 522 1483 522 1483 854 1483 c 0,4,5
 1184 1483 1184 1483 1397 1274 c 0,6,7
 1608 1063 1608 1063 1608 731 c 256,8,9
 1608 399 1608 399 1397 190 c 0,10,11
 1186 -21 1186 -21 854 -20 c 0,12,13
 522 -20 522 -20 313 188 c 0,14,15
 102 399 102 399 102 731 c 256,0,1
186 731 m 256,16,17
 186 438 186 438 373 252 c 0,18,19
 561 64 561 64 854 63 c 0,20,21
 1149 63 1149 63 1337 248 c 0,22,23
 1524 434 1524 434 1524 731 c 0,24,25
 1524 1026 1524 1026 1337 1212 c 0,26,27
 1149 1400 1149 1400 854 1401 c 0,28,29
 563 1401 563 1401 374.5 1212.5 c 128,-1,30
 186 1024 186 1024 186 731 c 256,16,17
596 1784 m 1,31,-1
 637 1829 l 1,32,-1
 885 1581 l 1,33,-1
 838 1540 l 1,34,-1
 596 1784 l 1,31,-1
EndSplineSet
EndChar

StartChar: Oacute
Encoding: 211 211 156
Width: 1683
GlyphClass: 2
Flags: W
LayerCount: 2
Fore
SplineSet
102 731 m 256,0,1
 102 1063 102 1063 311 1272 c 0,2,3
 522 1483 522 1483 854 1483 c 0,4,5
 1184 1483 1184 1483 1397 1274 c 0,6,7
 1608 1063 1608 1063 1608 731 c 256,8,9
 1608 399 1608 399 1397 190 c 0,10,11
 1186 -21 1186 -21 854 -20 c 0,12,13
 522 -20 522 -20 313 188 c 0,14,15
 102 399 102 399 102 731 c 256,0,1
186 731 m 256,16,17
 186 438 186 438 373 252 c 0,18,19
 561 64 561 64 854 63 c 0,20,21
 1149 63 1149 63 1337 248 c 0,22,23
 1524 434 1524 434 1524 731 c 0,24,25
 1524 1026 1524 1026 1337 1212 c 0,26,27
 1149 1400 1149 1400 854 1401 c 0,28,29
 563 1401 563 1401 374.5 1212.5 c 128,-1,30
 186 1024 186 1024 186 731 c 256,16,17
780 1583 m 1,31,-1
 1008 1812 l 1,32,-1
 1047 1772 l 1,33,-1
 819 1544 l 1,34,-1
 780 1583 l 1,31,-1
EndSplineSet
EndChar

StartChar: Ocircumflex
Encoding: 212 212 157
Width: 1683
GlyphClass: 2
Flags: W
LayerCount: 2
Fore
SplineSet
102 731 m 256,0,1
 102 1063 102 1063 311 1272 c 0,2,3
 522 1483 522 1483 854 1483 c 0,4,5
 1184 1483 1184 1483 1397 1274 c 0,6,7
 1608 1063 1608 1063 1608 731 c 256,8,9
 1608 399 1608 399 1397 190 c 0,10,11
 1186 -21 1186 -21 854 -20 c 0,12,13
 522 -20 522 -20 313 188 c 0,14,15
 102 399 102 399 102 731 c 256,0,1
186 731 m 256,16,17
 186 438 186 438 373 252 c 0,18,19
 561 64 561 64 854 63 c 0,20,21
 1149 63 1149 63 1337 248 c 0,22,23
 1524 434 1524 434 1524 731 c 0,24,25
 1524 1026 1524 1026 1337 1212 c 0,26,27
 1149 1400 1149 1400 854 1401 c 0,28,29
 563 1401 563 1401 374.5 1212.5 c 128,-1,30
 186 1024 186 1024 186 731 c 256,16,17
600 1602 m 1,31,-1
 848 1849 l 1,32,-1
 1096 1602 l 1,33,-1
 1053 1559 l 1,34,-1
 848 1761 l 1,35,-1
 643 1559 l 1,36,-1
 600 1602 l 1,31,-1
EndSplineSet
EndChar

StartChar: Otilde
Encoding: 213 213 158
Width: 1683
GlyphClass: 2
Flags: W
LayerCount: 2
Fore
SplineSet
102 731 m 256,0,1
 102 1063 102 1063 311 1272 c 0,2,3
 522 1483 522 1483 854 1483 c 0,4,5
 1184 1483 1184 1483 1397 1274 c 0,6,7
 1608 1063 1608 1063 1608 731 c 256,8,9
 1608 399 1608 399 1397 190 c 0,10,11
 1186 -21 1186 -21 854 -20 c 0,12,13
 522 -20 522 -20 313 188 c 0,14,15
 102 399 102 399 102 731 c 256,0,1
186 731 m 256,16,17
 186 438 186 438 373 252 c 0,18,19
 561 64 561 64 854 63 c 0,20,21
 1149 63 1149 63 1337 248 c 0,22,23
 1524 434 1524 434 1524 731 c 0,24,25
 1524 1026 1524 1026 1337 1212 c 0,26,27
 1149 1400 1149 1400 854 1401 c 0,28,29
 563 1401 563 1401 374.5 1212.5 c 128,-1,30
 186 1024 186 1024 186 731 c 256,16,17
502 1618 m 1,31,32
 559 1722 559 1722 696 1722 c 0,33,34
 747 1722 747 1722 803 1702 c 0,35,36
 811 1698 811 1698 819 1694 c 128,-1,37
 827 1690 827 1690 838 1683 c 2,38,-1
 897 1659 l 1,39,-1
 969 1651 l 1,40,-1
 1016 1651 l 1,41,-1
 1040 1659 l 2,42,43
 1056 1665 1056 1665 1100 1708 c 1,44,-1
 1159 1663 l 1,45,-1
 1120 1622 l 1,46,-1
 1087 1595 l 1,47,48
 1040 1566 1040 1566 977 1567 c 0,49,50
 881 1567 881 1567 819 1604 c 1,51,-1
 760 1628 l 2,52,53
 731 1640 731 1640 686 1640 c 0,54,55
 610 1640 610 1640 559 1573 c 1,56,-1
 502 1618 l 1,31,32
EndSplineSet
EndChar

StartChar: Odieresis
Encoding: 214 214 159
Width: 1683
GlyphClass: 2
Flags: W
LayerCount: 2
Fore
SplineSet
102 731 m 256,0,1
 102 1063 102 1063 311 1272 c 0,2,3
 522 1483 522 1483 854 1483 c 0,4,5
 1184 1483 1184 1483 1397 1274 c 0,6,7
 1608 1063 1608 1063 1608 731 c 256,8,9
 1608 399 1608 399 1397 190 c 0,10,11
 1186 -21 1186 -21 854 -20 c 0,12,13
 522 -20 522 -20 313 188 c 0,14,15
 102 399 102 399 102 731 c 256,0,1
186 731 m 256,16,17
 186 438 186 438 373 252 c 0,18,19
 561 64 561 64 854 63 c 0,20,21
 1149 63 1149 63 1337 248 c 0,22,23
 1524 434 1524 434 1524 731 c 0,24,25
 1524 1026 1524 1026 1337 1212 c 0,26,27
 1149 1400 1149 1400 854 1401 c 0,28,29
 563 1401 563 1401 374.5 1212.5 c 128,-1,30
 186 1024 186 1024 186 731 c 256,16,17
639 1630 m 0,31,32
 639 1685 639 1685 707 1698 c 1,33,34
 758 1698 758 1698 774 1630 c 1,35,36
 774 1562 774 1562 707 1563 c 0,37,38
 684 1563 684 1563 659 1581 c 1,39,40
 641 1599 641 1599 639 1630 c 0,31,32
920 1630 m 0,41,42
 920 1685 920 1685 987 1698 c 1,43,44
 1039 1698 1039 1698 1055 1630 c 1,45,46
 1055 1562 1055 1562 987 1563 c 0,47,48
 964 1563 964 1563 940 1581 c 0,49,50
 922 1599 922 1599 920 1630 c 0,41,42
EndSplineSet
EndChar

StartChar: multiply
Encoding: 215 215 160
Width: 1929
GlyphClass: 2
Flags: W
LayerCount: 2
Fore
SplineSet
14 475 m 1,0,-1
 33 479 l 1,1,-1
 33 1133 l 1,2,-1
 117 1133 l 1,3,-1
 117 1049 l 1,4,5
 142 1090 142 1090 172.5 1108 c 128,-1,6
 203 1126 203 1126 236.5 1132.5 c 128,-1,7
 270 1139 270 1139 309 1138 c 128,-1,8
 348 1137 348 1137 389 1137 c 0,9,10
 412 1137 412 1137 433.5 1141 c 128,-1,11
 455 1145 455 1145 475 1149 c 1,12,13
 403 1163 403 1163 334 1186 c 1,14,-1
 336 1198 l 1,15,16
 371 1194 371 1194 404.5 1188 c 128,-1,17
 438 1182 438 1182 473 1182 c 1,18,-1
 516 1188 l 1,19,20
 473 1202 473 1202 430 1215.5 c 128,-1,21
 387 1229 387 1229 342 1239 c 1,22,23
 336 1245 336 1245 344 1248 c 128,-1,24
 352 1251 352 1251 364.5 1252 c 128,-1,25
 377 1253 377 1253 388 1252 c 128,-1,26
 399 1251 399 1251 403 1251 c 0,27,28
 446 1251 446 1251 492 1251 c 0,29,30
 537 1251 537 1251 581 1257.5 c 128,-1,31
 625 1264 625 1264 667 1277 c 128,-1,32
 709 1290 709 1290 743 1317 c 1,33,-1
 561 1315 l 2,34,35
 498 1313 498 1313 433.5 1320 c 128,-1,36
 369 1327 369 1327 309 1350 c 1,37,-1
 309 1362 l 1,38,-1
 371 1386 l 1,39,40
 342 1382 342 1382 311 1382 c 256,41,42
 280 1382 280 1382 252 1382 c 1,43,-1
 246 1389 l 1,44,45
 312 1428 312 1428 389.5 1429 c 128,-1,46
 467 1430 467 1430 541 1432 c 1,47,48
 498 1438 498 1438 455 1447 c 128,-1,49
 412 1456 412 1456 371 1473 c 1,50,-1
 371 1485 l 1,51,-1
 475 1530 l 1,52,-1
 457 1530 l 1,53,-1
 276 1542 l 1,54,55
 329 1548 329 1548 385 1548 c 0,56,57
 440 1548 440 1548 494 1552 c 1,58,-1
 358 1567 l 1,59,-1
 358 1579 l 1,60,-1
 408 1575 l 1,61,-1
 332 1587 l 1,62,-1
 332 1599 l 1,63,64
 377 1593 377 1593 420 1586 c 128,-1,65
 463 1579 463 1579 508 1577 c 1,66,-1
 512 1569 l 1,67,-1
 557 1561 l 1,68,69
 596 1561 596 1561 634 1570 c 128,-1,70
 672 1579 672 1579 709 1589 c 1,71,72
 658 1593 658 1593 608.5 1588 c 128,-1,73
 559 1583 559 1583 508 1583 c 0,74,75
 498 1583 498 1583 474.5 1586 c 128,-1,76
 451 1589 451 1589 442 1593 c 1,77,-1
 494 1618 l 1,78,-1
 473 1624 l 1,79,-1
 432 1616 l 1,80,81
 430 1626 430 1626 439.5 1647.5 c 128,-1,82
 449 1669 449 1669 463 1693.5 c 128,-1,83
 477 1718 477 1718 490.5 1739.5 c 128,-1,84
 504 1761 504 1761 510 1772 c 1,85,-1
 522 1763 l 1,86,-1
 451 1645 l 1,87,-1
 512 1626 l 1,88,-1
 477 1597 l 1,89,90
 520 1593 520 1593 563 1599.5 c 128,-1,91
 606 1606 606 1606 649 1604 c 2,92,-1
 750 1599 l 1,93,-1
 752 1587 l 1,94,-1
 596 1554 l 1,95,-1
 592 1542 l 1,96,97
 537 1540 537 1540 487.5 1520.5 c 128,-1,98
 438 1501 438 1501 389 1479 c 1,99,100
 440 1463 440 1463 492.5 1453.5 c 128,-1,101
 545 1444 545 1444 598 1436 c 1,102,-1
 598 1423 l 1,103,104
 573 1419 573 1419 522 1419 c 0,105,106
 473 1419 473 1419 420 1417 c 128,-1,107
 367 1415 367 1415 320.5 1411 c 128,-1,108
 274 1407 274 1407 260 1395 c 1,109,110
 301 1397 301 1397 340 1398 c 128,-1,111
 379 1399 379 1399 418 1407 c 1,112,-1
 422 1395 l 1,113,-1
 328 1356 l 1,114,115
 432 1323 432 1323 541.5 1326 c 128,-1,116
 651 1329 651 1329 760 1329 c 1,117,-1
 764 1319 l 1,118,119
 727 1284 727 1284 681 1267.5 c 128,-1,120
 635 1251 635 1251 586 1245 c 128,-1,121
 537 1239 537 1239 485 1239 c 0,122,123
 434 1239 434 1239 389 1239 c 1,124,-1
 537 1194 l 1,125,-1
 537 1182 l 1,126,127
 510 1174 510 1174 483.5 1170.5 c 128,-1,128
 457 1167 457 1167 430 1171 c 1,129,-1
 512 1155 l 1,130,-1
 512 1143 l 1,131,-1
 418 1128 l 1,132,-1
 457 1112 l 1,133,-1
 481 1126 l 1,134,-1
 518 1096 l 1,135,-1
 532 1094 l 1,136,-1
 532 1090 l 1,137,-1
 592 1069 l 1,138,139
 621 1081 621 1081 643.5 1094.5 c 128,-1,140
 666 1108 666 1108 689.5 1119 c 128,-1,141
 713 1130 713 1130 737.5 1137.5 c 128,-1,142
 762 1145 762 1145 797 1145 c 0,143,144
 850 1145 850 1145 902 1129.5 c 128,-1,145
 954 1114 954 1114 995 1079 c 1,146,-1
 995 1462 l 1,147,-1
 1079 1462 l 1,148,-1
 1079 813 l 1,149,-1
 1733 1462 l 1,150,-1
 1851 1462 l 1,151,-1
 1151 764 l 1,152,-1
 1153 762 l 1,153,-1
 1200 770 l 1,154,-1
 1202 799 l 1,155,156
 1206 789 1206 789 1210 771.5 c 128,-1,157
 1214 754 1214 754 1208 743 c 1,158,-1
 1251 795 l 1,159,-1
 1262 788 l 1,160,-1
 1243 743 l 1,161,-1
 1266 766 l 1,162,-1
 1276 762 l 1,163,-1
 1274 727 l 1,164,-1
 1296 760 l 1,165,-1
 1298 801 l 1,166,-1
 1311 803 l 1,167,-1
 1327 752 l 1,168,169
 1337 764 1337 764 1347.5 777.5 c 128,-1,170
 1358 791 1358 791 1366 807 c 1,171,-1
 1372 772 l 1,172,-1
 1386 842 l 1,173,-1
 1403 840 l 1,174,-1
 1468 971 l 1,175,-1
 1483 954 l 1,176,-1
 1518 1004 l 1,177,-1
 1528 997 l 1,178,179
 1514 956 1514 956 1499.5 915 c 128,-1,180
 1485 874 1485 874 1487 831 c 2,181,-1
 1487 817 l 1,182,-1
 1489 817 l 1,183,-1
 1501 862 l 1,184,-1
 1513 860 l 1,185,-1
 1509 817 l 1,186,-1
 1575 817 l 1,187,188
 1587 872 1587 872 1596.5 928.5 c 128,-1,189
 1606 985 1606 985 1620 1042 c 1,190,-1
 1632 1040 l 1,191,192
 1632 985 1632 985 1626 928.5 c 128,-1,193
 1620 872 1620 872 1618 817 c 1,194,-1
 1620 817 l 1,195,-1
 1651 866 l 1,196,-1
 1661 860 l 1,197,-1
 1640 817 l 1,198,199
 1697 817 1697 817 1754.5 811 c 128,-1,200
 1812 805 1812 805 1866 778 c 1,201,-1
 1868 768 l 1,202,203
 1850 756 1850 756 1829 739.5 c 128,-1,204
 1808 723 1808 723 1798 702 c 1,205,206
 1823 679 1823 679 1855.5 673.5 c 128,-1,207
 1888 668 1888 668 1919 666 c 1,208,-1
 1919 653 l 1,209,-1
 1860 659 l 1,210,-1
 1825 637 l 1,211,-1
 1882 618 l 1,212,-1
 1882 606 l 1,213,-1
 1792 584 l 1,214,-1
 1829 569 l 1,215,-1
 1825 557 l 1,216,-1
 1769 582 l 1,217,-1
 1772 594 l 1,218,-1
 1860 612 l 1,219,-1
 1808 631 l 1,220,-1
 1843 662 l 1,221,222
 1771 672 1771 672 1700.5 686 c 128,-1,223
 1630 700 1630 700 1561 719 c 1,224,-1
 1524 645 l 1,225,-1
 1518 662 l 1,226,-1
 1489 610 l 1,227,-1
 1477 614 l 1,228,-1
 1489 737 l 1,229,-1
 1446 752 l 1,230,-1
 1473 764 l 1,231,-1
 1475 858 l 1,232,233
 1469 842 1469 842 1452.5 814 c 128,-1,234
 1436 786 1436 786 1420.5 755.5 c 128,-1,235
 1405 725 1405 725 1392.5 699.5 c 128,-1,236
 1380 674 1380 674 1380 662 c 1,237,-1
 1368 662 l 1,238,-1
 1368 696 l 1,239,-1
 1356 657 l 1,240,-1
 1343 657 l 1,241,-1
 1333 694 l 1,242,-1
 1305 651 l 1,243,-1
 1294 655 l 1,244,-1
 1296 737 l 1,245,-1
 1272 700 l 1,246,-1
 1260 705 l 1,247,-1
 1264 745 l 1,248,-1
 1237 721 l 1,249,-1
 1227 727 l 1,250,-1
 1233 754 l 1,251,-1
 1204 723 l 1,252,-1
 1198 758 l 1,253,-1
 1163 752 l 1,254,-1
 1913 0 l 1,255,-1
 1796 0 l 1,256,-1
 1092 707 l 1,257,-1
 1079 694 l 1,258,-1
 1079 0 l 1,259,-1
 995 0 l 1,260,-1
 995 870 l 2,261,262
 995 956 995 956 938 1009.5 c 128,-1,263
 881 1063 881 1063 797 1063 c 0,264,265
 756 1063 756 1063 715 1052.5 c 128,-1,266
 674 1042 674 1042 645 1012 c 1,267,-1
 668 987 l 1,268,-1
 750 973 l 1,269,-1
 627 977 l 1,270,-1
 614 967 l 1,271,-1
 600 907 l 1,272,273
 641 891 641 891 682 888 c 128,-1,274
 723 885 723 885 766 872 c 1,275,-1
 764 860 l 1,276,-1
 733 858 l 1,277,-1
 821 848 l 1,278,-1
 821 836 l 1,279,-1
 778 831 l 1,280,-1
 793 827 l 1,281,-1
 788 815 l 1,282,-1
 758 821 l 1,283,-1
 752 817 l 1,284,-1
 612 834 l 1,285,-1
 598 823 l 1,286,-1
 598 770 l 1,287,288
 637 760 637 760 674 750.5 c 128,-1,289
 711 741 711 741 752 735 c 1,290,-1
 754 725 l 1,291,292
 731 711 731 711 706.5 700.5 c 128,-1,293
 682 690 682 690 653 686 c 1,294,-1
 674 614 l 1,295,-1
 883 629 l 1,296,-1
 885 616 l 1,297,298
 813 575 813 575 741.5 537.5 c 128,-1,299
 670 500 670 500 598 463 c 1,300,-1
 598 385 l 1,301,-1
 680 338 l 1,302,-1
 680 330 l 1,303,304
 647 291 647 291 599 278.5 c 128,-1,305
 551 266 551 266 504 262 c 1,306,-1
 563 244 l 1,307,-1
 561 231 l 1,308,-1
 518 225 l 1,309,310
 592 194 592 194 672 176 c 1,311,-1
 672 164 l 1,312,313
 641 154 641 154 609.5 147.5 c 128,-1,314
 578 141 578 141 549 125 c 1,315,-1
 616 109 l 1,316,-1
 614 96 l 1,317,-1
 571 92 l 1,318,-1
 793 102 l 1,319,-1
 793 90 l 1,320,321
 748 90 748 90 702.5 86 c 128,-1,322
 657 82 657 82 612 76 c 1,323,-1
 629 63 l 1,324,-1
 735 68 l 2,325,326
 743 68 743 68 753.5 64.5 c 128,-1,327
 764 61 764 61 772 59 c 1,328,329
 727 32 727 32 671.5 33.5 c 128,-1,330
 616 35 616 35 567 29 c 1,331,-1
 598 23 l 1,332,-1
 594 10 l 1,333,334
 514 35 514 35 432 39 c 1,335,-1
 446 55 l 1,336,-1
 379 66 l 1,337,-1
 381 78 l 1,338,339
 422 78 422 78 464 80 c 128,-1,340
 506 82 506 82 547 86 c 1,341,-1
 539 88 l 1,342,-1
 541 100 l 1,343,-1
 567 104 l 1,344,-1
 532 131 l 1,345,346
 559 145 559 145 588.5 152.5 c 128,-1,347
 618 160 618 160 647 170 c 1,348,349
 606 180 606 180 569 192.5 c 128,-1,350
 532 205 532 205 496 221 c 1,351,-1
 496 233 l 1,352,-1
 532 240 l 1,353,-1
 469 260 l 1,354,-1
 471 272 l 1,355,356
 500 274 500 274 527.5 276.5 c 128,-1,357
 555 279 555 279 584 287 c 1,358,-1
 514 287 l 1,359,360
 514 301 514 301 512 324.5 c 128,-1,361
 510 348 510 348 509 372.5 c 128,-1,362
 508 397 508 397 509 418.5 c 128,-1,363
 510 440 510 440 514 455 c 1,364,365
 416 432 416 432 315.5 434 c 128,-1,366
 215 436 215 436 117 453 c 1,367,-1
 117 287 l 1,368,-1
 33 287 l 1,369,-1
 33 463 l 1,370,-1
 14 475 l 1,0,-1
117 465 m 1,371,372
 152 459 152 459 188.5 454 c 128,-1,373
 225 449 225 449 262 449 c 2,374,-1
 315 449 l 2,375,376
 366 449 366 449 415.5 453 c 128,-1,377
 465 457 465 457 514 467 c 1,378,-1
 514 557 l 1,379,380
 414 547 414 547 314.5 529.5 c 128,-1,381
 215 512 215 512 117 487 c 1,382,-1
 117 465 l 1,371,372
117 502 m 1,383,384
 314 547 314 547 514 569 c 1,385,-1
 514 592 l 1,386,387
 414 606 414 606 315.5 622.5 c 128,-1,388
 217 639 217 639 117 643 c 1,389,-1
 117 502 l 1,383,384
117 655 m 1,390,391
 217 651 217 651 315.5 637 c 128,-1,392
 414 623 414 623 514 616 c 1,393,-1
 514 645 l 1,394,395
 504 647 504 647 486.5 651 c 128,-1,396
 469 655 469 655 450.5 660.5 c 128,-1,397
 432 666 432 666 415.5 671 c 128,-1,398
 399 676 399 676 395 680 c 1,399,400
 395 686 395 686 411.5 688 c 128,-1,401
 428 690 428 690 449 690 c 0,402,403
 469 690 469 690 488.5 689 c 128,-1,404
 508 688 508 688 514 688 c 1,405,-1
 514 727 l 1,406,407
 494 729 494 729 444.5 733 c 128,-1,408
 395 737 395 737 345 746.5 c 128,-1,409
 295 756 295 756 257 773.5 c 128,-1,410
 219 791 219 791 219 819 c 0,411,412
 219 829 219 829 231.5 831.5 c 128,-1,413
 244 834 244 834 252 834 c 0,414,415
 318 834 318 834 383.5 821.5 c 128,-1,416
 449 809 449 809 514 793 c 1,417,-1
 514 868 l 1,418,419
 494 874 494 874 474.5 878.5 c 128,-1,420
 455 883 455 883 432 883 c 1,421,-1
 432 895 l 1,422,-1
 416 899 l 1,423,424
 416 905 416 905 425 907 c 128,-1,425
 434 909 434 909 446 909 c 256,426,427
 458 909 458 909 468.5 908 c 128,-1,428
 479 907 479 907 483 907 c 2,429,-1
 506 928 l 1,430,431
 502 944 502 944 494.5 958.5 c 128,-1,432
 487 973 487 973 477 985 c 1,433,434
 450 981 450 981 424 981 c 0,435,436
 397 981 397 981 371 981 c 1,437,-1
 365 989 l 2,438,439
 365 993 365 993 378 996 c 128,-1,440
 391 999 391 999 407.5 1001.5 c 128,-1,441
 424 1004 424 1004 439.5 1005 c 128,-1,442
 455 1006 455 1006 461 1006 c 1,443,444
 457 1008 457 1008 449.5 1011 c 128,-1,445
 442 1014 442 1014 435 1018 c 128,-1,446
 428 1022 428 1022 424 1026 c 128,-1,447
 420 1030 420 1030 424 1034 c 1,448,449
 399 1050 399 1050 371.5 1056.5 c 128,-1,450
 344 1063 344 1063 315 1063 c 0,451,452
 229 1063 229 1063 173 1009.5 c 128,-1,453
 117 956 117 956 117 870 c 2,454,-1
 117 655 l 1,390,391
231 817 m 1,455,456
 249 788 249 788 285.5 774 c 128,-1,457
 322 760 322 760 361.5 752.5 c 128,-1,458
 401 745 401 745 442 743 c 128,-1,459
 483 741 483 741 514 739 c 1,460,-1
 514 780 l 1,461,462
 448 796 448 796 381.5 808.5 c 128,-1,463
 315 821 315 821 246 821 c 0,464,465
 236 821 236 821 231 817 c 1,455,456
279 1546 m 1,466,-1
 297 1546 l 1,467,-1
 305 1546 l 1,468,-1
 315 1546 l 1,469,-1
 279 1546 l 1,466,-1
440 893 m 1,470,-1
 467 891 l 1,471,-1
 440 893 l 1,470,-1
446 68 m 1,472,473
 456 66 456 66 467.5 64.5 c 128,-1,474
 479 63 479 63 492 63 c 0,475,476
 498 63 498 63 510 67.5 c 128,-1,477
 522 72 522 72 530 74 c 1,478,479
 487 68 487 68 446 68 c 1,472,473
461 676 m 1,480,481
 475 672 475 672 487.5 668 c 128,-1,482
 500 664 500 664 514 659 c 1,483,-1
 514 676 l 1,484,-1
 461 676 l 1,480,481
469 47 m 1,485,486
 481 45 481 45 493.5 44 c 128,-1,487
 506 43 506 43 520 43 c 2,488,-1
 528 43 l 2,489,490
 538 43 538 43 545.5 44 c 128,-1,491
 553 45 553 45 561 47 c 1,492,493
 557 47 557 47 545 47 c 0,494,495
 535 47 535 47 532 51 c 1,496,-1
 492 51 l 2,497,498
 482 51 482 51 469 47 c 1,485,486
469 1106 m 1,499,500
 473 1102 473 1102 482.5 1101 c 128,-1,501
 492 1100 492 1100 496 1100 c 1,502,-1
 477 1114 l 1,503,-1
 469 1106 l 1,499,500
500 1083 m 1,504,-1
 512 1071 l 1,505,506
 522 1071 522 1071 526 1069 c 2,507,-1
 530 1069 l 1,508,509
 526 1075 526 1075 518 1079 c 128,-1,510
 510 1083 510 1083 504 1085 c 1,511,-1
 500 1083 l 1,504,-1
502 905 m 1,512,-1
 512 905 l 1,513,-1
 510 913 l 1,514,-1
 502 905 l 1,512,-1
524 885 m 1,515,-1
 526 883 l 1,516,-1
 524 885 l 1,515,-1
524 1059 m 1,517,518
 526 1055 526 1055 528 1054 c 128,-1,519
 530 1053 530 1053 532 1049 c 1,520,521
 536 1051 536 1051 540.5 1052 c 128,-1,522
 545 1053 545 1053 549 1057 c 1,523,-1
 545 1059 l 2,524,525
 541 1059 541 1059 534.5 1058 c 128,-1,526
 528 1057 528 1057 524 1059 c 1,517,518
543 1036 m 1,527,-1
 545 1030 l 1,528,-1
 557 1030 l 1,529,-1
 565 1030 l 1,530,-1
 565 1034 l 2,531,532
 565 1038 565 1038 567 1041 c 128,-1,533
 569 1044 569 1044 571 1049 c 1,534,535
 565 1049 565 1049 556 1044.5 c 128,-1,536
 547 1040 547 1040 543 1036 c 1,527,-1
545 63 m 1,537,-1
 565 63 l 1,538,-1
 608 63 l 1,539,540
 604 67 604 67 601 68.5 c 128,-1,541
 598 70 598 70 594 72 c 0,542,543
 582 70 582 70 569.5 68 c 128,-1,544
 557 66 557 66 545 63 c 1,537,-1
555 588 m 1,545,-1
 557 588 l 1,546,-1
 555 588 l 1,545,-1
561 1018 m 1,547,-1
 563 1018 l 1,548,-1
 561 1018 l 1,547,-1
571 1061 m 1,549,-1
 573 1061 l 1,550,-1
 571 1061 l 1,549,-1
598 291 m 1,551,552
 641 303 641 303 668 334 c 1,553,554
 652 346 652 346 635 356.5 c 128,-1,555
 618 367 618 367 598 373 c 1,556,-1
 598 291 l 1,551,552
598 477 m 1,557,558
 664 512 664 512 727.5 545 c 128,-1,559
 791 578 791 578 854 614 c 1,560,561
 766 606 766 606 674 602 c 1,562,-1
 674 590 l 1,563,564
 676 590 676 590 684 590 c 0,565,566
 694 590 694 590 702 590 c 0,567,568
 712 590 712 590 720.5 588 c 128,-1,569
 729 586 729 586 729 582 c 256,570,571
 729 578 729 578 721 576.5 c 128,-1,572
 713 575 713 575 702.5 574 c 128,-1,573
 692 573 692 573 682 572 c 128,-1,574
 672 571 672 571 670 571 c 0,575,576
 664 542 664 542 644.5 521 c 128,-1,577
 625 500 625 500 598 485 c 1,578,-1
 598 477 l 1,557,558
598 500 m 1,579,580
 618 512 618 512 634.5 530 c 128,-1,581
 651 548 651 548 657 571 c 1,582,583
 641 569 641 569 627.5 568 c 128,-1,584
 614 567 614 567 598 567 c 1,585,-1
 598 545 l 1,586,-1
 604 543 l 1,587,588
 602 539 602 539 600 531.5 c 128,-1,589
 598 524 598 524 598 520 c 2,590,-1
 598 500 l 1,579,580
598 596 m 1,591,592
 600 596 600 596 608 595 c 128,-1,593
 616 594 616 594 627.5 593 c 128,-1,594
 639 592 639 592 648 591 c 128,-1,595
 657 590 657 590 662 590 c 1,596,-1
 662 600 l 1,597,-1
 598 600 l 1,598,-1
 598 596 l 1,591,592
598 629 m 1,599,600
 602 627 602 627 610 625 c 128,-1,601
 618 623 618 623 618 618 c 0,602,603
 618 612 618 612 610 612 c 1,604,-1
 662 612 l 1,605,606
 660 632 660 632 655.5 650 c 128,-1,607
 651 668 651 668 639 684 c 1,608,609
 629 682 629 682 618 682 c 0,610,611
 608 682 608 682 598 680 c 1,612,-1
 598 629 l 1,599,600
598 692 m 1,613,614
 606 692 606 692 613.5 693 c 128,-1,615
 621 694 621 694 629 694 c 1,616,617
 613 706 613 706 598 713 c 1,618,-1
 598 692 l 1,613,614
598 725 m 1,619,620
 610 721 610 721 622.5 713.5 c 128,-1,621
 635 706 635 706 645 696 c 1,622,623
 665 700 665 700 693 705.5 c 128,-1,624
 721 711 721 711 737 725 c 1,625,626
 702 731 702 731 667.5 739.5 c 128,-1,627
 633 748 633 748 598 758 c 1,628,-1
 598 725 l 1,619,620
598 893 m 1,629,-1
 612 893 l 1,630,631
 602 893 602 893 598 895 c 1,632,-1
 598 893 l 1,629,-1
631 995 m 1,633,634
 635 995 635 995 639 994 c 128,-1,635
 643 993 643 993 647 993 c 1,636,-1
 637 1004 l 1,637,638
 633 999 633 999 631 995 c 1,633,634
637 49 m 1,639,640
 666 51 666 51 694 51 c 0,641,642
 723 51 723 51 752 57 c 1,643,644
 723 53 723 53 694.5 52 c 128,-1,645
 666 51 666 51 637 51 c 1,646,-1
 637 49 l 1,639,640
666 852 m 1,647,-1
 668 852 l 1,648,-1
 672 852 l 1,649,-1
 666 852 l 1,647,-1
700 864 m 1,650,-1
 717 860 l 1,651,652
 717 864 717 864 721 868 c 1,653,-1
 713 868 l 1,654,655
 705 864 705 864 700 864 c 1,650,-1
737 844 m 1,656,-1
 743 842 l 1,657,-1
 739 842 l 1,658,-1
 737 844 l 1,656,-1
737 846 m 1,659,-1
 739 842 l 1,660,-1
 743 842 l 1,661,-1
 758 842 l 1,662,-1
 737 846 l 1,659,-1
1307 676 m 1,663,664
 1313 684 1313 684 1318 692 c 128,-1,665
 1323 700 1323 700 1329 711 c 1,666,-1
 1323 727 l 1,667,668
 1319 723 1319 723 1315 717 c 128,-1,669
 1311 711 1311 711 1307 711 c 1,670,-1
 1307 676 l 1,663,664
1313 735 m 1,671,-1
 1317 741 l 1,672,-1
 1315 750 l 1,673,-1
 1313 735 l 1,671,-1
1331 737 m 1,674,-1
 1335 725 l 1,675,676
 1343 737 1343 737 1346.5 742.5 c 128,-1,677
 1350 748 1350 748 1350 760 c 1,678,679
 1344 754 1344 754 1331 737 c 1,674,-1
1341 709 m 1,680,-1
 1348 692 l 1,681,-1
 1348 721 l 1,682,-1
 1341 709 l 1,680,-1
1389 719 m 1,683,684
 1393 727 1393 727 1407 752.5 c 128,-1,685
 1421 778 1421 778 1436.5 807 c 128,-1,686
 1452 836 1452 836 1463.5 859.5 c 128,-1,687
 1475 883 1475 883 1475 889 c 0,688,689
 1475 909 1475 909 1473 920 c 1,690,691
 1471 916 1471 916 1460.5 901.5 c 128,-1,692
 1450 887 1450 887 1438.5 870.5 c 128,-1,693
 1427 854 1427 854 1418 841.5 c 128,-1,694
 1409 829 1409 829 1407 829 c 256,695,696
 1405 829 1405 829 1404 830 c 128,-1,697
 1403 831 1403 831 1401 831 c 0,698,699
 1397 802 1397 802 1395 775 c 128,-1,700
 1393 748 1393 748 1389 719 c 1,683,684
1450 909 m 1,701,-1
 1473 938 l 1,702,-1
 1470 948 l 1,703,-1
 1450 909 l 1,701,-1
1485 915 m 1,704,705
 1489 925 1489 925 1494 937.5 c 128,-1,706
 1499 950 1499 950 1503 963 c 1,707,-1
 1485 936 l 1,708,-1
 1485 915 l 1,704,705
1487 752 m 1,709,-1
 1491 752 l 1,710,-1
 1487 752 l 1,709,-1
1487 764 m 1,711,-1
 1491 764 l 1,712,-1
 1495 795 l 1,713,714
 1491 785 1491 785 1487 764 c 1,711,-1
1493 643 m 1,715,716
 1503 659 1503 659 1520.5 684 c 128,-1,717
 1538 709 1538 709 1544 723 c 1,718,-1
 1501 735 l 1,719,720
 1499 712 1499 712 1498 689 c 128,-1,721
 1497 666 1497 666 1493 643 c 1,715,716
1503 748 m 1,722,723
 1513 744 1513 744 1524.5 740.5 c 128,-1,724
 1536 737 1536 737 1548 733 c 1,725,-1
 1552 748 l 1,726,727
 1536 752 1536 752 1528 752 c 2,728,-1
 1503 752 l 1,729,-1
 1503 748 l 1,722,723
1503 764 m 1,730,731
 1517 764 1517 764 1530 764 c 0,732,733
 1544 764 1544 764 1559 760 c 1,734,735
 1567 780 1567 780 1569 791 c 1,736,-1
 1563 795 l 1,737,738
 1549 797 1549 797 1535.5 799 c 128,-1,739
 1522 801 1522 801 1507 803 c 1,740,-1
 1503 764 l 1,730,731
1567 729 m 1,741,742
 1610 717 1610 717 1654 707.5 c 128,-1,743
 1698 698 1698 698 1745 690 c 1,744,745
 1739 692 1739 692 1721.5 695 c 128,-1,746
 1704 698 1704 698 1686.5 703.5 c 128,-1,747
 1669 709 1669 709 1654.5 713 c 128,-1,748
 1640 717 1640 717 1640 721 c 2,749,-1
 1642 725 l 1,750,751
 1624 729 1624 729 1606.5 734 c 128,-1,752
 1589 739 1589 739 1571 743 c 1,753,-1
 1567 729 l 1,741,742
1575 756 m 1,754,755
 1618 746 1618 746 1677.5 729.5 c 128,-1,756
 1737 713 1737 713 1780 713 c 0,757,758
 1796 713 1796 713 1801 715 c 128,-1,759
 1806 717 1806 717 1804 733 c 1,760,-1
 1808 739 l 1,761,762
 1841 749 1841 749 1855 770 c 1,763,764
 1808 793 1808 793 1758 799 c 128,-1,765
 1708 805 1708 805 1657 805 c 2,766,-1
 1626 805 l 1,767,-1
 1624 797 l 1,768,769
 1630 795 1630 795 1654.5 793 c 128,-1,770
 1679 791 1679 791 1679 782 c 1,771,-1
 1673 776 l 1,772,773
 1642 776 1642 776 1616 782 c 1,774,-1
 1612 780 l 1,775,776
 1608 784 1608 784 1597 784 c 0,777,778
 1587 784 1587 784 1581 786 c 1,779,780
 1581 778 1581 778 1579 771 c 128,-1,781
 1577 764 1577 764 1575 756 c 1,754,755
1587 817 m 1,782,-1
 1606 817 l 1,783,784
 1608 854 1608 854 1611 891 c 128,-1,785
 1614 928 1614 928 1618 967 c 1,786,787
 1610 928 1610 928 1603.5 891 c 128,-1,788
 1597 854 1597 854 1587 817 c 1,782,-1
1737 705 m 1,789,790
 1751 701 1751 701 1765.5 697.5 c 128,-1,791
 1780 694 1780 694 1796 690 c 1,792,793
 1773 700 1773 700 1765 700 c 0,794,795
 1760 701 1760 701 1737 705 c 1,789,790
EndSplineSet
EndChar

StartChar: Oslash
Encoding: 216 216 161
Width: 1683
GlyphClass: 2
Flags: W
LayerCount: 2
Fore
SplineSet
102 731 m 0,0,1
 102 1063 102 1063 311 1272 c 0,2,3
 522 1483 522 1483 854 1483 c 0,4,5
 1081 1483 1081 1483 1262 1376 c 1,6,-1
 1346 1495 l 1,7,-1
 1421 1448 l 1,8,-1
 1335 1325 l 1,9,10
 1608 1110 1608 1110 1608 731 c 0,11,12
 1608 399 1608 399 1397 190 c 0,13,14
 1186 -21 1186 -21 854 -20 c 0,15,16
 643 -20 643 -20 463 78 c 1,17,-1
 381 -41 l 1,18,-1
 307 8 l 1,19,-1
 389 127 l 1,20,21
 248 229 248 229 174 393 c 0,22,23
 102 553 102 553 102 731 c 0,0,1
186 731 m 0,24,25
 186 559 186 559 252 422 c 0,26,27
 315 287 315 287 438 197 c 1,28,-1
 1214 1307 l 1,29,30
 1046 1401 1046 1401 854 1401 c 0,31,32
 563 1401 563 1401 374.5 1212.5 c 128,-1,33
 186 1024 186 1024 186 731 c 0,24,25
512 147 m 1,34,35
 670 63 670 63 854 63 c 0,36,37
 1149 63 1149 63 1337 248 c 0,38,39
 1524 434 1524 434 1524 731 c 0,40,41
 1524 1065 1524 1065 1286 1255 c 1,42,-1
 512 147 l 1,34,35
EndSplineSet
EndChar

StartChar: Ugrave
Encoding: 217 217 162
Width: 1136
GlyphClass: 2
Flags: W
LayerCount: 2
Fore
SplineSet
156 365 m 2,0,-1
 156 1462 l 1,1,-1
 238 1462 l 1,2,-1
 238 365 l 2,3,4
 238 224 238 224 340 143 c 0,5,6
 434 69 434 69 578 70 c 0,7,8
 719 70 719 70 815 145 c 0,9,10
 919 227 919 227 920 365 c 2,11,-1
 920 1462 l 1,12,-1
 1004 1462 l 1,13,-1
 1004 365 l 2,14,15
 1004 187 1004 187 874 80 c 0,16,17
 761 -14 761 -14 578 -14 c 0,18,19
 400 -14 400 -14 281 82 c 0,20,21
 156 186 156 186 156 365 c 2,0,-1
354 1784 m 1,22,-1
 397 1829 l 1,23,-1
 643 1581 l 1,24,-1
 598 1540 l 1,25,-1
 354 1784 l 1,22,-1
EndSplineSet
EndChar

StartChar: Uacute
Encoding: 218 218 163
Width: 1136
GlyphClass: 2
Flags: W
LayerCount: 2
Fore
SplineSet
156 365 m 2,0,-1
 156 1462 l 1,1,-1
 238 1462 l 1,2,-1
 238 365 l 2,3,4
 238 224 238 224 340 143 c 0,5,6
 434 69 434 69 578 70 c 0,7,8
 719 70 719 70 815 145 c 0,9,10
 919 227 919 227 920 365 c 2,11,-1
 920 1462 l 1,12,-1
 1004 1462 l 1,13,-1
 1004 365 l 2,14,15
 1004 187 1004 187 874 80 c 0,16,17
 761 -14 761 -14 578 -14 c 0,18,19
 400 -14 400 -14 281 82 c 0,20,21
 156 186 156 186 156 365 c 2,0,-1
547 1583 m 1,22,-1
 776 1812 l 1,23,-1
 815 1772 l 1,24,-1
 588 1544 l 1,25,-1
 547 1583 l 1,22,-1
EndSplineSet
EndChar

StartChar: Ucircumflex
Encoding: 219 219 164
Width: 1136
GlyphClass: 2
Flags: W
LayerCount: 2
Fore
SplineSet
156 365 m 2,0,-1
 156 1462 l 1,1,-1
 238 1462 l 1,2,-1
 238 365 l 2,3,4
 238 224 238 224 340 143 c 0,5,6
 434 69 434 69 578 70 c 0,7,8
 719 70 719 70 815 145 c 0,9,10
 919 227 919 227 920 365 c 2,11,-1
 920 1462 l 1,12,-1
 1004 1462 l 1,13,-1
 1004 365 l 2,14,15
 1004 187 1004 187 874 80 c 0,16,17
 761 -14 761 -14 578 -14 c 0,18,19
 400 -14 400 -14 281 82 c 0,20,21
 156 186 156 186 156 365 c 2,0,-1
332 1602 m 1,22,-1
 582 1849 l 1,23,-1
 827 1602 l 1,24,-1
 786 1559 l 1,25,-1
 582 1761 l 1,26,-1
 377 1559 l 1,27,-1
 332 1602 l 1,22,-1
EndSplineSet
EndChar

StartChar: Udieresis
Encoding: 220 220 165
Width: 1136
GlyphClass: 2
Flags: W
LayerCount: 2
Fore
SplineSet
156 365 m 2,0,-1
 156 1462 l 1,1,-1
 238 1462 l 1,2,-1
 238 365 l 2,3,4
 238 224 238 224 340 143 c 0,5,6
 434 69 434 69 578 70 c 0,7,8
 719 70 719 70 815 145 c 0,9,10
 919 227 919 227 920 365 c 2,11,-1
 920 1462 l 1,12,-1
 1004 1462 l 1,13,-1
 1004 365 l 2,14,15
 1004 187 1004 187 874 80 c 0,16,17
 761 -14 761 -14 578 -14 c 0,18,19
 400 -14 400 -14 281 82 c 0,20,21
 156 186 156 186 156 365 c 2,0,-1
367 1630 m 0,22,23
 367 1685 367 1685 434 1698 c 1,24,25
 486 1698 486 1698 502 1630 c 1,26,27
 502 1562 502 1562 434 1563 c 0,28,29
 411 1563 411 1563 387 1581 c 0,30,31
 369 1599 369 1599 367 1630 c 0,22,23
647 1630 m 0,32,33
 647 1685 647 1685 715 1698 c 1,34,35
 766 1698 766 1698 782 1630 c 1,36,37
 782 1562 782 1562 715 1563 c 0,38,39
 692 1563 692 1563 668 1581 c 0,40,41
 650 1599 650 1599 647 1630 c 0,32,33
EndSplineSet
EndChar

StartChar: Yacute
Encoding: 221 221 166
Width: 1046
GlyphClass: 2
Flags: W
LayerCount: 2
Fore
SplineSet
68 1462 m 1,0,-1
 164 1462 l 1,1,-1
 524 829 l 1,2,-1
 889 1462 l 1,3,-1
 985 1462 l 1,4,-1
 567 731 l 1,5,-1
 567 0 l 1,6,-1
 483 0 l 1,7,-1
 483 731 l 1,8,-1
 68 1462 l 1,0,-1
504 1579 m 1,9,-1
 733 1817 l 1,10,-1
 776 1772 l 1,11,-1
 547 1544 l 1,12,-1
 504 1579 l 1,9,-1
EndSplineSet
EndChar

StartChar: Thorn
Encoding: 222 222 167
Width: 1003
GlyphClass: 2
Flags: W
LayerCount: 2
Fore
SplineSet
156 0 m 1,0,-1
 156 1462 l 1,1,-1
 238 1462 l 1,2,-1
 238 1106 l 1,3,-1
 512 1106 l 2,4,5
 680 1106 680 1106 794.5 1007.5 c 128,-1,6
 909 909 909 909 909 743 c 0,7,8
 909 575 909 575 795 477 c 0,9,10
 680 375 680 375 512 375 c 2,11,-1
 238 375 l 1,12,-1
 238 0 l 1,13,-1
 156 0 l 1,0,-1
238 459 m 1,14,-1
 510 459 l 2,15,16
 645 459 645 459 735 532 c 0,17,18
 825 610 825 610 825 743 c 256,19,20
 825 876 825 876 731 952 c 0,21,22
 647 1022 647 1022 510 1022 c 2,23,-1
 238 1022 l 1,24,-1
 238 459 l 1,14,-1
EndSplineSet
EndChar

StartChar: germandbls
Encoding: 223 223 168
Width: 1103
GlyphClass: 2
Flags: W
LayerCount: 2
Fore
SplineSet
45 762 m 1,0,-1
 45 846 l 1,1,-1
 162 846 l 1,2,-1
 162 1100 l 2,3,4
 162 1266 162 1266 250 1362 c 0,5,6
 338 1462 338 1462 502 1462 c 0,7,8
 643 1462 643 1462 748 1368 c 0,9,10
 850 1272 850 1272 850 1130 c 0,11,12
 850 935 850 935 686 827 c 1,13,14
 825 809 825 809 920 721 c 0,15,16
 1034 612 1034 612 1034 430 c 0,17,18
 1034 242 1034 242 932 123 c 0,19,20
 823 0 823 0 637 0 c 2,21,-1
 406 0 l 1,22,-1
 406 84 l 1,23,-1
 639 84 l 2,24,25
 776 84 776 84 866 188 c 0,26,27
 950 288 950 288 950 430 c 0,28,29
 950 764 950 764 512 764 c 1,30,-1
 512 846 l 1,31,32
 623 846 623 846 694 932 c 0,33,34
 766 1020 766 1020 766 1130 c 0,35,36
 766 1234 766 1234 688 1306 c 128,-1,37
 610 1378 610 1378 502 1378 c 0,38,39
 244 1378 244 1378 244 1098 c 2,40,-1
 244 0 l 1,41,-1
 162 0 l 1,42,-1
 162 762 l 1,43,-1
 45 762 l 1,0,-1
EndSplineSet
EndChar

StartChar: agrave
Encoding: 224 224 169
Width: 1044
GlyphClass: 2
Flags: W
LayerCount: 2
Fore
SplineSet
72 422 m 256,0,1
 72 606 72 606 197 731 c 0,2,3
 324 858 324 858 508 858 c 0,4,5
 711 858 711 858 846 698 c 1,6,-1
 846 846 l 1,7,-1
 930 846 l 1,8,-1
 930 0 l 1,9,-1
 846 0 l 1,10,-1
 846 145 l 1,11,12
 713 -15 713 -15 508 -14 c 0,13,14
 324 -14 324 -14 199 111 c 0,15,16
 72 238 72 238 72 422 c 256,0,1
154 422 m 0,17,18
 154 277 154 277 258 172.5 c 128,-1,19
 362 68 362 68 508 68 c 0,20,21
 655 68 655 68 758 170 c 0,22,23
 862 275 862 275 862 422 c 0,24,25
 862 567 862 567 757.5 671.5 c 128,-1,26
 653 776 653 776 508 776 c 0,27,28
 361 776 361 776 258 674 c 0,29,30
 154 570 154 570 154 422 c 0,17,18
262 1233 m 1,31,-1
 307 1282 l 1,32,-1
 582 1008 l 1,33,-1
 530 961 l 1,34,-1
 262 1233 l 1,31,-1
EndSplineSet
EndChar

StartChar: aacute
Encoding: 225 225 170
Width: 1044
GlyphClass: 2
Flags: W
LayerCount: 2
Fore
SplineSet
72 422 m 256,0,1
 72 606 72 606 197 731 c 0,2,3
 324 858 324 858 508 858 c 0,4,5
 711 858 711 858 846 698 c 1,6,-1
 846 846 l 1,7,-1
 930 846 l 1,8,-1
 930 0 l 1,9,-1
 846 0 l 1,10,-1
 846 145 l 1,11,12
 713 -15 713 -15 508 -14 c 0,13,14
 324 -14 324 -14 199 111 c 0,15,16
 72 238 72 238 72 422 c 256,0,1
154 422 m 0,17,18
 154 277 154 277 258 172.5 c 128,-1,19
 362 68 362 68 508 68 c 0,20,21
 655 68 655 68 758 170 c 0,22,23
 862 275 862 275 862 422 c 0,24,25
 862 567 862 567 757.5 671.5 c 128,-1,26
 653 776 653 776 508 776 c 0,27,28
 361 776 361 776 258 674 c 0,29,30
 154 570 154 570 154 422 c 0,17,18
442 1008 m 1,31,-1
 717 1282 l 1,32,-1
 762 1233 l 1,33,-1
 494 961 l 1,34,-1
 442 1008 l 1,31,-1
EndSplineSet
EndChar

StartChar: acircumflex
Encoding: 226 226 171
Width: 1044
GlyphClass: 2
Flags: W
LayerCount: 2
Fore
SplineSet
72 422 m 256,0,1
 72 606 72 606 197 731 c 0,2,3
 324 858 324 858 508 858 c 0,4,5
 711 858 711 858 846 698 c 1,6,-1
 846 846 l 1,7,-1
 930 846 l 1,8,-1
 930 0 l 1,9,-1
 846 0 l 1,10,-1
 846 145 l 1,11,12
 713 -15 713 -15 508 -14 c 0,13,14
 324 -14 324 -14 199 111 c 0,15,16
 72 238 72 238 72 422 c 256,0,1
154 422 m 0,17,18
 154 277 154 277 258 172.5 c 128,-1,19
 362 68 362 68 508 68 c 0,20,21
 655 68 655 68 758 170 c 0,22,23
 862 275 862 275 862 422 c 0,24,25
 862 567 862 567 757.5 671.5 c 128,-1,26
 653 776 653 776 508 776 c 0,27,28
 361 776 361 776 258 674 c 0,29,30
 154 570 154 570 154 422 c 0,17,18
252 1016 m 1,31,-1
 502 1262 l 1,32,-1
 748 1016 l 1,33,-1
 707 971 l 1,34,-1
 502 1174 l 1,35,-1
 297 971 l 1,36,-1
 252 1016 l 1,31,-1
EndSplineSet
EndChar

StartChar: atilde
Encoding: 227 227 172
Width: 1044
GlyphClass: 2
Flags: W
LayerCount: 2
Fore
SplineSet
72 422 m 256,0,1
 72 606 72 606 197 731 c 0,2,3
 324 858 324 858 508 858 c 0,4,5
 711 858 711 858 846 698 c 1,6,-1
 846 846 l 1,7,-1
 930 846 l 1,8,-1
 930 0 l 1,9,-1
 846 0 l 1,10,-1
 846 145 l 1,11,12
 713 -15 713 -15 508 -14 c 0,13,14
 324 -14 324 -14 199 111 c 0,15,16
 72 238 72 238 72 422 c 256,0,1
154 422 m 0,17,18
 154 277 154 277 258 172.5 c 128,-1,19
 362 68 362 68 508 68 c 0,20,21
 655 68 655 68 758 170 c 0,22,23
 862 275 862 275 862 422 c 0,24,25
 862 567 862 567 757.5 671.5 c 128,-1,26
 653 776 653 776 508 776 c 0,27,28
 361 776 361 776 258 674 c 0,29,30
 154 570 154 570 154 422 c 0,17,18
186 1051 m 1,31,32
 243 1155 243 1155 381 1155 c 0,33,34
 408 1155 408 1155 427 1153 c 128,-1,35
 446 1151 446 1151 463 1147 c 0,36,37
 490 1139 490 1139 520 1118 c 1,38,-1
 580 1092 l 1,39,-1
 643 1083 l 1,40,41
 733 1083 733 1083 784 1141 c 1,42,-1
 842 1096 l 1,43,-1
 803 1055 l 1,44,-1
 770 1028 l 1,45,46
 717 999 717 999 647 999 c 0,47,48
 557 999 557 999 502 1036 c 0,49,50
 486 1046 486 1046 471.5 1053.5 c 128,-1,51
 457 1061 457 1061 442 1065 c 2,52,-1
 381 1073 l 1,53,54
 305 1073 305 1073 242 1006 c 1,55,-1
 186 1051 l 1,31,32
EndSplineSet
EndChar

StartChar: adieresis
Encoding: 228 228 173
Width: 1044
GlyphClass: 2
Flags: W
LayerCount: 2
Fore
SplineSet
72 422 m 256,0,1
 72 606 72 606 197 731 c 0,2,3
 324 858 324 858 508 858 c 0,4,5
 711 858 711 858 846 698 c 1,6,-1
 846 846 l 1,7,-1
 930 846 l 1,8,-1
 930 0 l 1,9,-1
 846 0 l 1,10,-1
 846 145 l 1,11,12
 713 -15 713 -15 508 -14 c 0,13,14
 324 -14 324 -14 199 111 c 0,15,16
 72 238 72 238 72 422 c 256,0,1
154 422 m 0,17,18
 154 277 154 277 258 172.5 c 128,-1,19
 362 68 362 68 508 68 c 0,20,21
 655 68 655 68 758 170 c 0,22,23
 862 275 862 275 862 422 c 0,24,25
 862 567 862 567 757.5 671.5 c 128,-1,26
 653 776 653 776 508 776 c 0,27,28
 361 776 361 776 258 674 c 0,29,30
 154 570 154 570 154 422 c 0,17,18
283 1065 m 0,31,32
 283 1120 283 1120 350 1133 c 1,33,34
 402 1133 402 1133 418 1065 c 1,35,36
 418 997 418 997 350 997 c 0,37,38
 327 997 327 997 303 1016 c 0,39,40
 285 1034 285 1034 283 1065 c 0,31,32
563 1065 m 0,41,42
 563 1120 563 1120 631 1133 c 1,43,44
 682 1133 682 1133 698 1065 c 1,45,46
 698 997 698 997 631 997 c 0,47,48
 608 997 608 997 584 1016 c 0,49,50
 566 1034 566 1034 563 1065 c 0,41,42
EndSplineSet
EndChar

StartChar: aring
Encoding: 229 229 174
Width: 1044
GlyphClass: 2
Flags: W
LayerCount: 2
Fore
SplineSet
72 422 m 256,0,1
 72 606 72 606 197 731 c 0,2,3
 324 858 324 858 508 858 c 0,4,5
 711 858 711 858 846 698 c 1,6,-1
 846 846 l 1,7,-1
 930 846 l 1,8,-1
 930 0 l 1,9,-1
 846 0 l 1,10,-1
 846 145 l 1,11,12
 713 -15 713 -15 508 -14 c 0,13,14
 324 -14 324 -14 199 111 c 0,15,16
 72 238 72 238 72 422 c 256,0,1
154 422 m 0,17,18
 154 277 154 277 258 172.5 c 128,-1,19
 362 68 362 68 508 68 c 0,20,21
 655 68 655 68 758 170 c 0,22,23
 862 275 862 275 862 422 c 0,24,25
 862 567 862 567 757.5 671.5 c 128,-1,26
 653 776 653 776 508 776 c 0,27,28
 361 776 361 776 258 674 c 0,29,30
 154 570 154 570 154 422 c 0,17,18
330 1102 m 256,31,32
 330 1170 330 1170 381 1221 c 128,-1,33
 432 1272 432 1272 500 1272 c 256,34,35
 568 1272 568 1272 619 1221 c 128,-1,36
 670 1170 670 1170 670 1102 c 256,37,38
 670 1034 670 1034 618.5 983 c 128,-1,39
 567 932 567 932 500 932 c 0,40,41
 432 932 432 932 381 983 c 128,-1,42
 330 1034 330 1034 330 1102 c 256,31,32
373 1104 m 256,43,44
 373 1055 373 1055 412 1016 c 128,-1,45
 451 977 451 977 500 977 c 256,46,47
 549 977 549 977 588 1016 c 128,-1,48
 627 1055 627 1055 627 1104 c 256,49,50
 627 1153 627 1153 588 1192 c 128,-1,51
 549 1231 549 1231 500 1231 c 256,52,53
 451 1231 451 1231 412 1192 c 128,-1,54
 373 1153 373 1153 373 1104 c 256,43,44
EndSplineSet
EndChar

StartChar: ae
Encoding: 230 230 175
Width: 1798
GlyphClass: 2
Flags: W
LayerCount: 2
Fore
SplineSet
72 422 m 256,0,1
 72 606 72 606 197 731 c 0,2,3
 324 858 324 858 508 858 c 0,4,5
 711 858 711 858 846 698 c 1,6,-1
 846 846 l 1,7,-1
 930 846 l 1,8,-1
 930 680 l 1,9,10
 1053 856 1053 856 1290 856 c 0,11,12
 1476 856 1476 856 1602 741 c 0,13,14
 1727 628 1727 628 1726 440 c 1,15,-1
 934 440 l 1,16,17
 934 268 934 268 1026 168 c 0,18,19
 1122 66 1122 66 1290 66 c 0,20,21
 1376 66 1376 66 1446 94 c 0,22,23
 1534 131 1534 131 1604 244 c 1,24,-1
 1679 209 l 1,25,26
 1599 57 1599 57 1434 4 c 0,27,28
 1371 -16 1371 -16 1290 -16 c 0,29,30
 1057 -16 1057 -16 930 160 c 1,31,-1
 930 0 l 1,32,-1
 846 0 l 1,33,-1
 846 145 l 1,34,35
 713 -15 713 -15 508 -14 c 0,36,37
 324 -14 324 -14 199 111 c 0,38,39
 72 238 72 238 72 422 c 256,0,1
154 422 m 0,40,41
 154 277 154 277 258 172.5 c 128,-1,42
 362 68 362 68 508 68 c 0,43,44
 655 68 655 68 758 170 c 0,45,46
 862 275 862 275 862 422 c 0,47,48
 862 567 862 567 757.5 671.5 c 128,-1,49
 653 776 653 776 508 776 c 0,50,51
 361 776 361 776 258 674 c 0,52,53
 154 570 154 570 154 422 c 0,40,41
946 520 m 1,54,-1
 1632 520 l 1,55,56
 1612 614 1612 614 1538 684 c 0,57,58
 1442 774 1442 774 1290 774 c 0,59,60
 1028 774 1028 774 946 520 c 1,54,-1
EndSplineSet
EndChar

StartChar: ccedilla
Encoding: 231 231 176
Width: 897
GlyphClass: 2
Flags: W
LayerCount: 2
Fore
SplineSet
96 422 m 0,0,1
 96 612 96 612 221 735 c 0,2,3
 346 860 346 860 535 860 c 0,4,5
 635 860 635 860 727 823 c 1,6,-1
 793 786 l 1,7,-1
 793 676 l 1,8,-1
 762 702 l 1,9,-1
 731 727 l 1,10,11
 643 778 643 778 535 778 c 0,12,13
 379 778 379 778 281 678 c 0,14,15
 181 578 181 578 180 422 c 0,16,17
 180 268 180 268 280.5 168 c 128,-1,18
 381 68 381 68 535 68 c 0,19,20
 641 68 641 68 729 119 c 1,21,-1
 793 170 l 1,22,-1
 793 59 l 1,23,-1
 733 23 l 1,24,25
 659 -14 659 -14 578 -14 c 1,26,-1
 551 -84 l 1,27,28
 594 -104 594 -104 606 -184 c 1,29,30
 606 -231 606 -231 569 -264 c 0,31,32
 530 -297 530 -297 483 -297 c 0,33,34
 422 -297 422 -297 379 -246 c 1,35,-1
 406 -174 l 1,36,-1
 438 -203 l 2,37,38
 456 -215 456 -215 479 -215 c 0,39,40
 495 -215 495 -215 512 -199 c 1,41,-1
 518 -186 l 1,42,-1
 522 -170 l 1,43,44
 522 -147 522 -147 502 -127 c 2,45,-1
 463 -96 l 1,46,-1
 489 -16 l 1,47,48
 313 2 313 2 204.5 123 c 128,-1,49
 96 244 96 244 96 422 c 0,0,1
EndSplineSet
EndChar

StartChar: egrave
Encoding: 232 232 177
Width: 1003
GlyphClass: 2
Flags: W
LayerCount: 2
Fore
SplineSet
70 422 m 0,0,1
 70 612 70 612 193 735 c 0,2,3
 318 860 318 860 508 860 c 0,4,5
 696 860 696 860 819 743 c 0,6,7
 944 626 944 626 944 440 c 1,8,-1
 152 440 l 1,9,10
 152 268 152 268 244 168 c 0,11,12
 340 66 340 66 508 66 c 0,13,14
 594 66 594 66 664 94 c 0,15,16
 752 131 752 131 821 244 c 1,17,-1
 897 209 l 1,18,19
 817 57 817 57 651 4 c 0,20,21
 588 -16 588 -16 508 -16 c 0,22,23
 318 -16 318 -16 195 109 c 0,24,25
 70 234 70 234 70 422 c 0,0,1
164 520 m 1,26,-1
 850 520 l 1,27,28
 830 637 830 637 729 709 c 0,29,30
 633 779 633 779 508 778 c 0,31,32
 246 778 246 778 164 520 c 1,26,-1
279 1233 m 1,33,-1
 324 1282 l 1,34,-1
 598 1008 l 1,35,-1
 547 961 l 1,36,-1
 279 1233 l 1,33,-1
EndSplineSet
EndChar

StartChar: eacute
Encoding: 233 233 178
Width: 1003
GlyphClass: 2
Flags: W
LayerCount: 2
Fore
SplineSet
70 422 m 0,0,1
 70 612 70 612 193 735 c 0,2,3
 318 860 318 860 508 860 c 0,4,5
 696 860 696 860 819 743 c 0,6,7
 944 626 944 626 944 440 c 1,8,-1
 152 440 l 1,9,10
 152 268 152 268 244 168 c 0,11,12
 340 66 340 66 508 66 c 0,13,14
 594 66 594 66 664 94 c 0,15,16
 752 131 752 131 821 244 c 1,17,-1
 897 209 l 1,18,19
 817 57 817 57 651 4 c 0,20,21
 588 -16 588 -16 508 -16 c 0,22,23
 318 -16 318 -16 195 109 c 0,24,25
 70 234 70 234 70 422 c 0,0,1
164 520 m 1,26,-1
 850 520 l 1,27,28
 830 637 830 637 729 709 c 0,29,30
 633 779 633 779 508 778 c 0,31,32
 246 778 246 778 164 520 c 1,26,-1
410 1008 m 1,33,-1
 684 1282 l 1,34,-1
 729 1233 l 1,35,-1
 459 961 l 1,36,-1
 410 1008 l 1,33,-1
EndSplineSet
EndChar

StartChar: ecircumflex
Encoding: 234 234 179
Width: 1003
GlyphClass: 2
Flags: W
LayerCount: 2
Fore
SplineSet
70 422 m 0,0,1
 70 612 70 612 193 735 c 0,2,3
 318 860 318 860 508 860 c 0,4,5
 696 860 696 860 819 743 c 0,6,7
 944 626 944 626 944 440 c 1,8,-1
 152 440 l 1,9,10
 152 268 152 268 244 168 c 0,11,12
 340 66 340 66 508 66 c 0,13,14
 594 66 594 66 664 94 c 0,15,16
 752 131 752 131 821 244 c 1,17,-1
 897 209 l 1,18,19
 817 57 817 57 651 4 c 0,20,21
 588 -16 588 -16 508 -16 c 0,22,23
 318 -16 318 -16 195 109 c 0,24,25
 70 234 70 234 70 422 c 0,0,1
164 520 m 1,26,-1
 850 520 l 1,27,28
 830 637 830 637 729 709 c 0,29,30
 633 779 633 779 508 778 c 0,31,32
 246 778 246 778 164 520 c 1,26,-1
268 1016 m 1,33,-1
 516 1262 l 1,34,-1
 762 1016 l 1,35,-1
 721 971 l 1,36,-1
 516 1174 l 1,37,-1
 311 971 l 1,38,-1
 268 1016 l 1,33,-1
EndSplineSet
EndChar

StartChar: edieresis
Encoding: 235 235 180
Width: 1003
GlyphClass: 2
Flags: W
LayerCount: 2
Fore
SplineSet
70 422 m 0,0,1
 70 612 70 612 193 735 c 0,2,3
 318 860 318 860 508 860 c 0,4,5
 696 860 696 860 819 743 c 0,6,7
 944 626 944 626 944 440 c 1,8,-1
 152 440 l 1,9,10
 152 268 152 268 244 168 c 0,11,12
 340 66 340 66 508 66 c 0,13,14
 594 66 594 66 664 94 c 0,15,16
 752 131 752 131 821 244 c 1,17,-1
 897 209 l 1,18,19
 817 57 817 57 651 4 c 0,20,21
 588 -16 588 -16 508 -16 c 0,22,23
 318 -16 318 -16 195 109 c 0,24,25
 70 234 70 234 70 422 c 0,0,1
164 520 m 1,26,-1
 850 520 l 1,27,28
 830 637 830 637 729 709 c 0,29,30
 633 779 633 779 508 778 c 0,31,32
 246 778 246 778 164 520 c 1,26,-1
297 1065 m 0,33,34
 297 1120 297 1120 365 1133 c 1,35,36
 416 1133 416 1133 432 1065 c 1,37,38
 432 997 432 997 365 997 c 0,39,40
 342 997 342 997 317 1016 c 0,41,42
 299 1034 299 1034 297 1065 c 0,33,34
578 1065 m 0,43,44
 578 1120 578 1120 645 1133 c 1,45,46
 697 1133 697 1133 713 1065 c 1,47,48
 713 997 713 997 645 997 c 0,49,50
 622 997 622 997 598 1016 c 0,51,52
 580 1034 580 1034 578 1065 c 0,43,44
EndSplineSet
EndChar

StartChar: igrave
Encoding: 236 236 181
Width: 376
GlyphClass: 2
Flags: W
LayerCount: 2
Fore
SplineSet
-78 1233 m 1,0,-1
 -31 1282 l 1,1,-1
 242 1008 l 1,2,-1
 193 961 l 1,3,-1
 -78 1233 l 1,0,-1
150 0 m 1,4,-1
 150 846 l 1,5,-1
 233 846 l 1,6,-1
 233 0 l 1,7,-1
 150 0 l 1,4,-1
EndSplineSet
EndChar

StartChar: iacute
Encoding: 237 237 182
Width: 376
GlyphClass: 2
Flags: W
LayerCount: 2
Fore
SplineSet
150 0 m 1,0,-1
 150 846 l 1,1,-1
 233 846 l 1,2,-1
 233 0 l 1,3,-1
 150 0 l 1,0,-1
150 1008 m 1,4,-1
 424 1282 l 1,5,-1
 471 1233 l 1,6,-1
 201 961 l 1,7,-1
 150 1008 l 1,4,-1
EndSplineSet
EndChar

StartChar: icircumflex
Encoding: 238 238 183
Width: 522
GlyphClass: 2
Flags: W
LayerCount: 2
Fore
SplineSet
16 1016 m 1,0,-1
 266 1262 l 1,1,-1
 512 1016 l 1,2,-1
 471 971 l 1,3,-1
 266 1174 l 1,4,-1
 61 971 l 1,5,-1
 16 1016 l 1,0,-1
219 0 m 1,6,-1
 219 846 l 1,7,-1
 303 846 l 1,8,-1
 303 0 l 1,9,-1
 219 0 l 1,6,-1
EndSplineSet
EndChar

StartChar: idieresis
Encoding: 239 239 184
Width: 376
GlyphClass: 2
Flags: W
LayerCount: 2
Fore
SplineSet
-20 1065 m 1,0,1
 -20 1116 -20 1116 47 1133 c 1,2,3
 99 1133 99 1133 115 1065 c 1,4,5
 115 997 115 997 47 997 c 0,6,7
 -8 997 -8 997 -20 1065 c 1,0,1
150 0 m 1,8,-1
 150 846 l 1,9,-1
 233 846 l 1,10,-1
 233 0 l 1,11,-1
 150 0 l 1,8,-1
260 1065 m 0,12,13
 260 1120 260 1120 328 1133 c 1,14,15
 379 1133 379 1133 395 1065 c 1,16,17
 395 997 395 997 328 997 c 0,18,19
 305 997 305 997 281 1016 c 0,20,21
 263 1034 263 1034 260 1065 c 0,12,13
EndSplineSet
EndChar

StartChar: eth
Encoding: 240 240 185
Width: 1019
GlyphClass: 2
Flags: W
LayerCount: 2
Fore
SplineSet
72 422 m 256,0,1
 72 606 72 606 197 731 c 0,2,3
 324 858 324 858 508 858 c 0,4,5
 694 858 694 858 825 721 c 1,6,7
 774 975 774 975 565 1126 c 1,8,-1
 389 1016 l 1,9,-1
 307 1069 l 1,10,-1
 485 1182 l 1,11,-1
 393 1229 l 1,12,-1
 289 1272 l 1,13,-1
 362 1343 l 1,14,15
 473 1312 473 1312 578 1239 c 1,16,-1
 758 1352 l 1,17,-1
 840 1298 l 1,18,-1
 653 1182 l 1,19,20
 803 1049 803 1049 868 899 c 0,21,22
 944 721 944 721 944 422 c 0,23,24
 944 238 944 238 819 113 c 0,25,26
 692 -14 692 -14 508 -14 c 256,27,28
 324 -14 324 -14 199 111 c 0,29,30
 72 238 72 238 72 422 c 256,0,1
154 422 m 0,31,32
 154 277 154 277 258 172.5 c 128,-1,33
 362 68 362 68 508 68 c 0,34,35
 655 68 655 68 758 170 c 0,36,37
 862 275 862 275 862 422 c 0,38,39
 862 567 862 567 757.5 671.5 c 128,-1,40
 653 776 653 776 508 776 c 0,41,42
 361 776 361 776 258 674 c 0,43,44
 154 570 154 570 154 422 c 0,31,32
EndSplineSet
EndChar

StartChar: ntilde
Encoding: 241 241 186
Width: 923
GlyphClass: 2
Flags: W
LayerCount: 2
Fore
SplineSet
131 1051 m 1,0,1
 188 1155 188 1155 326 1155 c 0,2,3
 377 1155 377 1155 432 1135 c 0,4,5
 440 1131 440 1131 448.5 1126.5 c 128,-1,6
 457 1122 457 1122 467 1116 c 2,7,-1
 526 1092 l 1,8,-1
 598 1083 l 1,9,-1
 645 1083 l 1,10,-1
 670 1092 l 2,11,12
 686 1098 686 1098 729 1141 c 1,13,-1
 788 1096 l 1,14,-1
 750 1055 l 1,15,-1
 717 1028 l 1,16,17
 670 999 670 999 606 999 c 0,18,19
 510 999 510 999 449 1036 c 1,20,-1
 389 1061 l 2,21,22
 360 1073 360 1073 315 1073 c 0,23,24
 239 1073 239 1073 188 1006 c 1,25,-1
 131 1051 l 1,0,1
135 0 m 1,26,-1
 135 846 l 1,27,-1
 219 846 l 1,28,-1
 219 743 l 1,29,30
 276 856 276 856 463 856 c 0,31,32
 621 856 621 856 704.5 766 c 128,-1,33
 788 676 788 676 788 514 c 2,34,-1
 788 0 l 1,35,-1
 705 0 l 1,36,-1
 705 506 l 2,37,38
 705 774 705 774 463 774 c 0,39,40
 344 774 344 774 283 705 c 0,41,42
 220 635 220 635 219 514 c 2,43,-1
 219 0 l 1,44,-1
 135 0 l 1,26,-1
EndSplineSet
EndChar

StartChar: ograve
Encoding: 242 242 187
Width: 1019
GlyphClass: 2
Flags: W
LayerCount: 2
Fore
SplineSet
72 422 m 0,0,1
 72 604 72 604 199 731 c 0,2,3
 324 860 324 860 508 860 c 0,4,5
 690 860 690 860 817 733 c 128,-1,6
 944 606 944 606 944 422 c 256,7,8
 944 238 944 238 819 113 c 0,9,10
 692 -14 692 -14 508 -14 c 256,11,12
 324 -14 324 -14 199 111 c 0,13,14
 72 238 72 238 72 422 c 0,0,1
154 422 m 0,15,16
 154 277 154 277 258 172.5 c 128,-1,17
 362 68 362 68 508 68 c 0,18,19
 655 68 655 68 758 170 c 0,20,21
 862 275 862 275 862 422 c 0,22,23
 862 572 862 572 760 674 c 0,24,25
 658 778 658 778 508 778 c 0,26,27
 365 778 365 778 260 672 c 0,28,29
 154 566 154 566 154 422 c 0,15,16
276 1233 m 1,30,-1
 322 1282 l 1,31,-1
 596 1008 l 1,32,-1
 545 961 l 1,33,-1
 276 1233 l 1,30,-1
EndSplineSet
EndChar

StartChar: oacute
Encoding: 243 243 188
Width: 1019
GlyphClass: 2
Flags: W
LayerCount: 2
Fore
SplineSet
72 422 m 0,0,1
 72 604 72 604 199 731 c 0,2,3
 324 860 324 860 508 860 c 0,4,5
 690 860 690 860 817 733 c 128,-1,6
 944 606 944 606 944 422 c 256,7,8
 944 238 944 238 819 113 c 0,9,10
 692 -14 692 -14 508 -14 c 256,11,12
 324 -14 324 -14 199 111 c 0,13,14
 72 238 72 238 72 422 c 0,0,1
154 422 m 0,15,16
 154 277 154 277 258 172.5 c 128,-1,17
 362 68 362 68 508 68 c 0,18,19
 655 68 655 68 758 170 c 0,20,21
 862 275 862 275 862 422 c 0,22,23
 862 572 862 572 760 674 c 0,24,25
 658 778 658 778 508 778 c 0,26,27
 365 778 365 778 260 672 c 0,28,29
 154 566 154 566 154 422 c 0,15,16
418 1008 m 1,30,-1
 692 1282 l 1,31,-1
 737 1233 l 1,32,-1
 469 961 l 1,33,-1
 418 1008 l 1,30,-1
EndSplineSet
EndChar

StartChar: ocircumflex
Encoding: 244 244 189
Width: 1019
GlyphClass: 2
Flags: W
LayerCount: 2
Fore
SplineSet
72 422 m 0,0,1
 72 604 72 604 199 731 c 0,2,3
 324 860 324 860 508 860 c 0,4,5
 690 860 690 860 817 733 c 128,-1,6
 944 606 944 606 944 422 c 256,7,8
 944 238 944 238 819 113 c 0,9,10
 692 -14 692 -14 508 -14 c 256,11,12
 324 -14 324 -14 199 111 c 0,13,14
 72 238 72 238 72 422 c 0,0,1
154 422 m 0,15,16
 154 277 154 277 258 172.5 c 128,-1,17
 362 68 362 68 508 68 c 0,18,19
 655 68 655 68 758 170 c 0,20,21
 862 275 862 275 862 422 c 0,22,23
 862 572 862 572 760 674 c 0,24,25
 658 778 658 778 508 778 c 0,26,27
 365 778 365 778 260 672 c 0,28,29
 154 566 154 566 154 422 c 0,15,16
252 1016 m 1,30,-1
 502 1262 l 1,31,-1
 748 1016 l 1,32,-1
 707 971 l 1,33,-1
 502 1174 l 1,34,-1
 297 971 l 1,35,-1
 252 1016 l 1,30,-1
EndSplineSet
EndChar

StartChar: otilde
Encoding: 245 245 190
Width: 1019
GlyphClass: 2
Flags: W
LayerCount: 2
Fore
SplineSet
72 422 m 0,0,1
 72 604 72 604 199 731 c 0,2,3
 324 860 324 860 508 860 c 0,4,5
 690 860 690 860 817 733 c 128,-1,6
 944 606 944 606 944 422 c 256,7,8
 944 238 944 238 819 113 c 0,9,10
 692 -14 692 -14 508 -14 c 256,11,12
 324 -14 324 -14 199 111 c 0,13,14
 72 238 72 238 72 422 c 0,0,1
154 422 m 0,15,16
 154 277 154 277 258 172.5 c 128,-1,17
 362 68 362 68 508 68 c 0,18,19
 655 68 655 68 758 170 c 0,20,21
 862 275 862 275 862 422 c 0,22,23
 862 572 862 572 760 674 c 0,24,25
 658 778 658 778 508 778 c 0,26,27
 365 778 365 778 260 672 c 0,28,29
 154 566 154 566 154 422 c 0,15,16
168 1051 m 1,30,31
 225 1155 225 1155 362 1155 c 0,32,33
 413 1155 413 1155 469 1135 c 0,34,35
 477 1131 477 1131 485.5 1126.5 c 128,-1,36
 494 1122 494 1122 504 1116 c 2,37,-1
 563 1092 l 1,38,-1
 635 1083 l 1,39,-1
 682 1083 l 1,40,-1
 707 1092 l 2,41,42
 723 1098 723 1098 766 1141 c 1,43,-1
 825 1096 l 1,44,-1
 786 1055 l 1,45,-1
 754 1028 l 1,46,47
 707 999 707 999 643 999 c 0,48,49
 547 999 547 999 485 1036 c 1,50,-1
 426 1061 l 2,51,52
 397 1073 397 1073 352 1073 c 0,53,54
 276 1073 276 1073 225 1006 c 1,55,-1
 168 1051 l 1,30,31
EndSplineSet
EndChar

StartChar: odieresis
Encoding: 246 246 191
Width: 1019
GlyphClass: 2
Flags: W
LayerCount: 2
Fore
SplineSet
72 422 m 0,0,1
 72 604 72 604 199 731 c 0,2,3
 324 860 324 860 508 860 c 0,4,5
 690 860 690 860 817 733 c 128,-1,6
 944 606 944 606 944 422 c 256,7,8
 944 238 944 238 819 113 c 0,9,10
 692 -14 692 -14 508 -14 c 256,11,12
 324 -14 324 -14 199 111 c 0,13,14
 72 238 72 238 72 422 c 0,0,1
154 422 m 0,15,16
 154 277 154 277 258 172.5 c 128,-1,17
 362 68 362 68 508 68 c 0,18,19
 655 68 655 68 758 170 c 0,20,21
 862 275 862 275 862 422 c 0,22,23
 862 572 862 572 760 674 c 0,24,25
 658 778 658 778 508 778 c 0,26,27
 365 778 365 778 260 672 c 0,28,29
 154 566 154 566 154 422 c 0,15,16
291 1065 m 0,30,31
 291 1120 291 1120 358 1133 c 1,32,33
 410 1133 410 1133 426 1065 c 1,34,35
 426 997 426 997 358 997 c 0,36,37
 335 997 335 997 311 1016 c 0,38,39
 293 1034 293 1034 291 1065 c 0,30,31
571 1065 m 0,40,41
 571 1120 571 1120 639 1133 c 1,42,43
 691 1133 691 1133 707 1065 c 1,44,45
 707 997 707 997 639 997 c 0,46,47
 616 997 616 997 592 1016 c 0,48,49
 574 1034 574 1034 571 1065 c 0,40,41
EndSplineSet
EndChar

StartChar: divide
Encoding: 247 247 192
Width: 741
GlyphClass: 2
Flags: W
LayerCount: 2
Fore
SplineSet
117 489 m 1,0,-1
 117 594 l 1,1,-1
 643 594 l 1,2,-1
 643 489 l 1,3,-1
 117 489 l 1,0,-1
311 299 m 0,4,5
 311 354 311 354 379 367 c 1,6,7
 430 367 430 367 446 299 c 1,8,9
 446 231 446 231 379 231 c 0,10,11
 356 231 356 231 332 250 c 0,12,13
 314 268 314 268 311 299 c 0,4,5
311 780 m 0,14,15
 311 835 311 835 379 848 c 1,16,17
 430 848 430 848 446 780 c 1,18,19
 446 712 446 712 379 713 c 0,20,21
 356 713 356 713 332 731 c 0,22,23
 314 749 314 749 311 780 c 0,14,15
EndSplineSet
EndChar

StartChar: oslash
Encoding: 248 248 193
Width: 1019
GlyphClass: 2
Flags: W
LayerCount: 2
Fore
SplineSet
72 422 m 0,0,1
 72 606 72 606 197 731 c 0,2,3
 324 858 324 858 508 858 c 0,4,5
 627 858 627 858 729 799 c 1,6,-1
 811 915 l 1,7,-1
 885 866 l 1,8,-1
 801 745 l 1,9,10
 944 615 944 615 944 422 c 0,11,12
 944 238 944 238 819 113 c 0,13,14
 692 -14 692 -14 508 -14 c 0,15,16
 395 -14 395 -14 301 37 c 1,17,-1
 225 -72 l 1,18,-1
 156 -20 l 1,19,-1
 229 86 l 1,20,21
 71 215 71 215 72 422 c 0,0,1
154 422 m 0,22,23
 154 260 154 260 276 154 c 1,24,-1
 682 731 l 1,25,26
 598 776 598 776 508 776 c 0,27,28
 361 776 361 776 258 674 c 0,29,30
 154 570 154 570 154 422 c 0,22,23
350 104 m 1,31,-1
 387 88 l 1,32,-1
 426 76 l 1,33,-1
 508 68 l 1,34,35
 655 68 655 68 758 170 c 0,36,37
 862 275 862 275 862 422 c 0,38,39
 862 576 862 576 754 678 c 1,40,-1
 350 104 l 1,31,-1
EndSplineSet
EndChar

StartChar: ugrave
Encoding: 249 249 194
Width: 878
GlyphClass: 2
Flags: W
LayerCount: 2
Fore
SplineSet
125 317 m 2,0,-1
 125 846 l 1,1,-1
 209 846 l 1,2,-1
 209 317 l 2,3,4
 209 196 209 196 262 131 c 0,5,6
 317 65 317 65 438 66 c 0,7,8
 674 66 674 66 674 317 c 2,9,-1
 674 846 l 1,10,-1
 756 846 l 1,11,-1
 756 317 l 2,12,13
 756 161 756 161 674 74 c 0,14,15
 590 -16 590 -16 438 -16 c 0,16,17
 288 -16 288 -16 206.5 72 c 128,-1,18
 125 160 125 160 125 317 c 2,0,-1
180 1233 m 1,19,-1
 225 1282 l 1,20,-1
 500 1008 l 1,21,-1
 449 961 l 1,22,-1
 180 1233 l 1,19,-1
EndSplineSet
EndChar

StartChar: uacute
Encoding: 250 250 195
Width: 878
GlyphClass: 2
Flags: W
LayerCount: 2
Fore
SplineSet
125 317 m 2,0,-1
 125 846 l 1,1,-1
 209 846 l 1,2,-1
 209 317 l 2,3,4
 209 196 209 196 262 131 c 0,5,6
 317 65 317 65 438 66 c 0,7,8
 674 66 674 66 674 317 c 2,9,-1
 674 846 l 1,10,-1
 756 846 l 1,11,-1
 756 317 l 2,12,13
 756 161 756 161 674 74 c 0,14,15
 590 -16 590 -16 438 -16 c 0,16,17
 288 -16 288 -16 206.5 72 c 128,-1,18
 125 160 125 160 125 317 c 2,0,-1
399 1008 m 1,19,-1
 674 1282 l 1,20,-1
 719 1233 l 1,21,-1
 449 961 l 1,22,-1
 399 1008 l 1,19,-1
EndSplineSet
EndChar

StartChar: ucircumflex
Encoding: 251 251 196
Width: 878
GlyphClass: 2
Flags: W
LayerCount: 2
Fore
SplineSet
125 317 m 2,0,-1
 125 846 l 1,1,-1
 209 846 l 1,2,-1
 209 317 l 2,3,4
 209 196 209 196 262 131 c 0,5,6
 317 65 317 65 438 66 c 0,7,8
 674 66 674 66 674 317 c 2,9,-1
 674 846 l 1,10,-1
 756 846 l 1,11,-1
 756 317 l 2,12,13
 756 161 756 161 674 74 c 0,14,15
 590 -16 590 -16 438 -16 c 0,16,17
 288 -16 288 -16 206.5 72 c 128,-1,18
 125 160 125 160 125 317 c 2,0,-1
193 1016 m 1,19,-1
 440 1262 l 1,20,-1
 688 1016 l 1,21,-1
 645 971 l 1,22,-1
 440 1174 l 1,23,-1
 236 971 l 1,24,-1
 193 1016 l 1,19,-1
EndSplineSet
EndChar

StartChar: udieresis
Encoding: 252 252 197
Width: 878
GlyphClass: 2
Flags: W
LayerCount: 2
Fore
SplineSet
125 317 m 2,0,-1
 125 846 l 1,1,-1
 209 846 l 1,2,-1
 209 317 l 2,3,4
 209 196 209 196 262 131 c 0,5,6
 317 65 317 65 438 66 c 0,7,8
 674 66 674 66 674 317 c 2,9,-1
 674 846 l 1,10,-1
 756 846 l 1,11,-1
 756 317 l 2,12,13
 756 161 756 161 674 74 c 0,14,15
 590 -16 590 -16 438 -16 c 0,16,17
 288 -16 288 -16 206.5 72 c 128,-1,18
 125 160 125 160 125 317 c 2,0,-1
229 1065 m 0,19,20
 229 1120 229 1120 297 1133 c 1,21,22
 349 1133 349 1133 365 1065 c 1,23,24
 365 997 365 997 297 997 c 0,25,26
 274 997 274 997 250 1016 c 0,27,28
 232 1034 232 1034 229 1065 c 0,19,20
510 1065 m 0,29,30
 510 1120 510 1120 578 1133 c 1,31,32
 629 1133 629 1133 645 1065 c 1,33,34
 645 997 645 997 578 997 c 0,35,36
 555 997 555 997 530 1016 c 0,37,38
 512 1034 512 1034 510 1065 c 0,29,30
EndSplineSet
EndChar

StartChar: yacute
Encoding: 253 253 198
Width: 1683
GlyphClass: 2
Flags: W
LayerCount: 2
Fore
SplineSet
102 731 m 0,0,1
 102 1063 102 1063 311 1272 c 0,2,3
 522 1483 522 1483 854 1483 c 0,4,5
 1081 1483 1081 1483 1262 1376 c 1,6,-1
 1346 1495 l 1,7,-1
 1421 1448 l 1,8,-1
 1335 1325 l 1,9,10
 1608 1110 1608 1110 1608 731 c 0,11,12
 1608 399 1608 399 1397 190 c 0,13,14
 1186 -21 1186 -21 854 -20 c 0,15,16
 643 -20 643 -20 463 78 c 1,17,-1
 381 -41 l 1,18,-1
 307 8 l 1,19,-1
 389 127 l 1,20,21
 248 229 248 229 174 393 c 0,22,23
 102 553 102 553 102 731 c 0,0,1
186 731 m 0,24,25
 186 559 186 559 252 422 c 0,26,27
 315 287 315 287 438 197 c 1,28,-1
 1214 1307 l 1,29,30
 1046 1401 1046 1401 854 1401 c 0,31,32
 559 1401 559 1401 375 1212 c 0,33,34
 187 1024 187 1024 186 731 c 0,24,25
471 850 m 256,35,36
 471 918 471 918 522 969 c 128,-1,37
 573 1020 573 1020 641 1020 c 256,38,39
 709 1020 709 1020 760 969 c 128,-1,40
 811 918 811 918 811 850 c 256,41,42
 811 782 811 782 760 731 c 128,-1,43
 709 680 709 680 641 680 c 256,44,45
 573 680 573 680 522 731 c 128,-1,46
 471 782 471 782 471 850 c 256,35,36
512 147 m 1,47,48
 670 63 670 63 854 63 c 0,49,50
 1149 63 1149 63 1337 248 c 0,51,52
 1523 434 1523 434 1524 731 c 2,53,-1
 1524 764 l 1,54,55
 1512 746 1512 746 1497 731 c 0,56,57
 1446 680 1446 680 1378 680 c 256,58,59
 1310 680 1310 680 1259 731 c 128,-1,60
 1208 782 1208 782 1208 850 c 256,61,62
 1208 918 1208 918 1259.5 969 c 128,-1,63
 1311 1020 1311 1020 1378 1020 c 0,64,65
 1437 1020 1437 1020 1483 981 c 1,66,67
 1428 1141 1428 1141 1286 1255 c 1,68,-1
 512 147 l 1,47,48
514 852 m 256,69,70
 514 803 514 803 553 764 c 128,-1,71
 592 725 592 725 641 725 c 256,72,73
 690 725 690 725 729 764 c 128,-1,74
 768 803 768 803 768 852 c 256,75,76
 768 901 768 901 729 940 c 128,-1,77
 690 979 690 979 641 979 c 256,78,79
 592 979 592 979 553 940 c 128,-1,80
 514 901 514 901 514 852 c 256,69,70
616 817 m 256,81,82
 616 835 616 835 629.5 848.5 c 128,-1,83
 643 862 643 862 662 862 c 0,84,85
 680 862 680 862 693.5 849 c 128,-1,86
 707 836 707 836 707 817 c 0,87,88
 707 799 707 799 693.5 785.5 c 128,-1,89
 680 772 680 772 662 772 c 256,90,91
 644 772 644 772 630 785.5 c 128,-1,92
 616 799 616 799 616 817 c 256,81,82
821 309 m 1,93,-1
 864 358 l 1,94,95
 944 278 944 278 1051 279 c 0,96,97
 1149 279 1149 279 1225 354 c 1,98,-1
 1262 309 l 1,99,100
 1184 219 1184 219 1042 219 c 0,101,102
 905 219 905 219 821 309 c 1,93,-1
1251 852 m 256,103,104
 1251 803 1251 803 1290 764 c 128,-1,105
 1329 725 1329 725 1378 725 c 256,106,107
 1427 725 1427 725 1466 764 c 128,-1,108
 1505 803 1505 803 1505 852 c 256,109,110
 1505 901 1505 901 1466 940 c 128,-1,111
 1427 979 1427 979 1378 979 c 256,112,113
 1329 979 1329 979 1290 940 c 128,-1,114
 1251 901 1251 901 1251 852 c 256,103,104
1356 811 m 256,115,116
 1356 829 1356 829 1369 842.5 c 128,-1,117
 1382 856 1382 856 1401 856 c 0,118,119
 1419 856 1419 856 1432.5 842.5 c 128,-1,120
 1446 829 1446 829 1446 811 c 256,121,122
 1446 793 1446 793 1432.5 779.5 c 128,-1,123
 1419 766 1419 766 1401 766 c 256,124,125
 1383 766 1383 766 1369.5 779.5 c 128,-1,126
 1356 793 1356 793 1356 811 c 256,115,116
EndSplineSet
EndChar

StartChar: thorn
Encoding: 254 254 199
Width: 1050
GlyphClass: 2
Flags: W
LayerCount: 2
Fore
SplineSet
131 -397 m 1,0,-1
 131 1516 l 1,1,-1
 215 1516 l 1,2,-1
 215 686 l 1,3,4
 346 858 346 858 563 858 c 0,5,6
 747 858 747 858 872 733 c 0,7,8
 999 606 999 606 999 422 c 256,9,10
 999 238 999 238 874 113 c 0,11,12
 747 -14 747 -14 563 -14 c 0,13,14
 352 -14 352 -14 215 158 c 1,15,-1
 215 -397 l 1,16,-1
 131 -397 l 1,0,-1
209 422 m 0,17,18
 209 277 209 277 313.5 172.5 c 128,-1,19
 418 68 418 68 563 68 c 0,20,21
 710 68 710 68 813 170 c 0,22,23
 918 275 918 275 918 422 c 0,24,25
 918 567 918 567 813.5 671.5 c 128,-1,26
 709 776 709 776 563 776 c 0,27,28
 416 776 416 776 313 674 c 0,29,30
 209 570 209 570 209 422 c 0,17,18
EndSplineSet
EndChar

StartChar: ydieresis
Encoding: 255 255 200
Width: 911
GlyphClass: 2
Flags: W
LayerCount: 2
Fore
SplineSet
57 846 m 1,0,-1
 147 846 l 1,1,-1
 463 178 l 1,2,-1
 774 846 l 1,3,-1
 866 846 l 1,4,-1
 289 -397 l 1,5,-1
 195 -397 l 1,6,-1
 414 78 l 1,7,-1
 57 846 l 1,0,-1
262 1065 m 0,8,9
 262 1120 262 1120 330 1133 c 1,10,11
 381 1133 381 1133 397 1065 c 1,12,13
 397 997 397 997 330 997 c 0,14,15
 307 997 307 997 283 1016 c 0,16,17
 265 1034 265 1034 262 1065 c 0,8,9
543 1065 m 0,18,19
 543 1120 543 1120 610 1133 c 1,20,21
 662 1133 662 1133 678 1065 c 1,22,23
 678 997 678 997 610 997 c 0,24,25
 587 997 587 997 563 1016 c 0,26,27
 545 1034 545 1034 543 1065 c 0,18,19
EndSplineSet
EndChar

StartChar: OE
Encoding: 338 338 201
Width: 2351
GlyphClass: 2
Flags: W
LayerCount: 2
Fore
SplineSet
102 731 m 256,0,1
 102 1063 102 1063 311 1272 c 0,2,3
 522 1483 522 1483 854 1483 c 0,4,5
 1071 1483 1071 1483 1245 1386 c 0,6,7
 1427 1284 1427 1284 1524 1096 c 1,8,-1
 1524 1462 l 1,9,-1
 2226 1462 l 1,10,-1
 2226 1378 l 1,11,-1
 1608 1378 l 1,12,-1
 1608 846 l 1,13,-1
 2226 846 l 1,14,-1
 2226 756 l 1,15,-1
 1608 756 l 1,16,-1
 1608 84 l 1,17,-1
 2226 84 l 1,18,-1
 2226 0 l 1,19,-1
 1524 0 l 1,20,-1
 1524 367 l 1,21,22
 1424 177 1424 177 1245 76 c 0,23,24
 1077 -20 1077 -20 854 -20 c 0,25,26
 522 -20 522 -20 313 188 c 0,27,28
 102 399 102 399 102 731 c 256,0,1
186 731 m 256,29,30
 186 438 186 438 373 252 c 0,31,32
 561 64 561 64 854 63 c 0,33,34
 1149 63 1149 63 1337 248 c 0,35,36
 1524 434 1524 434 1524 731 c 0,37,38
 1524 1026 1524 1026 1337 1212 c 0,39,40
 1149 1400 1149 1400 854 1401 c 0,41,42
 563 1401 563 1401 374.5 1212.5 c 128,-1,43
 186 1024 186 1024 186 731 c 256,29,30
EndSplineSet
EndChar

StartChar: oe
Encoding: 339 339 202
Width: 1808
GlyphClass: 2
Flags: W
LayerCount: 2
Fore
SplineSet
72 422 m 256,0,1
 72 606 72 606 197 731 c 0,2,3
 324 858 324 858 508 858 c 0,4,5
 633 858 633 858 737 791 c 0,6,7
 843 721 843 721 901 608 c 1,8,9
 952 725 952 725 1060.5 790.5 c 128,-1,10
 1169 856 1169 856 1303 856 c 0,11,12
 1489 856 1489 856 1614 741 c 0,13,14
 1739 628 1739 628 1739 440 c 1,15,-1
 946 440 l 1,16,17
 946 268 946 268 1038 168 c 0,18,19
 1134 66 1134 66 1303 66 c 0,20,21
 1389 66 1389 66 1458 94 c 0,22,23
 1546 131 1546 131 1616 244 c 1,24,-1
 1692 209 l 1,25,26
 1612 57 1612 57 1446 4 c 0,27,28
 1383 -16 1383 -16 1303 -16 c 0,29,30
 1172 -16 1172 -16 1063 49 c 1,31,32
 957 117 957 117 901 236 c 1,33,34
 848 119 848 119 743 53 c 0,35,36
 634 -15 634 -15 508 -14 c 0,37,38
 324 -14 324 -14 199 111 c 0,39,40
 72 238 72 238 72 422 c 256,0,1
154 422 m 0,41,42
 154 277 154 277 258 172.5 c 128,-1,43
 362 68 362 68 508 68 c 0,44,45
 655 68 655 68 758 170 c 0,46,47
 862 275 862 275 862 422 c 0,48,49
 862 567 862 567 757.5 671.5 c 128,-1,50
 653 776 653 776 508 776 c 0,51,52
 361 776 361 776 258 674 c 0,53,54
 154 570 154 570 154 422 c 0,41,42
958 520 m 1,55,-1
 1645 520 l 1,56,57
 1625 614 1625 614 1550 684 c 0,58,59
 1454 774 1454 774 1303 774 c 0,60,61
 1041 774 1041 774 958 520 c 1,55,-1
EndSplineSet
EndChar

StartChar: Ydieresis
Encoding: 376 376 203
Width: 1046
GlyphClass: 2
Flags: W
LayerCount: 2
Fore
SplineSet
68 1462 m 1,0,-1
 164 1462 l 1,1,-1
 524 829 l 1,2,-1
 889 1462 l 1,3,-1
 985 1462 l 1,4,-1
 567 731 l 1,5,-1
 567 0 l 1,6,-1
 483 0 l 1,7,-1
 483 731 l 1,8,-1
 68 1462 l 1,0,-1
309 1630 m 0,9,10
 309 1685 309 1685 377 1698 c 1,11,12
 428 1698 428 1698 444 1630 c 1,13,14
 444 1562 444 1562 377 1563 c 0,15,16
 354 1563 354 1563 330 1581 c 0,17,18
 312 1599 312 1599 309 1630 c 0,9,10
590 1630 m 0,19,20
 590 1685 590 1685 657 1698 c 1,21,22
 709 1698 709 1698 725 1630 c 1,23,24
 725 1562 725 1562 657 1563 c 0,25,26
 634 1563 634 1563 610 1581 c 0,27,28
 592 1599 592 1599 590 1630 c 0,19,20
EndSplineSet
EndChar

StartChar: circumflex
Encoding: 710 710 204
Width: 774
GlyphClass: 2
Flags: W
LayerCount: 2
Fore
SplineSet
147 1016 m 1,0,-1
 393 1262 l 1,1,-1
 639 1016 l 1,2,-1
 598 971 l 1,3,-1
 393 1174 l 1,4,-1
 188 971 l 1,5,-1
 147 1016 l 1,0,-1
EndSplineSet
EndChar

StartChar: tilde
Encoding: 732 732 205
Width: 866
GlyphClass: 2
Flags: W
LayerCount: 2
Fore
SplineSet
115 1051 m 1,0,1
 172 1155 172 1155 309 1155 c 0,2,3
 360 1155 360 1155 416 1135 c 0,4,5
 424 1131 424 1131 432 1126.5 c 128,-1,6
 440 1122 440 1122 451 1116 c 2,7,-1
 510 1092 l 1,8,-1
 582 1083 l 1,9,-1
 629 1083 l 1,10,-1
 653 1092 l 2,11,12
 669 1098 669 1098 713 1141 c 1,13,-1
 772 1096 l 1,14,-1
 733 1055 l 1,15,-1
 700 1028 l 1,16,17
 653 999 653 999 590 999 c 0,18,19
 494 999 494 999 432 1036 c 1,20,-1
 373 1061 l 2,21,22
 344 1073 344 1073 299 1073 c 0,23,24
 223 1073 223 1073 172 1006 c 1,25,-1
 115 1051 l 1,0,1
EndSplineSet
EndChar

StartChar: uni2010
Encoding: 8208 8208 217
Width: 555
GlyphClass: 2
Flags: W
LayerCount: 2
Fore
SplineSet
37 500 m 1,0,-1
 37 584 l 1,1,-1
 469 584 l 1,2,-1
 469 500 l 1,3,-1
 37 500 l 1,0,-1
EndSplineSet
EndChar

StartChar: uni2011
Encoding: 8209 8209 218
Width: 555
GlyphClass: 2
Flags: W
LayerCount: 2
Fore
SplineSet
37 500 m 1,0,-1
 37 584 l 1,1,-1
 469 584 l 1,2,-1
 469 500 l 1,3,-1
 37 500 l 1,0,-1
EndSplineSet
EndChar

StartChar: figuredash
Encoding: 8210 8210 219
Width: 555
GlyphClass: 2
Flags: W
LayerCount: 2
Fore
SplineSet
37 500 m 1,0,-1
 37 584 l 1,1,-1
 469 584 l 1,2,-1
 469 500 l 1,3,-1
 37 500 l 1,0,-1
EndSplineSet
EndChar

StartChar: endash
Encoding: 8211 8211 220
Width: 761
GlyphClass: 2
Flags: W
LayerCount: 2
Fore
SplineSet
86 500 m 1,0,-1
 86 584 l 1,1,-1
 682 584 l 1,2,-1
 682 500 l 1,3,-1
 86 500 l 1,0,-1
EndSplineSet
EndChar

StartChar: emdash
Encoding: 8212 8212 221
Width: 1263
GlyphClass: 2
Flags: W
LayerCount: 2
Fore
SplineSet
106 500 m 1,0,-1
 106 584 l 1,1,-1
 1171 584 l 1,2,-1
 1171 500 l 1,3,-1
 106 500 l 1,0,-1
EndSplineSet
EndChar

StartChar: quoteleft
Encoding: 8216 8216 222
Width: 333
GlyphClass: 2
Flags: W
LayerCount: 2
Fore
SplineSet
117 1155 m 1,0,-1
 117 1395 l 2,1,2
 117 1463 117 1463 154 1491 c 1,3,-1
 195 1491 l 1,4,5
 158 1450 158 1450 158 1395 c 2,6,-1
 158 1303 l 1,7,-1
 225 1303 l 1,8,-1
 225 1155 l 1,9,-1
 117 1155 l 1,0,-1
EndSplineSet
EndChar

StartChar: quoteright
Encoding: 8217 8217 223
Width: 323
GlyphClass: 2
Flags: W
LayerCount: 2
Fore
SplineSet
129 1360 m 1,0,-1
 129 1507 l 1,1,-1
 238 1507 l 1,2,-1
 238 1268 l 2,3,4
 238 1217 238 1217 201 1171 c 1,5,-1
 160 1171 l 1,6,7
 197 1210 197 1210 197 1268 c 2,8,-1
 197 1360 l 1,9,-1
 129 1360 l 1,0,-1
EndSplineSet
EndChar

StartChar: quotesinglbase
Encoding: 8218 8218 224
Width: 323
GlyphClass: 2
Flags: W
LayerCount: 2
Fore
SplineSet
129 123 m 1,0,-1
 129 270 l 1,1,-1
 238 270 l 1,2,-1
 238 31 l 2,3,4
 238 2 238 2 227 -23 c 1,5,6
 221 -52 221 -52 201 -66 c 1,7,-1
 160 -66 l 1,8,9
 197 -27 197 -27 197 31 c 2,10,-1
 197 123 l 1,11,-1
 129 123 l 1,0,-1
EndSplineSet
EndChar

StartChar: quotedblleft
Encoding: 8220 8220 225
Width: 585
GlyphClass: 2
Flags: W
LayerCount: 2
Fore
SplineSet
125 1155 m 1,0,-1
 125 1395 l 2,1,2
 125 1463 125 1463 162 1491 c 1,3,-1
 203 1491 l 1,4,5
 166 1450 166 1450 166 1395 c 2,6,-1
 166 1303 l 1,7,-1
 233 1303 l 1,8,-1
 233 1155 l 1,9,-1
 125 1155 l 1,0,-1
360 1155 m 1,10,-1
 360 1395 l 2,11,12
 360 1463 360 1463 397 1491 c 1,13,-1
 438 1491 l 1,14,15
 401 1450 401 1450 401 1395 c 2,16,-1
 401 1303 l 1,17,-1
 469 1303 l 1,18,-1
 469 1155 l 1,19,-1
 360 1155 l 1,10,-1
EndSplineSet
EndChar

StartChar: quotedblright
Encoding: 8221 8221 226
Width: 616
GlyphClass: 2
Flags: W
LayerCount: 2
Fore
SplineSet
135 1360 m 1,0,-1
 135 1507 l 1,1,-1
 244 1507 l 1,2,-1
 244 1268 l 2,3,4
 244 1217 244 1217 207 1171 c 1,5,-1
 166 1171 l 1,6,7
 203 1210 203 1210 203 1268 c 2,8,-1
 203 1360 l 1,9,-1
 135 1360 l 1,0,-1
371 1360 m 1,10,-1
 371 1507 l 1,11,-1
 479 1507 l 1,12,-1
 479 1268 l 2,13,14
 479 1217 479 1217 442 1171 c 1,15,-1
 401 1171 l 1,16,17
 438 1210 438 1210 438 1268 c 2,18,-1
 438 1360 l 1,19,-1
 371 1360 l 1,10,-1
EndSplineSet
EndChar

StartChar: quotedblbase
Encoding: 8222 8222 227
Width: 616
GlyphClass: 2
Flags: W
LayerCount: 2
Fore
SplineSet
135 123 m 1,0,-1
 135 270 l 1,1,-1
 244 270 l 1,2,-1
 244 31 l 2,3,4
 244 2 244 2 233 -23 c 1,5,6
 227 -52 227 -52 207 -66 c 1,7,-1
 166 -66 l 1,8,9
 203 -27 203 -27 203 31 c 2,10,-1
 203 123 l 1,11,-1
 135 123 l 1,0,-1
371 123 m 1,12,-1
 371 270 l 1,13,-1
 479 270 l 1,14,-1
 479 31 l 2,15,16
 479 2 479 2 469 -23 c 1,17,18
 463 -52 463 -52 442 -66 c 1,19,-1
 401 -66 l 1,20,21
 438 -27 438 -27 438 31 c 2,22,-1
 438 123 l 1,23,-1
 371 123 l 1,12,-1
EndSplineSet
EndChar

StartChar: bullet
Encoding: 8226 8226 228
Width: 602
GlyphClass: 2
Flags: W
LayerCount: 2
Fore
SplineSet
98 672 m 0,0,1
 98 740 98 740 147 793 c 1,2,3
 198 842 198 842 268 842 c 0,4,5
 340 842 340 842 389 793 c 0,6,7
 438 740 438 740 438 672 c 0,8,9
 438 600 438 600 389 551 c 128,-1,10
 340 502 340 502 268 502 c 0,11,12
 198 502 198 502 147 551 c 0,13,14
 98 600 98 600 98 672 c 0,0,1
EndSplineSet
EndChar

StartChar: ellipsis
Encoding: 8230 8230 229
Width: 856
GlyphClass: 2
Flags: W
LayerCount: 2
Fore
SplineSet
-8 55 m 0,0,1
 -8 110 -8 110 59 123 c 1,2,3
 111 123 111 123 127 55 c 1,4,5
 127 -13 127 -13 59 -12 c 0,6,7
 36 -12 36 -12 12 6 c 0,8,9
 -6 24 -6 24 -8 55 c 0,0,1
285 55 m 0,10,11
 285 110 285 110 352 123 c 1,12,13
 404 123 404 123 420 55 c 1,14,15
 420 -13 420 -13 352 -12 c 0,16,17
 329 -12 329 -12 305 6 c 0,18,19
 287 24 287 24 285 55 c 0,10,11
578 55 m 0,20,21
 578 110 578 110 645 123 c 1,22,23
 697 123 697 123 713 55 c 1,24,25
 713 -13 713 -13 645 -12 c 0,26,27
 622 -12 622 -12 598 6 c 0,28,29
 580 24 580 24 578 55 c 0,20,21
EndSplineSet
EndChar

StartChar: guilsinglleft
Encoding: 8249 8249 231
Width: 575
GlyphClass: 2
Flags: W
LayerCount: 2
Fore
SplineSet
53 522 m 1,0,-1
 438 909 l 1,1,-1
 481 866 l 1,2,-1
 135 522 l 1,3,-1
 473 186 l 1,4,-1
 430 143 l 1,5,-1
 53 522 l 1,0,-1
EndSplineSet
EndChar

StartChar: guilsinglright
Encoding: 8250 8250 232
Width: 575
GlyphClass: 2
Flags: W
LayerCount: 2
Fore
SplineSet
92 866 m 1,0,-1
 133 909 l 1,1,-1
 520 522 l 1,2,-1
 141 143 l 1,3,-1
 100 186 l 1,4,-1
 436 522 l 1,5,-1
 92 866 l 1,0,-1
EndSplineSet
EndChar

StartChar: Euro
Encoding: 8364 8364 234
Width: 1437
GlyphClass: 2
Flags: W
LayerCount: 2
Fore
SplineSet
2 559 m 1,0,-1
 2 641 l 1,1,-1
 127 641 l 1,2,3
 125 664 125 664 124 686.5 c 128,-1,4
 123 709 123 709 123 731 c 0,5,6
 123 751 123 751 123 770 c 0,7,8
 123 790 123 790 125 809 c 1,9,-1
 2 809 l 1,10,-1
 2 893 l 1,11,-1
 137 893 l 1,12,13
 176 1116 176 1116 332 1272 c 0,14,15
 543 1483 543 1483 874 1483 c 0,16,17
 1062 1483 1062 1483 1214 1427 c 0,18,19
 1304 1392 1304 1392 1389 1327 c 1,20,-1
 1389 1223 l 1,21,22
 1303 1295 1303 1295 1200 1337 c 0,23,24
 1044 1400 1044 1400 874 1401 c 0,25,26
 579 1401 579 1401 395 1212 c 0,27,28
 260 1079 260 1079 223 893 c 1,29,-1
 1362 893 l 1,30,-1
 1362 809 l 1,31,-1
 211 809 l 1,32,33
 209 791 209 791 208 771.5 c 128,-1,34
 207 752 207 752 207 731 c 0,35,36
 207 708 207 708 208 686 c 128,-1,37
 209 664 209 664 211 641 c 1,38,-1
 1362 641 l 1,39,-1
 1362 559 l 1,40,-1
 225 559 l 1,41,42
 266 379 266 379 393 252 c 0,43,44
 581 64 581 64 874 63 c 0,45,46
 1056 63 1056 63 1192 129 c 0,47,48
 1270 168 1270 168 1389 254 c 1,49,-1
 1389 158 l 1,50,-1
 1290 86 l 2,51,52
 1175 2 1175 2 979 -16 c 0,53,54
 956 -18 956 -18 929.5 -19 c 128,-1,55
 903 -20 903 -20 874 -20 c 0,56,57
 542 -20 542 -20 334 188 c 0,58,59
 178 344 178 344 139 559 c 1,60,-1
 2 559 l 1,0,-1
EndSplineSet
EndChar

StartChar: trademark
Encoding: 8482 8482 235
Width: 690
GlyphClass: 2
Flags: W
LayerCount: 2
Fore
SplineSet
80 1434 m 1,0,-1
 80 1446 l 1,1,-1
 303 1446 l 1,2,-1
 303 1434 l 1,3,-1
 199 1434 l 1,4,-1
 199 1118 l 1,5,-1
 184 1118 l 1,6,-1
 184 1434 l 1,7,-1
 80 1434 l 1,0,-1
293 1120 m 1,8,-1
 367 1450 l 1,9,-1
 471 1147 l 1,10,-1
 578 1450 l 1,11,-1
 645 1120 l 1,12,-1
 631 1120 l 1,13,-1
 573 1403 l 1,14,-1
 471 1104 l 1,15,-1
 369 1403 l 1,16,-1
 307 1120 l 1,17,-1
 293 1120 l 1,8,-1
EndSplineSet
EndChar

StartChar: uni25FC
Encoding: 9724 9724 236
Width: 849
GlyphClass: 2
Flags: W
LayerCount: 2
Fore
SplineSet
0 0 m 1,0,-1
 0 850 l 1,1,-1
 850 850 l 1,2,-1
 850 0 l 1,3,-1
 0 0 l 1,0,-1
EndSplineSet
EndChar
